<svg xmlns="http://www.w3.org/2000/svg" width="34.133" height="24" viewBox="0 0 34.133 24">
  <g id="dinner_1_" data-name="dinner (1)" transform="translate(0 0)">
    <path id="Path_1698" data-name="Path 1698" d="M31,19a1,1,0,0,0,1,1H60.067a1,1,0,0,0,1-1A15.043,15.043,0,0,0,48.727,4.247a3,3,0,1,0-5.455,0A15,15,0,0,0,31,19ZM45,3a1,1,0,1,1,1,1A1,1,0,0,1,45,3Zm1,3A13.057,13.057,0,0,1,59.028,18H33.038A13.018,13.018,0,0,1,46,6Zm0,0" transform="translate(-28.933 0)"/>
    <path id="Path_1699" data-name="Path 1699" d="M33.133,330H1a1,1,0,0,0,0,2H33.133a1,1,0,1,0,0-2Zm0,0" transform="translate(0 -308)"/>
  </g>
</svg>
