<svg xmlns="http://www.w3.org/2000/svg" width="20" height="20" viewBox="0 0 20 20">
  <g id="Group_1513" data-name="Group 1513" transform="translate(-1666 -786)">
    <path id="Path_1197" data-name="Path 1197" d="M12,2A10,10,0,1,0,22,12,10,10,0,0,0,12,2Zm0,18a8,8,0,1,1,8-8A8,8,0,0,1,12,20Z" transform="translate(1664 784)"/>
    <path id="Path_1198" data-name="Path 1198" d="M14.7,8.39l-3.78,5L9.29,11.28a1,1,0,1,0-1.58,1.23l2.43,3.11a1,1,0,0,0,1.58-.01l4.57-6a1.006,1.006,0,0,0-1.6-1.22Z" transform="translate(1664 784)"/>
  </g>
</svg>
