<svg xmlns="http://www.w3.org/2000/svg" width="40" height="40" viewBox="0 0 40 40"><g><g><g><path d="M12.35 26.016a1.63 1.63 0 1 0 1.152 2.782 1.632 1.632 0 0 0 0-2.305 1.624 1.624 0 0 0-1.153-.477z"/></g><g><path d="M15.159 30.456a3.962 3.962 0 0 1-2.81 1.162 3.964 3.964 0 0 1-2.81-1.162 3.979 3.979 0 0 1 0-5.62 3.982 3.982 0 0 1 4.667-.704l6.012-6.013a12.264 12.264 0 0 0-7.869-2.828c-3.3 0-6.402 1.285-8.736 3.618-4.817 4.818-4.817 12.656 0 17.473A12.276 12.276 0 0 0 12.35 40c3.3 0 6.403-1.285 8.736-3.618a12.276 12.276 0 0 0 3.619-8.737c0-2.905-.997-5.659-2.829-7.868l-6.012 6.012a3.982 3.982 0 0 1-.704 4.667z"/></g><g><path d="M23.277 9.74l-2.717 2.717a17.259 17.259 0 0 0-6.518-1.996l-.228 2.333a14.946 14.946 0 0 1 8.226 3.503l-1.822 1.822a12.696 12.696 0 0 1 1.657 1.657l1.822-1.821A14.947 14.947 0 0 1 27.2 26.18l2.333-.229a17.259 17.259 0 0 0-1.996-6.517l2.718-2.717z"/></g><g><path d="M24.931 8.085L33.016 0l6.977 6.977-8.085 8.085z"/></g></g></g></svg>