<?xml version="1.0" encoding="utf-8"?>
<!-- Generator: Adobe Illustrator 22.1.0, SVG Export Plug-In . SVG Version: 6.00 Build 0)  -->
<svg version="1.1" id="&#x421;&#x43B;&#x43E;&#x439;_1" xmlns="http://www.w3.org/2000/svg" xmlns:xlink="http://www.w3.org/1999/xlink" x="0px" y="0px" viewBox="0 0 49 49" xml:space="preserve">

<path class="st0" d="M16.2,1.6c0,2-1.3,3.9-3.3,4.5c-0.4,0.2-0.9,0.3-1.3,0.3c-1.6-0.1-3-1.3-3.3-2.9c-0.1-0.9,0-1.8,0.4-2.6L0,0
	l5.4,48.9l37.8-7.6L49,4.8L16.2,1.6z M19.7,38.9c-0.1,0-0.2,0-0.3,0c-1.4,0-2.6-1.2-2.6-2.5c-0.1-1.6,1.1-3,2.7-3.2
	c0.1,0,0.2,0,0.3,0c1.4-0.1,2.6,1.1,2.6,2.5C22.5,37.3,21.3,38.7,19.7,38.9z M35,26H14v-3h21V26z M40,14c-0.1,0-0.2,0-0.3,0
	c-1.2,0-2.2-0.9-2.2-2.1c0-0.6,0.2-1.2,0.6-1.7s1-0.8,1.7-0.9c0.1,0,0.2,0,0.3,0h0.1c1.2,0,2.1,0.9,2.1,2.1
	C42.3,12.7,41.3,13.8,40,14z"/>
</svg>
