<svg id="Group_679" data-name="Group 679" xmlns="http://www.w3.org/2000/svg" width="25" height="25" viewBox="0 0 25 25">
  <g id="Group_678" data-name="Group 678">
    <g id="Group_677" data-name="Group 677">
      <path id="Path_218" data-name="Path 218" d="M22.07,0H2.93A2.933,2.933,0,0,0,0,2.93V22.07A2.933,2.933,0,0,0,2.93,25H22.07A2.933,2.933,0,0,0,25,22.07V2.93A2.933,2.933,0,0,0,22.07,0Zm.977,22.07a.978.978,0,0,1-.977.977H2.93a.978.978,0,0,1-.977-.977V2.93a.978.978,0,0,1,.977-.977H22.07a.978.978,0,0,1,.977.977Z"/>
      <path id="Path_219" data-name="Path 219" d="M152.836,100H146v15.234h1.953v-5.469h4.883a4.883,4.883,0,1,0,0-9.766Zm0,7.813h-4.883v-5.859h4.883a2.93,2.93,0,1,1,0,5.859Z" transform="translate(-138.871 -95.117)"/>
    </g>
  </g>
</svg>
