<svg xmlns="http://www.w3.org/2000/svg" width="20" height="20.002" viewBox="0 0 20 20.002">
  <path id="call-phone.1" d="M10.974,6.254a1.525,1.525,0,0,1-.118,2.084,5.45,5.45,0,0,1-.436.508c-.082.086-.146.151-.28.285L9.374,9.9a6.743,6.743,0,0,0,1.916,2.8,6.717,6.717,0,0,0,2.8,1.917l.766-.767a5.72,5.72,0,0,1,.953-.828,1.481,1.481,0,0,1,1.922-.007,29.892,29.892,0,0,1,3.534,2.766,2.7,2.7,0,0,1,.006,3.682c-.31.328-.7.722-1.169,1.17-2.812,2.813-8.745,1.1-13.293-3.451S.552,6.7,3.358,3.889c.5-.512.67-.678,1.16-1.161a2.716,2.716,0,0,1,3.7,0A31.937,31.937,0,0,1,10.974,6.254Zm5.3,9.012-.766.767c-1.3,1.3-3.521.192-5.629-1.917S6.658,9.787,7.961,8.484l.766-.766c.123-.123.179-.18.246-.25.092-.1.167-.181.227-.256a29.773,29.773,0,0,0-2.385-3.06.748.748,0,0,0-.9,0c-.484.476-.643.635-1.144,1.145-1.8,1.805-.423,6.6,3.449,10.472s8.661,5.256,10.479,3.438q.686-.662,1.117-1.118a.715.715,0,0,0,.006-.919,28.074,28.074,0,0,0-3.05-2.377A6.813,6.813,0,0,0,16.272,15.266Z" transform="translate(-1.995 -1.999)" fill-rule="evenodd"/>
</svg>
