<svg xmlns="http://www.w3.org/2000/svg" width="40" height="40" viewBox="0 0 40 40"><g><g><g><path d="M27.625 23.094a1.172 1.172 0 1 1-1.657-1.658 1.172 1.172 0 0 1 1.657 1.658zm-5.488-2.754a3.894 3.894 0 0 1-2.762 1.142c-1 0-2.001-.38-2.763-1.142a3.91 3.91 0 0 1 0-5.524 3.895 3.895 0 0 1 2.763-1.142c1 0 2 .38 2.762 1.142a3.911 3.911 0 0 1 0 5.524zm10.586 4.146A28.915 28.915 0 0 0 26.03 13.97a28.917 28.917 0 0 0-10.517-6.693l-1.101-.4.015-.043-4.95 10.89A7.031 7.031 0 1 1 3.8 30.214l-3.695 8.13a1.172 1.172 0 0 0 1.551 1.552l31.51-14.323-.043.016z"/></g><g><path d="M39.93 21.312A35.698 35.698 0 0 0 31.668 8.33 35.703 35.703 0 0 0 18.688.07a1.172 1.172 0 0 0-1.467.616l-1.84 4.048.932.338a31.286 31.286 0 0 1 11.375 7.239 31.29 31.29 0 0 1 7.239 11.375l.338.931 4.048-1.84c.556-.253.825-.891.616-1.466z"/></g><g><path d="M19.375 16.017c-.42 0-.812.162-1.105.456-.61.61-.61 1.6 0 2.21.293.294.686.456 1.104.456.419 0 .811-.162 1.105-.456.61-.61.61-1.6 0-2.21a1.552 1.552 0 0 0-1.104-.456z"/></g><g><path d="M12.734 24.61a4.688 4.688 0 0 0-4.265-4.668l-3.661 8.054a4.688 4.688 0 0 0 7.926-3.387z"/></g></g></g></svg>