<svg xmlns="http://www.w3.org/2000/svg" width="28" height="41" viewBox="0 0 28 41"><g><g><path d="M13.542 5.009a5.912 5.912 0 0 0-5.905 5.905 5.912 5.912 0 0 0 5.905 5.905 5.912 5.912 0 0 0 5.905-5.905 5.912 5.912 0 0 0-5.905-5.905zm-.106 25h-.001a48.506 48.506 0 0 1-.706-.616l-.004-.004-.003-.002-.006-.005c-1.813-1.61-4.432-4.169-6.614-7.204-2.623-3.647-3.952-7.052-3.952-10.12C2.15 5.874 7.178.767 13.357.67c.028 0 .053-.002.078-.003.028.002.051.003.077.003 6.18.097 11.207 5.205 11.207 11.387 0 1.755-.442 3.642-1.312 5.608-.736 1.663-1.788 3.404-3.127 5.174-2.456 3.249-5.342 5.887-6.844 7.17zm.158 10.658c-6.764 0-13.612-1.94-13.612-5.648 0-.63.2-1.231.595-1.787.372-.525.923-1.014 1.634-1.455 1.324-.82 3.223-1.474 5.49-1.892a54.758 54.758 0 0 0 2.335 2.213c-2.135.238-4.1.708-5.534 1.324-1.242.533-1.983 1.13-1.983 1.596 0 1.097 4.205 3.112 11.075 3.112 6.87 0 11.077-2.015 11.077-3.112 0-.228-.184-.496-.53-.774-.36-.288-.889-.583-1.534-.853-1.495-.626-3.535-1.095-5.744-1.32a53.982 53.982 0 0 0 2.355-2.235c2.338.407 4.3 1.06 5.674 1.888.739.445 1.31.941 1.697 1.474.41.566.618 1.178.618 1.821 0 3.708-6.848 5.648-13.613 5.648z"/></g></g></svg>