<svg xmlns="http://www.w3.org/2000/svg" width="40" height="40" viewBox="0 0 40 40"><g><g><g><path d="M2.35 8.752c1.456 3.384 3.912 6.731 7.35 8.174.392.163.837.286 1.295.388.915-1.365 1.966-2.473 3.196-3.38a16.06 16.06 0 0 1 3.307-1.864 9.33 9.33 0 0 0-1.03-.625c-1.431-.748-2.98-1.406-4.488-2.113 1.418.384 3.045.527 4.402 1.022.846.31 1.626.74 2.354 1.25 2.17-.74 4.439-1.095 6.703-1.365-1.835-3.049-5.75-5.497-8.702-6.605-3.081-1.156-6.572-1.3-10.001-1.655C4.636 1.762 2.35.978.679.062c-.38-.208-.785.14-.654.56.821 2.628 1.238 5.604 2.325 8.13z"/></g><g><path d="M38.583 8.351c-3.866 2.1-8.3 2.358-12.645 2.857-2.122.245-4.222.548-6.221 1.152-.433.131-.867.278-1.292.442a15.222 15.222 0 0 0-3.63 1.962 12.304 12.304 0 0 0-2.705 2.767c-1.185 1.65-2.01 3.551-2.69 5.526a31.514 31.514 0 0 0-1.695 11.182c.045 1.537.07 3.135.45 4.635.085.331.167.752.424.997.335.323.936-.008.801-.478-.972-3.315-.367-7.19.977-10.357 1.545-3.642 4.529-5.808 8.175-7.128a46.36 46.36 0 0 1 2.963-.948c.02-.008.04-.008.061-.008.2 0 .286.294.078.388-1.186.535-2.363 1.075-3.483 1.66-5.485 2.86-7.88 9.523-5.824 9.523.168 0 .364-.045.589-.14 3.171-1.311 6.94-1.324 10.426-1.97 1.226-.224 2.42-.53 3.54-.997 4.447-1.855 7.626-5.485 9.519-9.85 1.41-3.257 1.957-7.103 3.024-10.487.14-.434-.167-.806-.543-.806a.562.562 0 0 0-.299.078z"/></g></g></g></svg>