<svg xmlns="http://www.w3.org/2000/svg" width="54" height="17.579" viewBox="0 0 54 17.579">
  <path id="Subtraction_8" data-name="Subtraction 8" d="M30.979,17.579a13.026,13.026,0,0,1-4.851-.9l.79-3.725L27,12.99a8.94,8.94,0,0,0,4.225,1.036H31.4c1.291-.019,2.6-.541,2.611-1.664.007-.747-.564-1.281-2.262-2.114-1.654-.812-3.85-2.175-3.82-4.628C27.952,2.311,30.984,0,35.3,0a11.6,11.6,0,0,1,4.084.754l-.768,3.6a8.488,8.488,0,0,0-3.55-.8,5.662,5.662,0,0,0-.751.045c-1.347.175-1.839.876-1.852,1.422-.017.806.989,1.338,2.154,1.955,1.769.937,3.97,2.1,3.96,4.785C38.559,15.3,35.577,17.579,30.979,17.579Zm11.949-.264H38.35L44.895,1.557A1.986,1.986,0,0,1,46.752.311h3.727l3.522,17-4.036,0-.529-2.538h-5.6l-.911,2.538ZM47.391,4.9l-2.3,6.385h3.619ZM23.13,17.313H18.766l3.61-17h4.361l-3.606,17Zm-9.7,0H8.821L5.342,3.745A1.857,1.857,0,0,0,4.305,2.251,18.423,18.423,0,0,0,0,.8L.1.311H7.528A2.047,2.047,0,0,1,9.542,2.043l1.836,9.841L15.92.311H20.5l-7.069,17Z"/>
</svg>
