<svg xmlns="http://www.w3.org/2000/svg" width="29.105" height="22" viewBox="0 0 29.105 22">
  <g id="Group_676" data-name="Group 676" transform="translate(0 -59.725)">
    <g id="Group_675" data-name="Group 675" transform="translate(0 59.725)">
      <path id="Path_215" data-name="Path 215" d="M72.355,165.414a1.56,1.56,0,1,0,2.207,2.207,10.785,10.785,0,0,1,15.234,0,1.558,1.558,0,1,0,2.2-2.207A13.9,13.9,0,0,0,72.355,165.414Z" transform="translate(-67.623 -155.305)"/>
      <path id="Path_216" data-name="Path 216" d="M143.155,263.807a1.56,1.56,0,0,0,2.207,2.207,4.811,4.811,0,0,1,6.8,0,1.556,1.556,0,1,0,2.2-2.2A7.929,7.929,0,0,0,143.155,263.807Z" transform="translate(-134.212 -249.486)"/>
      <circle id="Ellipse_31" data-name="Ellipse 31" cx="2.076" cy="2.076" r="2.076" transform="translate(12.477 17.848)"/>
      <path id="Path_217" data-name="Path 217" d="M28.65,65.551a19.969,19.969,0,0,0-28.2,0,1.56,1.56,0,0,0,2.207,2.207,16.834,16.834,0,0,1,23.787,0,1.558,1.558,0,0,0,2.2-2.207Z" transform="translate(0 -59.725)"/>
    </g>
  </g>
</svg>
