<svg xmlns="http://www.w3.org/2000/svg" width="32" height="30" viewBox="0 0 32 30"><g><g><g><g><path fill="#fff" d="M25.005 28.453H6.995L3.158 13.547h25.684z"/></g></g><g><path fill="#fff" d="M1 13V9h30v4z"/></g><g><g><g><path fill="#24252a" d="M30 12H2v-2h28zm-5.782 16H7.782L4.28 14h23.44zm1.4-20L21.894.552a1.004 1.004 0 0 0-1.342-.448 1.002 1.002 0 0 0-.448 1.342L23.382 8H8.618l3.276-6.552a1 1 0 0 0-1.788-.896L6.382 8H1a1 1 0 0 0-1 1v4a1 1 0 0 0 1 1h1.22l3.81 15.242A1 1 0 0 0 7 30h18a1 1 0 0 0 .97-.758L29.78 14H31a1 1 0 0 0 1-1V9a1 1 0 0 0-1-1z"/></g></g></g></g></g></svg>