<svg xmlns="http://www.w3.org/2000/svg" width="259.871" height="103.003" viewBox="0 0 259.871 103.003">
  <path id="Path_1714" data-name="Path 1714" d="M11297.606,14842c-3.561,0-3.39-5.51,0-5.51h60.655l15.607-16.5a2.746,2.746,0,0,1,3.9-.06c.015.012,16.709,16.557,16.709,16.557h60.622l15.6-16.5a2.774,2.774,0,0,1,3.9-.06c.105.1,13.362,13.241,16.705,16.557h60.951a2.631,2.631,0,0,1,2.607,2.806,2.55,2.55,0,0,1-2.607,2.7Zm165.048-5.51h20.859l-10.765-10.668Zm-96.835,0h20.859l-10.769-10.668Zm68.858-13.778a2.74,2.74,0,0,1-2.217-1.113s-2.48-3.4-2.48-3.4a38.114,38.114,0,0,1-19.515-1.423l-1.4,2.2a2.74,2.74,0,1,1-4.6-2.977l.905-1.419a38.669,38.669,0,0,1-2.357-67.207l-.607-5.3a2.736,2.736,0,1,1,5.435-.63l.376,3.264a39.554,39.554,0,0,1,18.744-2.73c.022,0,.041,0,.063,0a38.194,38.194,0,0,1,25.105,13.442l1.646-3.762a2.729,2.729,0,0,1,3.606-1.408,2.765,2.765,0,0,1,1.4,3.632l-2.958,6.749a38.546,38.546,0,0,1,4.988,14.174h2.853a2.753,2.753,0,0,1,0,5.5h-2.462a38.609,38.609,0,0,1-25.553,36.358l1.222,1.669a2.768,2.768,0,0,1-.584,3.852,2.683,2.683,0,0,1-1.6.524Zm-18.494-10.053a32.526,32.526,0,0,0,6.72.7c1.043,0,2.078-.052,3.1-.146l-3.677-4.484Zm18.535-1.52a32.991,32.991,0,0,0,12.578-8.742l-11.771-2.276Zm-33.863-6.362a33.134,33.134,0,0,0,6.512,4.641l.655-6.291Zm24.156-1.435,4.4,5.368.831-11.343-2.917-6.038-13.6,9.778-.729,7.065,8.433-5.4a2.719,2.719,0,0,1,3.58.569Zm-23.988-4.253,7.621-1.755,1.065-9.315h-7.3A17.307,17.307,0,0,1,11401.023,14799.091Zm-5.681-.842c1.967-3.759,2.47-7.066,1.476-9.864-1.174-3.3-4.262-5.482-6.716-6.757A33.036,33.036,0,0,0,11395.343,14798.249Zm36.783-9.573,2.756,5.714,12.877,2.488-5.691-13.764Zm15.22-7.13,5.278,12.766a32.985,32.985,0,0,0,3.1-13.686Zm-34.552.954a3.279,3.279,0,0,1,2.082,1c1.192,1.434-.148,8.775-.312,10.239l10.66-7.669a42.447,42.447,0,0,1-2.03-9.015c-.506-.107-18.948-4.156-21.086-4.63a42.56,42.56,0,0,1-7.837,5.233,20.322,20.322,0,0,1,5.5,4.854c.022.03,2.034-.008,4.481-.048,1.795-.026,3.821-.057,5.472-.057A29.72,29.72,0,0,1,11412.794,14782.5Zm22.841-16.758a9.712,9.712,0,0,1-5.7,5.281,1.677,1.677,0,0,0-.961,1.039c-1.062,2.515.015,7.67,1.174,11.417l10.418-5.825-.872-12.486c-1.185-.357-2.368-.789-3.538-1.248A8.86,8.86,0,0,1,11435.635,14765.742Zm10.311,10.418,9.375-1.028a32.945,32.945,0,0,0-3.355-10.172,12.371,12.371,0,0,1-6.713,1.288Zm-55.109-2.938a36.594,36.594,0,0,0,9.89-6.978c3.65-3.672,3.725-9.3,3.285-12.947A33.149,33.149,0,0,0,11390.836,14773.222Zm18.546-13.183a18.739,18.739,0,0,1-2.85,7.729c6.176,1.363,13.093,2.887,16.907,3.71a7.867,7.867,0,0,1,4.463-5.569,4.47,4.47,0,0,0,2.674-2.265,4.072,4.072,0,0,0,.2-2.074c-.51-.239-6.958-3.286-7.878-3.293A83.085,83.085,0,0,0,11409.382,14760.039Zm25.84-2.48c4.953,2.216,10.41,4.183,13.767,2.715a32.95,32.95,0,0,0-17.712-11.919Zm-26.142-7.219a32.647,32.647,0,0,1,.514,4.045,81.774,81.774,0,0,1,13.306-1.616,13.293,13.293,0,0,1,4.895,1.359l-2.92-6.806c-.652-.041-1.312-.06-1.971-.06A32.406,32.406,0,0,0,11409.08,14750.34Zm-53.474,63.017a2.753,2.753,0,0,1,0-5.5h11.491a2.753,2.753,0,0,1,0,5.5Zm16.959-22.028a2.755,2.755,0,0,1,0-5.51h6.567a2.755,2.755,0,0,1,0,5.51Zm-13.678-2.757a2.736,2.736,0,1,1,2.738,2.757A2.751,2.751,0,0,1,11358.888,14788.571Zm-3.281-8.262a2.754,2.754,0,0,1,0-5.509h14.772a2.754,2.754,0,0,1,0,5.509Zm21.883-24.785a2.736,2.736,0,1,1,2.734,2.753A2.753,2.753,0,0,1,11377.489,14755.524Zm-21.883,2.753a2.754,2.754,0,0,1,0-5.509h13.678a2.754,2.754,0,0,1,0,5.509Zm8.753-11.015a2.754,2.754,0,0,1,0-5.509h23.526a2.754,2.754,0,0,1,0,5.509Z" transform="translate(-11295 -14738.998)" fill="#f90"/>
</svg>
