<svg xmlns="http://www.w3.org/2000/svg" width="242.647" height="56.312" viewBox="0 0 242.647 56.312">
  <g id="Group_1833" data-name="Group 1833" transform="translate(-344.713 -16)">
    <path id="Path_1668" data-name="Path 1668" d="M5.37,7.219c0,.022-.007.045-.012.066-.014.065,0,.1.029.094,0-.047,0-.1.014-.182Zm17.6-25.294a3.444,3.444,0,0,1,0-.708c.064-.3-.166-.466-.157-.733.006-.166.048-.343-.095-.488-.125-.128.024-.386-.147-.554a.816.816,0,0,1-.172-.521c0-.3-.182-.392-.29-.57a.168.168,0,0,1-.007-.085.472.472,0,0,0-.33-.557.434.434,0,0,1-.231-.294c-.019-.252-.248-.308-.272-.485a.954.954,0,0,0-.32-.549.591.591,0,0,1-.136-.47,2.792,2.792,0,0,0,0-.357c0-.051-.035-.135-.061-.14-.117-.023-.213-.018-.234-.231-.012-.12-.146-.216-.21-.335a3.507,3.507,0,0,1-.154-.366c-.072-.179-.241-.139-.349-.247-.158-.158-.228-.475-.493-.447-.152-.19-.311-.371-.453-.571a.3.3,0,0,0-.312-.142.13.13,0,0,1-.162-.115c-.058-.4-.329-.5-.56-.685-.115-.09-.269-.072-.354-.24a.34.34,0,0,0-.357-.216c-.236.025-.476,0-.715.008-.117,0-.166-.061-.165-.207s-.174-.195-.146-.374a.224.224,0,0,0-.069-.129c-.235.126-.371-.213-.587-.19-.134.015-.29.061-.382-.135-.236.028-.41-.222-.643-.219a.959.959,0,0,1-.734-.165c-.1-.086-.314.02-.4-.072-.132-.145-.261-.109-.4-.117s-.287.007-.429,0c-.2-.016-.433.1-.585-.177a1.622,1.622,0,0,0-.428.008c-.171.046-.221-.221-.371-.185-.219.052-.391-.121-.586-.169a2.2,2.2,0,0,0-.641-.008c-.111.007-.163-.083-.239-.15-.111-.1-.281.051-.386-.129-.086-.147-.225-.1-.329-.073-.169.041-.233-.181-.371-.184a.147.147,0,0,0-.121.056c-.078.134-.135.1-.208-.008a.155.155,0,0,0-.125-.049c-.643,0-1.287,0-1.931,0-.046,0-.118-.013-.134.017-.116.22-.292.164-.45.158s-.183.095-.195.268c-.007.106-.092.066-.142-.006-.072-.1-.163-.125-.242-.031s-.139.146-.245.131-.235-.052-.277.007A.447.447,0,0,1,4-30.135c-.129.255-.338.134-.513.18a.4.4,0,0,0-.272.35.321.321,0,0,1-.051.151,1.031,1.031,0,0,0-.386.863c0,.2.191.266.151.462a1.7,1.7,0,0,1,.109,1.158c-.12.093-.113.24-.111.39,0,.208,0,.417,0,.624v.536a4.017,4.017,0,0,0,.007.623c.039.238-.134.36-.146.553a2.926,2.926,0,0,0,0,.623c.039.258-.117.43-.14.643-.035.321,0,.654-.012.98a.946.946,0,0,0,.139.559c.046.076.012.242-.129.229-.087-.008-.138.043-.147.136-.013.126.012.234.146.224s.137.117.137.237.024.276-.09.289c-.152.016-.21.075-.2.262a4.055,4.055,0,0,1,0,.446.588.588,0,0,0,.111.433.3.3,0,0,0-.181.085h0a.293.293,0,0,0-.29.284.309.309,0,0,0,.29.318l.06,0a.443.443,0,0,0,.427-.265c0-.008,0-.017.006-.026a1,1,0,0,1,.009.217c0,.133-.028.208-.155.221-.271.027-.267.036-.277.328-.005.172-.022.344-.035.516-.247.194.161.3.043.5-.046.078.031.292-.016.338-.185.186-.115.426-.139.65a.708.708,0,0,1-.106.211.245.245,0,0,0,.036.3.239.239,0,0,1,.046.3.471.471,0,0,0-.117.3c.01.207,0,.416,0,.624a.4.4,0,0,0,.077.217c0,.009,0,.019.007.029a.449.449,0,0,0,.465.259.129.129,0,0,1-.028.032c-.154.118-.2.42-.443.386a.614.614,0,0,0-.228.5c.024.354,0,.713.007,1.069a.8.8,0,0,1-.12.479.4.4,0,0,0,.066.469c.06.052.066.083.006.128-.126.095-.091.252-.1.4-.016.4.1.838-.252,1.123-.038.03-.024.16-.033.245-.015.139.042.293-.07.411a.24.24,0,0,0,.006.364.69.69,0,0,1,.213.609.607.607,0,0,0,.083.492c.125.155.029.393.058.59,0,.024.039.039.047.064a.839.839,0,0,1-.014.789,1.62,1.62,0,0,0-.183.888.933.933,0,0,1,0,.267,1.766,1.766,0,0,0,.227.953c.1.224.1.225-.11.343-.041.022-.108.056-.109.087-.009.267,0,.535-.009.8,0,.112.056.154.1.216.122.167.33.307.076.563-.039.039-.031.163-.03.247,0,.175-.04.4.032.512a.5.5,0,0,1,.069.547.831.831,0,0,0-.1.487c0,.06-.021.146,0,.174.226.264.129.6.136.911.013.564.008,1.129,0,1.693a.706.706,0,0,0,.135.473c.043.056.044.2.108.3.087.132-.1.147-.1.257,0,.267,0,.535,0,.8,0,.29,0,.3.28.323.084.009.14.046.146.137a1.008,1.008,0,0,1-.026.341c-.027.088-.154.131-.033.258a4.056,4.056,0,0,1,.3.377c.085.114-.052.12-.064.188s-.028.165-.035.249-.009.193.066.228a.138.138,0,0,0,.193-.041c.061-.088.141-.207.166.021.015.135.038.217.162.213.166-.006.333,0,.5,0,.069,0,.136.01.191-.073.127-.193.238-.108.344.042.089.125.176.293.307.044.015-.029.116-.035.131-.009.13.228.316.171.527.025.009-.055.016-.109.028-.163,0-.013.029-.019,0,.142.1-.151.121-.007.072.116a.111.111,0,0,1-.048.054.1.1,0,0,1-.038.012c0,.084.005.126.025.137.159.095.324.173.486.259a.077.077,0,0,1,.015.06c-.01.026-.031.06-.049.062-.071.008-.143,0-.213.009-.042.007-.114.029-.118.058-.019.112.054.1.118.124a.572.572,0,0,1,.172.128.146.146,0,0,0,.244-.035c.05-.072.081-.072.156-.014.186.146.4.239.583.392.155.13.4-.065.494.239.119,0,.238,0,.357,0,.087,0,.133-.054.133-.153,0-.145.052-.187.164-.215.08-.019.144-.133.219-.2.06-.049.055-.074,0-.13a.245.245,0,0,1-.031-.366,1.389,1.389,0,0,0,.2-.256.33.33,0,0,0,0-.234A.764.764,0,0,0,8.132,7a.773.773,0,0,1-.182-.788c.019-.116.15-.206.131-.377s.02-.334-.106-.488c-.068-.083.114-.182.111-.345-.016-.773-.011-1.548,0-2.321a.572.572,0,0,0-.126-.386.3.3,0,0,1,.022-.23.472.472,0,0,0,.1-.307c0-.2.023-.414-.143-.549.144-.109.144-.28.142-.463-.005-.446,0-.893,0-1.339,0-.117-.031-.289.018-.341.2-.219.11-.5.121-.745.016-.356,0-.714,0-1.071,0-.115-.024-.285.025-.337.185-.194.1-.437.115-.66a6.118,6.118,0,0,0,0-.624c-.009-.182.1-.255.185-.351s.163-.056.244.032a.277.277,0,0,0,.18.1q.929.01,1.859,0c.074,0,.118-.069.113-.18,0-.049.023-.133.052-.145.146-.063.329.027.443-.19.024-.046.12-.024.189.029.262.2.335.2.7.134a.686.686,0,0,1,.214,0A.493.493,0,0,0,13-5.1a.446.446,0,0,0,.323-.208.218.218,0,0,0,.2-.1c.076-.114.169-.21.251-.318a.268.268,0,0,1,.438-.041c.038.031.071.1.109.1a4.744,4.744,0,0,0,.5,0c.117,0,.156-.2.3-.186.105.009.156-.214.3-.171s.207-.08.306-.158.265.04.371-.115c.056.009.108.012.15.014l.036,0h.033a.776.776,0,0,0,.469-.214,1.265,1.265,0,0,1,.106-.078.3.3,0,0,0,.123-.34,1.218,1.218,0,0,1,.134-.157c.012-.01.063.056.1.081.145.1.171.108.243.018.215-.267.4-.6.771-.483a.076.076,0,0,0,.063-.022,2.645,2.645,0,0,1,.766-.494c.144-.072.216-.267.345-.356a.3.3,0,0,0,.087.015.3.3,0,0,0,.079-.011,1.14,1.14,0,0,0,.7-.71.3.3,0,0,0,.008-.2l.007-.009c.2.033.275-.193.393-.322s.238-.292.355-.44c-.005-.3.261-.393.316-.639.062-.278.3-.377.383-.606a12.129,12.129,0,0,0,.479-1.27c-.085-.238.2-.322.144-.552a.988.988,0,0,1,.143-.64,1.054,1.054,0,0,0,.145-.641c-.012-.053-.014-.145.01-.168.216-.2.094-.492.131-.739s.193-.448.149-.731a2.639,2.639,0,0,1,.021-.52c.185-.142.126-.375.109-.564-.03-.335.137-.715-.129-1ZM16.4-7.037,16.45-7.1l.041.076c-.024.018-.047.033-.071.051a1.2,1.2,0,0,1-.118.086h-.008a.208.208,0,0,1,.012-.029A1.1,1.1,0,0,1,16.4-7.037ZM8.309-19.417a.706.706,0,0,1,.2,0,.132.132,0,0,1,0,.013c-.093.174-.16.172-.228.145a.113.113,0,0,1-.045-.055c.02-.039.043-.1.072-.1Zm.208,0H8.508c0-.027-.009-.062,0-.078a.548.548,0,0,1,.081-.086A1.566,1.566,0,0,1,8.517-19.421Zm.118-.109a.362.362,0,0,1-.064.106.032.032,0,0,1-.027.005c.071-.139.094-.117.091-.111ZM8.08-18.7a.115.115,0,0,1,.113.056,1.514,1.514,0,0,1,.025.336.191.191,0,0,1-.058.124.869.869,0,0,0-.351-.1.563.563,0,0,0-.056-.22A3.219,3.219,0,0,1,8.08-18.7Zm-.315-.841a.088.088,0,0,1,0,.058,1.137,1.137,0,0,1-.116.063c-.07.008-.141-.015-.12-.115s.179-.094.232,0Zm-.188-1.129a.619.619,0,0,1,.045.12c0,.015-.029.039-.045.059l-.05-.115.05-.063ZM7.1-18.293a.129.129,0,0,1,.049-.046.309.309,0,0,0,.059.1c0,.019,0,.046,0,.067v.007a.121.121,0,0,1-.106-.068.084.084,0,0,1,0-.06ZM4.81-25.074c.074-.075-.044-.089.049-.062.017.021.033.043.05.062.083.092.157.214.255.261.037.018.113-.171.225-.145.256-.292.57-.146.86-.174.035,0,.08.048.111.086.135.164.268.332.4.5a.078.078,0,0,1,.007.061c-.01.025-.031.06-.048.061-.142,0-.283.01-.424,0s-.225.009-.227.221c0,.068-.078.132-.115.2-.078.146-.138.081-.2-.019-.031-.049-.063-.032-.1.035s-.132.113-.141.009c-.014-.167-.024-.289-.19-.267s-.282-.013-.25-.271a1.777,1.777,0,0,0-.269-.257c-.053-.033-.148-.025-.135-.114.011-.072.089-.132.143-.188ZM6.933-3.079c-.016.02-.035.06-.047.056a.387.387,0,0,1-.1-.056l.05-.064.092.064Zm-.888-.143c.02-.007.035-.039.05-.061.094-.137.114.031.148.069s.154.086.076.18a1.448,1.448,0,0,0-.3.559c-.007.023-.09.033-.13.018a.168.168,0,0,1-.092-.108,1.639,1.639,0,0,1,0-.268c-.054-.271.1-.327.256-.387ZM5.724.649c0-.01,0-.021,0-.031l.017.05C5.732.662,5.73.655,5.724.649ZM5.359-9.416a.265.265,0,0,1,0,.057c-.107.128-.168.125-.23.1a.119.119,0,0,1-.045-.055c.021-.038.043-.095.072-.1a.706.706,0,0,1,.2,0Zm-.1-5.507c.011-.01.043-.012.046,0,.019.047.035.1.05.145.006.089-.013.176-.093.149S5.191-14.856,5.263-14.923ZM5.4-9.408c-.027,0-.047-.015-.036-.094,0-.038.06-.069.1-.095.017-.012.044,0,.066,0-.049.081-.089.142-.125.191Zm.228-.117c-.011.087-.069.128-.134.1-.018-.007-.044,0-.069.011.151-.154.2-.128.2-.113Zm-.437-7.1a.142.142,0,0,1-.115.059c-.039,0-.1-.021-.115-.055a1.416,1.416,0,0,1-.042-.265c.023-.06.043-.184.08-.194C5.094-17.108,5.249-16.736,5.191-16.628Zm-.084,15.6a.134.134,0,0,1,.11.171c0,.139-.064.208-.176.182-.072-.017-.12-.064-.112-.175.009-.135.066-.205.178-.179ZM5.6.406C5.425.455,5.338.3,5.252.17A.393.393,0,0,1,5.24-.063c.005-.032.072-.056.114-.066a.635.635,0,0,1,.149,0c.055.216.1.389.148.533A.243.243,0,0,0,5.6.406Zm.047-9.558L5.7-9.215l.092.063c-.016.02-.035.06-.047.056A.4.4,0,0,1,5.646-9.152Zm.143-5.894.05-.064.092.064c-.016.019-.035.059-.047.056a.429.429,0,0,1-.1-.056Zm.48,5.422-.05-.064a.429.429,0,0,1,.1-.056c.012,0,.031.036.047.056l-.092.064Zm.239-5.153c.041,0,.084,0,.125,0v.358h-.06a.335.335,0,0,0-.07,0c-.089.019-.126-.049-.141-.139-.022-.132.034-.211.146-.218Zm.023,2.919c.021-.1.179-.095.232,0a.088.088,0,0,1,0,.058,1.136,1.136,0,0,1-.116.063c-.071.009-.141-.015-.12-.115Zm.429,1.786c.021-.1.179-.095.231,0a.081.081,0,0,1,0,.058,1.191,1.191,0,0,1-.115.063C7.009-9.948,6.939-9.971,6.961-10.072ZM6.361-22.5c.016.14-.036.211-.145.222-.089.009-.127-.05-.14-.14-.021-.139.035-.211.143-.222.088-.009.12.052.141.14ZM4.124-20.463c.179-.028.373-.108.526.074.084.1.173.068.262.071a.207.207,0,0,0,.126-.047c.038-.03.018-.075-.032-.125s-.1-.131-.154-.185-.067-.087-.032-.128c.016-.019.036-.045.055-.046.118,0,.238,0,.357,0,.226-.013.457.061.663-.166.067-.074.23-.018.349-.009.077.006.116.061.118.171.005.236,0,.248-.182.365-.119.078-.211.217-.371.179-.112-.026-.141.061-.173.2-.069.3-.256.389-.459.344-.1-.019-.173.024-.23-.068-.117-.189-.233-.151-.343.017-.032.047-.1.03-.1-.038.012-.25-.091-.3-.259-.278a.163.163,0,0,1-.13-.032.233.233,0,0,1-.048-.148C4.076-20.369,4.1-20.46,4.124-20.463ZM3.31,2.16a.285.285,0,0,0,.026.033l-.1-.065c.062.01.069.016.078.032Zm-.519-.671c0-.007,0-.01,0-.018s0-.042-.007-.063h0a.311.311,0,0,0,.177-.064c.047.046.087.085.119.118a.388.388,0,0,0-.29.026ZM4.5-13.793c-.036.029-.07.077-.109.083-.165.028-.215-.169-.316-.267l.108-.087C4.353-14.094,4.394-13.885,4.5-13.793Zm-.282,3.618c.013-.089.051-.149.14-.14.108.01.165.083.143.222-.013.089-.051.159-.137.138-.111,0-.167-.081-.146-.22Zm-.2,5.6c.079.044.063.149.059.234a.327.327,0,0,0,.092.3c.044.112.074-.048.053.068-.018.1-.28.3-.34.268a.523.523,0,0,1-.108-.784C3.84-4.584,3.916-4.633,4.011-4.579ZM3.745-1.563c.063-.021.177-.066.176-.087-.027-.276.11-.271.263-.273a.256.256,0,0,0,.178-.1c.078-.1.113-.039.137.041a.653.653,0,0,1,0,.176c-.015.207-.134.419-.287.411-.2-.011-.3.068-.32.313,0,.024-.083.061-.119.05A.4.4,0,0,1,3.5-1.372a.191.191,0,0,1,.043-.148,1.255,1.255,0,0,1,.2-.043ZM3.923.194c0-.054.02-.1.055-.114.068-.023.091.038.092.111a1.258,1.258,0,0,1-.148,0ZM3.5-14.559c-.013.084-.049.149-.126.138,0-.023,0-.046,0-.069a.5.5,0,0,0-.064-.287.135.135,0,0,1,.046,0c.108.01.165.083.143.222Zm-.727.137c0,.016,0,.032,0,.048a.266.266,0,0,0-.055-.039l.005-.005a.051.051,0,0,1,.05,0ZM4.284.765c.025.015.038.076.044.118,0,.016-.029.041-.046.06-.034.04-.067.081-.1.12-.028-.008-.055-.015-.083-.025,0-.016-.008-.034-.011-.049a1.032,1.032,0,0,0-.06-.2A1.092,1.092,0,0,0,4.274.762l.01,0ZM4.69-14.744c.011-.01.032,0,.048-.005a.228.228,0,0,1,0,.295.045.045,0,0,1-.048,0A.225.225,0,0,1,4.69-14.744Zm-.541-3.783c0-.012.044,0,.067,0l.118.061a1.447,1.447,0,0,0-.117.263c-.025.105,0,.231-.037.328a.068.068,0,0,1-.037.032.491.491,0,0,1-.038-.048A.3.3,0,0,0,3.953-18c.06-.178.128-.351.2-.523Zm-.929.977c.035-.091.131-.122.18-.079a.552.552,0,0,0,.29.176.92.92,0,0,0,.238.2c0,.093-.03.173-.142.154-.094-.016-.118.083-.169.121-.038.071-.063.054-.108-.011-.093-.134-.2-.251-.293-.386a.249.249,0,0,1,0-.171Zm-.078.45a.608.608,0,0,1,.044.12c0,.015-.029.038-.044.058l-.051-.115ZM2.45-2.845a.416.416,0,0,1-.1-.055l.05-.064L2.5-2.9c-.016.019-.035.059-.047.055ZM3.08,2.1l.061.011c.19.153.178.193.16.23,0,0-.034,0-.044-.013C3.2,2.258,3.135,2.182,3.08,2.1Zm.2,1.337c-.016-.02-.047-.044-.044-.059a.617.617,0,0,1,.044-.12l.051.064Zm0-.715c-.016-.02-.047-.044-.044-.058a.623.623,0,0,1,.044-.12l.051.064ZM3.61,1.632a.849.849,0,0,0-.336-.1c-.026,0-.053-.008-.076-.013-.091-.066-.171-.125-.235-.17a.287.287,0,0,0,.068-.053.589.589,0,0,0,.091-.127A.435.435,0,0,0,2.976.619.277.277,0,0,0,2.931.594c.012-.159.051-.2.143-.2a.133.133,0,0,1,.137.148.394.394,0,0,0,.2.358.274.274,0,0,0,.066.131.646.646,0,0,1,.021.081.579.579,0,0,0,.3.451,1.309,1.309,0,0,0,.174.062c-.123,0-.246,0-.368,0Zm.819.723c-.1.018-.25-.359-.187-.463a.146.146,0,0,1,.117-.056c.039,0,.1.024.114.06a1.411,1.411,0,0,1,.038.269C4.488,2.223,4.466,2.349,4.43,2.356Zm.341-.77c-.019.019-.034.042-.051.063-.026-.043-.068-.083-.072-.129-.012-.126.011-.227.146-.226s.149-.074.055-.193A.354.354,0,0,1,4.789.954a.15.15,0,0,1,.1-.19.428.428,0,0,1,.142,0,.18.18,0,0,1,.157.054.783.783,0,0,0,0,.777c-.036.09-.115.075-.263-.046-.092-.075-.111-.008-.156.039Zm.422.9a1.068,1.068,0,0,1-.115.063c-.071.008-.141-.015-.12-.115s.179-.095.231,0a.081.081,0,0,1,0,.058ZM5.765,5.52a1.076,1.076,0,0,1-.116.063c-.071.008-.141-.015-.119-.116s.178-.094.231,0a.085.085,0,0,1,0,.058ZM5.927,1.2a.137.137,0,0,1-.1.091.746.746,0,0,1-.111,0,.242.242,0,0,1,0-.177c.029,0,.057,0,.087,0-.01-.052-.018-.1-.026-.147A.3.3,0,0,0,5.8.835c.105.268.143.263.129.367Zm.934,6.346-.05-.064.05-.115c.016.019.047.044.045.058a.61.61,0,0,1-.045.12ZM7.071.676c0,.022-.032.041-.048.063-.107.145-.249.255-.255.49,0,.082-.059.081-.1.01a.22.22,0,0,0-.244-.123c-.142.01-.284,0-.426,0S5.938,1,5.936.941C5.93.762,5.748.693,5.775.485,5.78.441,5.74.416,5.692.407,5.63-.13,5.7-.15,5.763-.08a.96.96,0,0,1,.2.429c.032.126.254-.026.25.207,0,.1.022.185.093.2A.375.375,0,0,0,6.584.737c.1-.069.163-.214.258-.3a.187.187,0,0,1,.187,0c.08.043.044.151.041.234ZM7.078-1.38c-.108-.011-.164-.083-.143-.222.014-.089.052-.149.14-.14.108.01.16.081.145.222C7.2-1.431,7.167-1.371,7.078-1.38Zm.5-3.4a.617.617,0,0,1-.044-.12c0-.015.029-.039.044-.058a.619.619,0,0,1,.045.12c0,.015-.029.039-.045.058Zm-.139-6.97c-.049-.058-.1-.111-.144-.173a.34.34,0,0,1-.049-.115c.087-.08.121-.255.259-.241a.408.408,0,0,1,.12.055l-.187.474Zm.471-4.36c-.017.1-.116.261-.261.257-.095,0-.191,0-.286,0-.142-.009-.128.113-.148.23s-.16.175-.217.117a1.606,1.606,0,0,1-.152-.188c-.074-.1-.078-.157-.008-.3.034-.072.117-.109.1-.219a.482.482,0,0,1,.154-.456c.073-.076.139-.242.2-.238.222.015.2-.146.223-.332a1.8,1.8,0,0,1,.145-.453.5.5,0,0,1,.275.065.555.555,0,0,1-.089.387.408.408,0,0,0,0,.474.834.834,0,0,1,.06.66Zm5.1,10.272.006-.013.006.007-.012.006Zm2.466-10.06a4.867,4.867,0,0,1-.336.637,3.236,3.236,0,0,1-.264.481c-.106.112-.072.32-.2.435s-.225.316-.361.427,0,.394-.215.383c-.188-.009-.131.186-.176.3a1.466,1.466,0,0,1-.753.923c-.137.075-.214.106-.255.312-.025.127-.149.315-.33.257-.152.189-.3.379-.456.567a2.243,2.243,0,0,1-.606.327c-.043.011-.108.018-.121.053-.056.139-.024.378-.247.3-.072.177-.241.145-.344.252-.054.056-.1.12-.18.106a1.108,1.108,0,0,0-.729.171c-.077.043-.174,0-.257.092s-.228.1-.284.2c-.21.373-.511.217-.779.244-.022,0-.065-.081-.072-.131-.012-.087-.034-.214,0-.261a1.341,1.341,0,0,0,.13-.913c0-.124-.213-.236-.126-.362a.9.9,0,0,0,.138-.56.4.4,0,0,0-.1-.306c-.087-.09-.054-.228-.038-.332.03-.187.175-.321.143-.553a4.254,4.254,0,0,1,0-.623c0-.116-.028-.281.021-.34.155-.186.142-.307.008-.514-.07-.11-.024-.338-.03-.513.224-.259.135-.6.139-.907.011-.713.012-1.427,0-2.14,0-.248.1-.542-.134-.731.285-.254.006-.7.2-.957.148-.2-.042-.226-.063-.332-.034-.168.166-.253.11-.351a.383.383,0,0,1-.03-.446,1.549,1.549,0,0,0-.029-1.072.545.545,0,0,1,0-.484c.024-.045.081-.118.078-.121-.265-.325-.079-.733-.128-1.1a.52.52,0,0,0-.066-.236c-.065-.1-.248-.178-.177-.3s.058-.285.142-.375.1-.166,0-.26a.248.248,0,0,1-.043-.152,7.516,7.516,0,0,1,.007-.979c.033-.265-.119-.425-.148-.641-.026-.2.041-.454-.034-.6a.86.86,0,0,1-.111-.481c0-.048.048-.133.07-.132a.733.733,0,0,0,.45-.165c.151-.1.37-.029.559-.032.129-.259.337-.152.516-.164s.381,0,.571,0c.1,0,.191-.008.286,0,.27.028.566-.114.8.177.167,0,.334-.008.5,0,.074,0,.115.068.113.179,0,.163-.058.38.185.358.034,0,.075.059.108.1.12.142.238.288.357.433.239-.035.3.254.44.39a4.387,4.387,0,0,1,.357.437c.118.147.233.3.355.44.1.119.2.3.318.324.166.041.168.152.178.3.2.044.033.527.344.441.016,0,.074.087.07.129a.733.733,0,0,0,.177.538,5.289,5.289,0,0,1,.4.949,2.091,2.091,0,0,0,.36.708.234.234,0,0,1-.016.362c-.054.054-.066.086-.015.128a.336.336,0,0,1,.1.3.315.315,0,0,0,.044.245c.124.159.087.174.1.6.012.306-.129.655.114.922a.9.9,0,0,1-.063.121.451.451,0,0,0,.032.546c.105.124.027.281.052.419-.2.16-.1.426-.153.635a1.753,1.753,0,0,0-.148.636c-.236.135-.045.493-.242.688-.121.119-.127.4-.217.59Zm2.365.406a.155.155,0,0,1,.109.087c0,.006,0,.009,0,.013a.276.276,0,0,0-.013.064.467.467,0,0,1-.056.019c-.046.015-.076.075-.115.12-.186.009-.227-.009-.225-.022A.391.391,0,0,1,17.84-15.488Zm-.126.346a.1.1,0,0,1-.058.007Zm-.2,1.889c.007.089-.185.128-.231.038a.326.326,0,0,1-.024-.233c.085-.14.2-.255.3-.385.041-.055.063-.048.1.021a1.919,1.919,0,0,0,.15.191c-.014.021-.026.056-.043.061C17.631-13.519,17.489-13.517,17.51-13.254Zm.247,2.909c-.01.01-.084-.039-.086-.065,0-.079-.038-.188.045-.227a.363.363,0,0,1,.186,0c.018,0,.033.037.054.064C17.891-10.5,17.828-10.415,17.756-10.345Zm.553-1.219-.05-.115.051-.064a.651.651,0,0,1,.045.12C18.357-11.607,18.326-11.583,18.31-11.563Zm.455-6.821a.045.045,0,0,1-.047,0,.225.225,0,0,1,0-.294c.011-.01.032,0,.048,0a.229.229,0,0,1,0,.295Zm.872,9.145a.142.142,0,0,1,.1.01.717.717,0,0,1-.183.271.31.31,0,0,1-.026-.106c-.007-.112.041-.159.112-.176ZM34.92-.266a.276.276,0,0,0-.1-.216.221.221,0,0,1-.038-.236c.166-.149.134-.358.135-.561,0-.238,0-.476,0-.714a.706.706,0,0,0-.056-.239,1.1,1.1,0,0,1-.007-.894,1,1,0,0,0,.061-.415q0-2.991,0-5.982c0-.114.018-.28-.033-.333-.137-.143-.107-.315-.108-.485,0-.357,0-.714,0-1.072,0-.2.042-.42-.136-.554.009-.14-.052-.291.038-.42a.484.484,0,0,0,0-.614.311.311,0,0,1-.027-.231c.215-.242.117-.553.118-.831,0-.152-.171-.258-.138-.463a1.452,1.452,0,0,0,0-.444c-.034-.207.119-.3.145-.463.013-.086.033-.218,0-.261a1.064,1.064,0,0,1-.137-.736c0-.476,0-.952,0-1.428,0-.141.069-.336-.045-.415-.208-.142.115-.253-.008-.394-.077-.087-.092-.253-.161-.357-.058-.089-.035-.121.007-.2.063-.112.089-.259.159-.361.093-.137.029-.283.052-.422-.2-.16-.139-.412-.143-.64s0-.476,0-.714v-.625c0-.238,0-.475,0-.713-.287-.191.11-.368.009-.572-.043-.088.016-.281-.033-.332-.163-.166-.11-.374-.115-.572-.007-.267,0-.535,0-.8-.207-.23-.133-.536-.142-.819-.005-.178,0-.357,0-.536a1.277,1.277,0,0,0-.01-.439.774.774,0,0,1-.134-.469.159.159,0,0,0,0-.087,3.836,3.836,0,0,1-.242-.324.319.319,0,0,1-.03-.1h.06a.3.3,0,0,0,.3-.3.3.3,0,0,0-.3-.3h-.168c-.027-.067-.015-.143.087-.239.071-.067-.012-.259-.1-.264-.024,0-.047,0-.071,0-.323-.007-.666.09-.9-.34-.03-.056-.183-.033-.273-.011-.072.018-.061.137-.09.207a1.054,1.054,0,0,0-.142.555c.01.094-.165.177-.218.112-.119-.145-.238-.291-.346-.448a.127.127,0,0,1-.014-.061l.366-.2a.3.3,0,0,0,.123-.406.3.3,0,0,0-.407-.123l-.275.147a.35.35,0,0,1-.171-.15c-.111.025-.246-.07-.33.078-.124.216-.392-.031-.492.25-.006.018-.039.028-.06.029-.1,0-.191,0-.286,0s-.179.026-.178.19-.135.228-.209.336c-.047.069-.211-.021-.216-.12a.971.971,0,0,0-.114-.483,1.958,1.958,0,0,1-.068-.586c-.009-.063-.058-.044-.1.024a.229.229,0,0,1-.095.076c-.139-.212-.27-.2-.4.011-.091.15-.2.241-.364.2a.389.389,0,0,0-.143,0,.483.483,0,0,0-.293.325,2.913,2.913,0,0,0,.007.623c.051.247-.173.325-.158.554.026.384.011.773,0,1.16a.266.266,0,0,0,.1.218c.06.054.063.081,0,.131a.674.674,0,0,0-.1.125c-.185.25-.186.264-.018.494.048.066.151.148.142.185a.665.665,0,0,1-.16.255.408.408,0,0,0-.1.307q.006,2.187,0,4.374c0,.176.088.178.185.18h.072c.024,0,.053-.011.07,0a.762.762,0,0,1,.1.1,1.7,1.7,0,0,0-.15.191c-.042.073-.063.077-.1.011-.061-.1-.16-.189-.162.027-.01,1.1.005,2.2-.011,3.3a.881.881,0,0,0,.24.685.24.24,0,0,1,.049.149.425.425,0,0,1-.049.151c0,.006-.033,0-.049-.009-.183-.092-.185-.092-.185.067,0,.387-.015.775,0,1.16.019.366-.1.758.132,1.095.042.06,0,.227-.022.335-.018.077-.106.137-.108.208-.013.327-.012.655,0,.982,0,.088.08.109.156.126.1.022.171.182.123.242a.515.515,0,0,0-.039.682.393.393,0,0,1,.032.06c-.225.2-.1.489-.133.731v.274a.914.914,0,0,0,0,.178.681.681,0,0,0,.065.145.714.714,0,0,0,.074-.131c.09-.281.143-.3.322-.09.087.1.1.115.011.248a.213.213,0,0,0-.028.062.3.3,0,0,0-.232-.117.3.3,0,0,0-.3.3v.268a.3.3,0,0,0,.086.21.351.351,0,0,0,.078.152c.062.067.1.183.06.23-.214.272-.122.605-.136.914-.012.267,0,.535,0,.8v3.214a4.39,4.39,0,0,1-.01.8c-.058.3.158.468.156.733-.007,1.1,0,2.2,0,3.3,0,.11-.053.247.049.33.173.141-.044.212-.029.316.007.047.075.078.094.128.089.228-.078.541.154.724a.688.688,0,0,1-.07.125c-.107.123-.035.279-.057.417.292.213-.006.711.286.923a3.608,3.608,0,0,1-.007.623c-.044.242.154.347.151.553a3.36,3.36,0,0,1-.009.622c-.058.272.157.42.146.642a.785.785,0,0,0,.234.685c.058.051.063.079.015.129-.069.074-.164.218.014.2.247-.027.406.31.658.2.011,0,.044.069.067.107-.04.022-.081.064-.121.063-.138,0-.156.107-.144.23a.132.132,0,0,0,.149.134,2.971,2.971,0,0,0,.5-.01c.169-.038.219.193.371.2.106,0,.123-.277.272-.1.077.092.207.112.288.2.145.154.4-.048.491.248.176-.045.367.09.536-.115a.226.226,0,0,1,.377.016c.2.3.514.346.744.567a.241.241,0,0,0,.193.069.478.478,0,0,1,.451.166c.092.114.193-.134.29-.152.143-.027.22-.064.2-.258,0-.059-.021-.147,0-.174.185-.208.134-.478.14-.734.223-.19.13-.477.142-.73.009-.208,0-.417,0-.625V6.15a3.871,3.871,0,0,0-.007-.623c-.044-.262.108-.428.144-.643a4.217,4.217,0,0,0,.007-.534c.009-.282-.065-.589.142-.819-.015-.139.039-.29-.069-.412a.448.448,0,0,1-.039-.477c.042-.1.117-.166.111-.3-.01-.237.018-.479-.009-.713-.029-.253.116-.434.137-.643.038-.411.005-.832.013-1.248Zm-6.844-19.54c-.022-.1.049-.123.119-.115a1.137,1.137,0,0,1,.116.063.081.081,0,0,1,0,.058c-.053.089-.211.092-.231,0Zm.473,11.669a.757.757,0,0,1-.139,0,.34.34,0,0,1-.139,0c-.027-.013-.044-.071-.055-.114,0-.013.029-.056.047-.058a1.337,1.337,0,0,1,.279,0c.022,0,.043.07.053.113,0,.013-.028.054-.047.058Zm4.273-8.387c.025-.006.061.054.1.089-.176.134-.232.4-.446.446-.163.032-.262-.064-.364-.2s0-.148.049-.157c.1-.019.193-.01.182-.184s.09-.195.183-.173.156.216.3.178Zm-.791-1.3.015-.009.136.227c-.035.224-.155.361-.346.366-.046,0-.093,0-.14,0-.093,0-.186,0-.279,0-.046,0-.1-.154-.078-.214.078-.176.162-.331.357-.326A.5.5,0,0,0,32.031-17.827Zm-.325,9.682c-.144.218-.191.244-.383.066-.087-.081-.251.023-.268-.186a.823.823,0,0,1,0-.259.391.391,0,0,1,.055-.117.445.445,0,0,0,.381.185l.06,0v-.033l.016.019v.012l.007,0,.106.132a.519.519,0,0,1,.04.066c.03.083.012.073-.018.118Zm-.16-7.135c-.138.049-.22-.036-.2-.221a.405.405,0,0,1,.069-.135.359.359,0,0,1,.047.061c.042.085.15.111.142.238C31.58-15.314,31.565-15.287,31.546-15.28Zm-.321-4.161c-.033-.039-.063-.084-.1-.12-.061-.061-.078-.129,0-.179a.144.144,0,0,1,.134,0,.2.2,0,0,1,.077.213l-.064.134A.6.6,0,0,1,31.224-19.441Zm-.019-2.444a.38.38,0,0,0,.37-.176c.022-.026.1-.012.131.015s.043.093.062.142c.038.194-.219.233-.152.461.016.054-.1.095-.169.094s-.151-.01-.2.033a3.4,3.4,0,0,0-.258.3.214.214,0,0,1-.032-.029.616.616,0,0,0-.007-.665C31.04-21.76,31.1-21.908,31.206-21.885Zm-.569,8.929c-.067.166-.114.279-.149.357l-.007,0a.211.211,0,0,0-.03-.018c.01,0,.029-.006.029-.064,0-.24.012-.266.156-.273Zm-.159.36s0,.01,0,.015c-.056.123-.075.145-.082.139-.086-.063-.027-.114.019-.155a.051.051,0,0,1,.06,0Zm.27-.292a.089.089,0,0,1-.011.055c-.062.08-.124.158-.191.231a.038.038,0,0,1-.03.01c.162-.335.2-.32.232-.3ZM29.525-25.963a1.138,1.138,0,0,1,.1-.12.54.54,0,0,1,.1-.059c.015.049.03.1.046.148-.007.14-.051.19-.174.174-.038,0-.073-.054-.109-.083C29.5-25.922,29.51-25.943,29.525-25.963Zm-.717,8.754a.313.313,0,0,1,.1.054c.128.147.163.237.146.351-.031.024-.08.075-.089.066a.849.849,0,0,1-.19-.242c-.022-.053.022-.151.038-.23ZM29.121,5.44l-.05-.064.05-.115c.016.02.048.044.045.058a.611.611,0,0,1-.045.12Zm.34-15.256c0,.03-.073.064-.114.071a1.329,1.329,0,0,1-.214,0,1.657,1.657,0,0,1-.286-.005c-.032-.005-.07-.074-.08-.122a.417.417,0,0,1,.019-.166c.005-.025.038-.065.047-.06.168.077.222-.183.371-.188s.207-.222.323-.315c.015-.012.081.03.091.063C29.712-10.251,29.487-10.067,29.461-9.816Zm.185-6.534c-.047,0-.094,0-.213,0a.855.855,0,0,1-.2-.045.184.184,0,0,1-.038-.148.8.8,0,0,1,.431-.513c.13-.04.125-.125.14-.242a.13.13,0,0,1,.152-.126c.084.009.107.065.134.157.075.256.084.255.276.121.144-.1.145-.1.149.083,0,.06-.005.12,0,.177.013.113-.04.168-.114.175-.118.012-.238,0-.355.008-.037,0-.1.067-.1.094.029.284-.121.264-.267.259Zm.313,24.443-.051-.064a.443.443,0,0,1,.1-.056c.012,0,.032.036.047.056l-.092.064Zm.614-19.8a2.091,2.091,0,0,0-.214,0c-.145.015-.2-.139-.274-.239a.346.346,0,0,1-.009-.233c.032-.108.134-.087.187-.059.373.2.374.208.68.036a.339.339,0,0,1,.186-.04.292.292,0,0,0,.014.049.609.609,0,0,0,.1.139c-.106.157-.2.337-.391.346-.095.005-.19,0-.285,0ZM31.619,2.3a.927.927,0,0,0-.152.373c-.013.128-.157.077-.258.087s-.161-.052-.157-.2c0-.1-.053-.129-.128-.162-.146-.063-.191-.182-.135-.288.047-.09.141-.112.24.005.139.165.24.14.35-.026a.084.084,0,0,1,.057-.041.26.26,0,0,1,.135.022A.191.191,0,0,1,31.619,2.3ZM31.744.555a1.068,1.068,0,0,1-.115.063C31.558.625,31.488.6,31.509.5s.179-.095.232,0A.084.084,0,0,1,31.744.555Zm.084-12.793a.543.543,0,0,0-.091-.171.315.315,0,0,1,.292.049.082.082,0,0,1,0,.058c-.06.03-.122.054-.154.068a.242.242,0,0,0-.046,0Zm.586,1.954c-.069.066-.1.21-.213.184-.086-.019-.127.057-.165.12s-.072.081-.1,0a.292.292,0,0,1-.022-.157.4.4,0,0,1,.42-.318l.12.053C32.442-10.362,32.438-10.307,32.414-10.284Zm.494-2.766a.147.147,0,0,1-.1.089,2.069,2.069,0,0,1-.281,0,1.426,1.426,0,0,1-.21,0,.131.131,0,0,1-.114-.169c.007-.052.017-.131.045-.147a2.359,2.359,0,0,1,.422-.211c.083-.029.2-.04.242.089a.94.94,0,0,1,0,.347Zm.555-1.039a.137.137,0,0,1-.236,0,.079.079,0,0,1,0-.059.136.136,0,0,1,.236,0A.171.171,0,0,1,33.463-14.089Zm.572-4.287a.137.137,0,0,1-.236,0,.087.087,0,0,1,0-.06.136.136,0,0,1,.236,0A.171.171,0,0,1,34.035-18.376ZM62.56,4.727c.174-.159.086-.38.109-.573.012-.1-.03-.2-.1-.193-.178.028-.245-.245-.444-.2a3.174,3.174,0,0,1-.713.013,2.575,2.575,0,0,0-.642.011c-.256.066-.423-.227-.657-.189a.92.92,0,0,1-.758-.3.206.206,0,0,0-.2-.053c-.238.047-.237.052-.3-.024-.05-.057-.1-.134-.163-.151a.585.585,0,0,0-.284,0c-.143.033-.182-.165-.3-.184-.223-.037-.477.12-.66-.168-.237,0-.474-.009-.712-.009-.164,0-.335.038-.441-.18-.111.031-.25-.079-.333.067s-.262.083-.357.241c-.038.063-.173.047-.264.046s-.131-.059-.117-.169-.035-.173-.109-.181a3.056,3.056,0,0,0-.358,0,7.972,7.972,0,0,1-1.143-.014c-.275-.039-.463.254-.729.2-.11-.023-.265-.03-.335.047-.139.155-.371.115-.458.366-.018.05-.067.164-.149.044s-.171-.208-.251-.318c-.155-.215-.315-.189-.49-.04a.368.368,0,0,1-.187.094.957.957,0,0,0,0-.145.3.3,0,0,0-.332-.262.3.3,0,0,0-.265.332.322.322,0,0,1,0,.059.6.6,0,0,0,.094.4,1.012,1.012,0,0,1-.013.2c-.015.09-.077.124-.136.024-.087-.148-.216-.072-.326-.094a.19.19,0,0,1-.1-.273c.033-.074.135-.145.127-.2a.677.677,0,0,1,.224-.606c.14-.161.276-.329.4-.505s.126-.428.3-.559c.122-.09.061-.338.2-.426-.023-.038-.044-.1-.071-.106-.094-.013-.191.006-.2-.168-.006-.157.088-.148.168-.2.286-.2.632-.331.725-.823.024-.123.221-.2.231-.32a.716.716,0,0,1,.216-.428.439.439,0,0,0,.029-.545c-.083-.132-.083-.189.057-.2.115-.005.231.027.32-.12.07-.118.233-.211.235-.318,0-.2.159-.278.168-.457.012-.228.264-.284.272-.477s.2-.264.155-.461a2.794,2.794,0,0,0,.213-.456h.145a.3.3,0,0,0,.3-.3.3.3,0,0,0-.29-.3.144.144,0,0,1,.029-.024c.121-.072.163-.282.329-.307.231-.034.088-.278.137-.416a.452.452,0,0,1,.135-.2c.23-.181.274-.521.433-.761-.018-.257.221-.307.264-.487.051-.217.173-.388.213-.606a.121.121,0,0,1,.049-.063.626.626,0,0,0,.189-.617c-.016-.193.065-.216.2-.264a.375.375,0,0,0,.23-.392,5.007,5.007,0,0,0,.377-.878,2.769,2.769,0,0,1,.462-.921c-.042-.225.2-.318.163-.54a.408.408,0,0,1,.14-.374.422.422,0,0,0,.152-.368,5.894,5.894,0,0,0,.419-.945c.138-.279.222-.6.341-.893.13-.32.25-.647.386-.96a3.416,3.416,0,0,0,.32-1c.137-.123.089-.39.246-.5-.058-.2.186-.277.139-.46-.061-.24.148-.343.155-.552,0-.1.145-.218.125-.278-.091-.281.186-.4.153-.646.236-.139.053-.5.241-.682.107-.1-.014-.325.06-.405.118-.126.1-.323.2-.44.148-.174.029-.4.081-.584.044-.154.183-.267.137-.463-.053-.227.117-.365.137-.552a1.447,1.447,0,0,1,.134-.472,2.1,2.1,0,0,0,.019-.614c.012-.194.172-.315.149-.552a1.066,1.066,0,0,1,.129-.823c.037-.046,0-.166-.061-.228a.222.222,0,0,1-.047-.3.556.556,0,0,0,.115-.391,7.293,7.293,0,0,1,.009-1.069c.039-.3-.209-.446-.161-.733.033-.2-.15-.278-.24-.4a2.394,2.394,0,0,0-.411-.489c-.064-.052-.164-.057-.238-.142-.119-.136-.342.061-.435-.193-.3.011-.539-.278-.86-.228a10.489,10.489,0,0,1-1.072.019c-.156.008-.2-.225-.371-.192a2.078,2.078,0,0,1-.5,0c-.091,0-.222.012-.263-.052-.185-.293-.541.067-.691-.3a1.7,1.7,0,0,0-.428.007c-.171.045-.221-.224-.371-.184-.245.065-.434-.127-.648-.207-.112-.284-.43-.023-.539-.315-.118-.005-.235-.013-.353-.015-.166,0-.333,0-.5,0h-.429a2.215,2.215,0,0,0-.5.008c-.187.044-.292-.174-.442-.18-.5-.018-1-.007-1.5-.007-.251.351-.58.148-.871.17-.427.034-.857.009-1.287.009-.167,0-.333,0-.5,0-.183,0-.38-.052-.513.177-.167,0-.334-.011-.5,0-.135.012-.29-.08-.4.075-.139.191-.312.068-.468.1-.07.013-.143-.007-.214,0-.338.05-.7-.135-1.013.177l-.561.035c-.139.25-.346.114-.524.143-.114.019-.265-.02-.335.057-.123.139-.319.1-.406.3-.078.185-.222.188-.369.181a.158.158,0,0,0-.115.075c-.167.264-.487-.083-.635.249,0,.007-.039,0-.047-.008-.1-.14-.177-.2-.188.065,0,.1-.047.154-.135.152a2.456,2.456,0,0,0-.571.007c-.221.047-.317.33-.481.488-.032.031-.091.016-.128.042a1.37,1.37,0,0,0-.4.831,3.165,3.165,0,0,0,.008.622c.036.185.177.33.139.555-.007.036.043.094.075.131.013.015.046.007.069,0,.089-.019.113.094.173.129.159.095.376-.006.5.227.007.014.046,0,.069,0s.048,0,.072,0c.139.009.149-.006.185-.268.01-.072-.029-.087-.037-.09a.181.181,0,0,0,.037,0h0a.439.439,0,0,0,.053,0c.006,0,.013,0,.016,0,.12.144.236.294.357.439.032.038.072.087.111.09a1.8,1.8,0,0,0,.428,0c.159-.026.207.229.372.189.114-.028.239.013.356-.01.143-.028.175.219.3.179.207-.069.319.213.514.186s.352.285.58.188c.078.132.128.139.26.031.2-.165.462-.215.631-.457a.255.255,0,0,1,.247-.125c.19.01.381,0,.572,0,.128-.253.334-.151.513-.182.06-.011.111-.123.169-.127.208-.017.378-.177.572-.217.313-.064.643.082.948-.173.1-.083.284-.041.422-.006.181.045.287-.147.432-.176,0,0,0,0,0,0a.376.376,0,0,0,.251.19.97.97,0,0,0,.165.015.837.837,0,0,0,.711-.41.057.057,0,0,0,0-.009.243.243,0,0,1,.109.009,2.13,2.13,0,0,0,.641.013c.071,0,.176.036.208-.008.237-.329.539-.108.805-.169.291-.067.614.122.883-.125,1.068-.056,1.172-.056,1.274-.055s.1.086.126.26c.032.216-.171.281-.15.464a1.275,1.275,0,0,1-.146.728,6.067,6.067,0,0,0-.248.587c-.07.191-.081.422-.174.624a.883.883,0,0,0-.148.637c-.139.091-.126.292-.2.433a2.294,2.294,0,0,0-.224.508c-.037.161.019.356-.132.468-.162.544-.409,1.038-.594,1.568-.08.227-.19.437-.282.657-.082.195-.159.394-.235.592-.086.223-.168.449-.253.672a6.468,6.468,0,0,1-.263.665c-.1.19-.148.4-.249.59a6.1,6.1,0,0,1-.289.653c.03.287-.221.351-.289.565a5.945,5.945,0,0,1-.227.6,4.3,4.3,0,0,1-.606,1.294c.024.242-.236.364-.168.628a.245.245,0,0,1-.084.224c-.068.083-.2.183-.189.25.031.214-.156.278-.161.464s-.216.248-.246.4c-.034.176-.165.287-.17.447-.005.188-.209.256-.15.461-.235.378-.306.9-.651,1.181l-.208.607a.363.363,0,0,1-.094.31,2.152,2.152,0,0,0-.4.51,1.782,1.782,0,0,0-.229.6.191.191,0,0,1-.086.13c-.2.1-.156.413-.3.561,0,.3-.236.406-.326.634s-.106.509-.284.653c-.228.184-.055.578-.282.758-.031.024,0,.16-.067.228a.976.976,0,0,0-.264.489c-.032.157-.21.211-.251.4a1.829,1.829,0,0,1-.2.519,4.164,4.164,0,0,1-.348.448c-.013.017-.01.055-.021.078-.1.215-.12.486-.284.656s-.183.445-.341.637a5.6,5.6,0,0,0-.278.645A3.472,3.472,0,0,0,42.543.6a4.828,4.828,0,0,1-.3.561c-.1.207-.174.443-.264.664-.071.174-.1.382-.25.5-.038.029-.091.087-.089.128.013.258-.077.546.061.767.093.148.017.187-.042.258s-.086.141-.174.122c-.222-.046-.365.094-.417.344-.039.19-.219.315-.149.55.075.253-.176.393-.146.64.021.174.008.354.014.53,0,.052.227.247.271.258.09.022.123-.07.174-.124a.437.437,0,0,0,.124-.3.149.149,0,0,1,.222-.1c.072.056.08.171.012.3-.025.049-.087.081-.093.129-.011.08-.035.186.048.237a.174.174,0,0,0,.133.022c.041-.013.072-.068.111-.1.165-.12.241-.117.267.046a.88.88,0,0,0,.125.3,1.34,1.34,0,0,0,.477.474.952.952,0,0,0,.268-.01.509.509,0,0,0,.385.38l.043.009a.816.816,0,0,0,.183.024.477.477,0,0,0,.362-.162c.145.187.367.024.491.131a.651.651,0,0,0,.522.159c.151-.011.2.232.371.19a3.249,3.249,0,0,1,.5-.012c.091-.007.128.067.173.129s.064.057.1-.016c.06-.109.179-.171.236-.083.1.151.259.114.354.244.129.18.387-.018.488.253a3.26,3.26,0,0,0,.353.009.18.18,0,0,1,.175.118.451.451,0,0,0,.493.247c.405-.015.811-.005,1.216,0,.086,0,.137-.055.131-.154-.009-.145.08-.2.141-.286.1-.139.192-.158.289,0a.555.555,0,0,0,.561.265c.178,0,.321,0,.325-.3,0-.084.057-.08.1,0,.1.19.252.1.386.109.1-.21.346-.161.448-.378.068-.145.19-.129.306-.157.234-.057.341.144.476.3.077.089.175.1.241,0,.146-.214.31-.343.549-.3.135.027.259,0,.389.137a.366.366,0,0,0,.465,0,.6.6,0,0,1,.314-.14c.387-.039.8.152,1.157-.174a2.322,2.322,0,0,1,.57.01c.213.055.324-.183.515-.2.291-.025.618.18.871-.168.214,0,.429,0,.643,0,.089,0,.2.053.262-.07.118-.225.391.029.491-.251,0-.008.041-.011.047,0,.141.225.244.129.406,0,.118-.1.328.007.486-.038s.309-.213.516-.181.43.1.583-.168c.12,0,.239.009.358,0,.135-.012.207-.248.37-.176.232.1.38-.153.57-.225a.372.372,0,0,0,.2-.423.258.258,0,0,1,.013-.166c.107-.112.137-.2.01-.328A.286.286,0,0,1,62.56,4.727Zm-5.282-22.24c-.012,0-.031-.036-.047-.056a.4.4,0,0,1,.1-.056c.012,0,.031.036.047.056A.387.387,0,0,1,57.278-17.513Zm-.007-4.6c.069,0,.118.073.1.179a.7.7,0,0,0,0,.087c0,.251-.166.355-.38.235-.067-.038-.06-.072,0-.126a.217.217,0,0,0,.1-.21c0-.027-.007-.077,0-.083A.369.369,0,0,1,57.271-22.117Zm-.7-3.375c.033-.027.086-.018.168-.032s.175.041.258.156c.1.14.131.3.043.358a.157.157,0,0,1-.237-.058c-.061-.086-.134-.158-.192-.247C56.579-25.362,56.465-25.4,56.571-25.492ZM55.4-23.847a.112.112,0,0,1,.18-.056c.094.073.153.21.293.182a.414.414,0,0,1,.067.21c0,.087-.048.156-.136.137a.33.33,0,0,0-.069,0c-.171.05-.248-.12-.333-.244A.341.341,0,0,1,55.4-23.847Zm-1.311,9.761a1.275,1.275,0,0,1,.116.063.081.081,0,0,1,0,.058c-.053.089-.211.092-.231-.005S54.016-14.094,54.086-14.086ZM40.505-24.906c.047-.1.085-.044.117.012C40.506-24.9,40.5-24.9,40.505-24.906Zm11.8-.6a.145.145,0,0,0,.014-.013C52.391-25.517,52.461-25.517,52.306-25.5Zm.7,6.6.051.115-.05.064a.58.58,0,0,1-.045-.12C52.962-18.865,52.993-18.889,53.009-18.909ZM51.8-6.226a.216.216,0,0,1,.069,0c.169-.044.234.139.33.248,0,0-.036.1-.06.1-.161.022-.324.033-.422-.179a1.082,1.082,0,0,1-.039-.121,1.228,1.228,0,0,1,.121-.051Zm-.553,3.271a.138.138,0,0,1,.237,0,.169.169,0,0,1,0,.06.136.136,0,0,1-.235,0,.082.082,0,0,1,0-.059Zm-.474-3.557c-.011.087-.069.128-.134.1a.132.132,0,0,0-.068.011C50.722-6.552,50.776-6.527,50.774-6.512Zm-.264.023c0-.037.06-.069.1-.094.017-.012.044,0,.066,0-.055.081-.1.142-.129.19C50.516-6.4,50.5-6.414,50.51-6.489Zm-.067.084a.052.052,0,0,1,.06,0c.009.01.005.035,0,.058-.058.081-.077.1-.084.1C50.337-6.312,50.4-6.363,50.443-6.4Zm-3.014.534a.623.623,0,0,1-.044-.12c0-.015.029-.038.044-.058a.619.619,0,0,1,.045.12C47.476-5.914,47.444-5.89,47.429-5.87Zm1.66.377.016-.018c.044.007.086.036.115.111-.043.015-.086.035-.131.048Zm-.82-.518c.043-.047.128-.034.171-.043.068.014.136.005.151.036a.638.638,0,0,1,.046.122.668.668,0,0,0-.3.071l-.064.025a.3.3,0,0,0-.041.022l-.007-.009a.291.291,0,0,1,.047-.226Zm-.292.354a.387.387,0,0,1,.1.056l-.05.064L47.93-5.6c.016-.02.035-.06.047-.056ZM48.215.6c-.016.089-.052.152-.14.14a1.507,1.507,0,0,0-.21,0,.886.886,0,0,1-.139,0c-.019,0-.052-.036-.05-.049a.4.4,0,0,1,.037-.123.308.308,0,0,1,.358-.184A.168.168,0,0,1,48.215.6Zm0-5.575c-.089.009-.126-.05-.14-.14a.179.179,0,0,1,.066-.2.3.3,0,0,0,.214.1c0,.006,0,.01,0,.016.016.14-.036.211-.145.222ZM49.288.737c-.041.067-.089.127-.134.19A.482.482,0,0,1,49.1.853c-.047-.1-.024-.264.053-.286.056-.016.123.031.186.05A.706.706,0,0,1,49.288.737ZM49.7-4.649c-.016-.049-.054-.105-.046-.146.046-.21.179-.355.317-.361.036.03.088.05.1.092s.022.148,0,.164c-.12.094-.251.169-.377.251ZM88.316,4.727c.174-.159.086-.38.109-.573.012-.1-.03-.2-.1-.193-.178.028-.245-.245-.444-.2a3.174,3.174,0,0,1-.713.013,2.575,2.575,0,0,0-.642.011c-.256.066-.423-.227-.657-.189a.92.92,0,0,1-.757-.3.206.206,0,0,0-.2-.053c-.238.047-.237.052-.3-.024-.05-.057-.1-.134-.163-.151a.585.585,0,0,0-.284,0c-.143.033-.182-.165-.3-.184-.223-.037-.477.12-.66-.168-.237,0-.474-.009-.712-.009-.164,0-.335.038-.441-.18-.111.031-.25-.079-.333.067s-.262.083-.357.241c-.038.063-.173.047-.264.046s-.131-.059-.117-.169-.035-.173-.109-.181a3.056,3.056,0,0,0-.358,0,7.972,7.972,0,0,1-1.143-.014c-.275-.039-.463.254-.729.2-.11-.023-.265-.03-.335.047-.139.155-.371.115-.458.366-.018.05-.067.164-.149.044s-.171-.208-.251-.318c-.155-.215-.315-.189-.49-.04a.368.368,0,0,1-.187.094.956.956,0,0,0,0-.145.3.3,0,0,0-.332-.262.3.3,0,0,0-.265.332.32.32,0,0,1,0,.059.6.6,0,0,0,.094.4,1.011,1.011,0,0,1-.013.2c-.015.09-.077.124-.136.024-.087-.148-.216-.072-.326-.094a.19.19,0,0,1-.1-.273c.033-.074.135-.145.127-.2a.677.677,0,0,1,.224-.606c.14-.161.276-.329.4-.505s.126-.428.3-.559c.121-.09.061-.338.2-.426-.023-.038-.044-.1-.071-.106-.094-.013-.191.006-.2-.168-.006-.157.088-.148.168-.2.286-.2.632-.331.725-.823.024-.123.22-.2.231-.32a.715.715,0,0,1,.216-.428.439.439,0,0,0,.029-.545c-.083-.132-.083-.189.057-.2.115-.005.231.027.32-.12.07-.118.233-.211.235-.318,0-.2.159-.278.168-.457.012-.228.264-.284.272-.477s.2-.264.155-.461a2.8,2.8,0,0,0,.213-.456h.145a.3.3,0,0,0,.3-.3.3.3,0,0,0-.29-.3.145.145,0,0,1,.029-.024c.122-.072.163-.282.329-.307.231-.034.088-.278.137-.416a.452.452,0,0,1,.135-.2c.23-.181.274-.521.433-.761-.018-.257.221-.307.264-.487.051-.217.173-.388.213-.606a.121.121,0,0,1,.049-.063.626.626,0,0,0,.189-.617c-.016-.193.065-.216.2-.264a.375.375,0,0,0,.23-.392,5.005,5.005,0,0,0,.377-.878,2.769,2.769,0,0,1,.462-.921c-.042-.225.2-.318.163-.54a.408.408,0,0,1,.14-.374.421.421,0,0,0,.152-.368,5.894,5.894,0,0,0,.419-.945c.138-.279.222-.6.341-.893.13-.32.25-.647.386-.96a3.415,3.415,0,0,0,.32-1c.137-.123.089-.39.246-.5-.058-.2.186-.277.139-.46-.061-.24.148-.343.155-.552,0-.1.145-.218.125-.278-.091-.281.186-.4.153-.646.236-.139.053-.5.241-.682.107-.1-.014-.325.06-.405.118-.126.1-.323.2-.44.148-.174.029-.4.081-.584.044-.154.183-.267.137-.463-.053-.227.117-.365.137-.552a1.447,1.447,0,0,1,.134-.472,2.1,2.1,0,0,0,.019-.614c.012-.194.172-.315.149-.552a1.066,1.066,0,0,1,.129-.823c.037-.046,0-.166-.061-.228a.222.222,0,0,1-.047-.3.556.556,0,0,0,.115-.391,7.3,7.3,0,0,1,.009-1.069c.039-.3-.209-.446-.161-.733.033-.2-.15-.278-.24-.4a2.394,2.394,0,0,0-.411-.489c-.064-.052-.164-.057-.238-.142-.119-.136-.342.061-.435-.193-.3.011-.539-.278-.86-.228a10.489,10.489,0,0,1-1.072.019c-.156.008-.2-.225-.371-.192a2.079,2.079,0,0,1-.5,0c-.09,0-.222.012-.263-.052-.185-.293-.541.067-.691-.3a1.7,1.7,0,0,0-.428.007c-.171.045-.221-.224-.371-.184-.245.065-.434-.127-.648-.207-.112-.284-.43-.023-.539-.315-.118-.005-.235-.013-.353-.015-.166,0-.334,0-.5,0h-.429a2.215,2.215,0,0,0-.5.008c-.187.044-.292-.174-.442-.18-.5-.018-1-.007-1.5-.007-.251.351-.58.148-.871.17-.427.034-.857.009-1.287.009-.167,0-.334,0-.5,0-.183,0-.38-.052-.513.177-.167,0-.334-.011-.5,0-.135.012-.29-.08-.4.075-.139.191-.312.068-.468.1-.07.013-.143-.007-.214,0-.338.05-.7-.135-1.013.177l-.561.035c-.139.25-.346.114-.524.143-.114.019-.265-.02-.335.057-.123.139-.319.1-.406.3-.078.185-.222.188-.369.181a.158.158,0,0,0-.115.075c-.167.264-.487-.083-.635.249,0,.007-.039,0-.047-.008-.1-.14-.177-.2-.188.065,0,.1-.047.154-.135.152a2.456,2.456,0,0,0-.571.007c-.22.047-.317.33-.481.488-.032.031-.091.016-.128.042a1.37,1.37,0,0,0-.4.831,3.162,3.162,0,0,0,.008.622c.036.185.177.33.139.555-.007.036.043.094.075.131.013.015.046.007.069,0,.089-.019.113.094.173.129.159.095.376-.006.5.227.007.014.046,0,.069,0s.048,0,.072,0c.139.009.149-.006.185-.268.01-.072-.029-.087-.037-.09a.181.181,0,0,0,.037,0h0a.439.439,0,0,0,.053,0c.006,0,.013,0,.016,0,.12.144.236.294.357.439.032.038.072.087.111.09a1.8,1.8,0,0,0,.428,0c.159-.026.207.229.372.189.114-.028.239.013.356-.01.143-.028.175.219.3.179.207-.069.319.213.514.186s.352.285.58.188c.078.132.128.139.26.031.2-.165.462-.215.631-.457a.255.255,0,0,1,.247-.125c.19.01.381,0,.572,0,.128-.253.334-.151.513-.182.06-.011.111-.123.169-.127.208-.017.378-.177.572-.217.313-.064.643.082.948-.173.1-.083.284-.041.422-.006.181.045.287-.147.432-.176,0,0,0,0,0,0a.376.376,0,0,0,.251.19.97.97,0,0,0,.165.015.837.837,0,0,0,.711-.41.057.057,0,0,0,0-.009.243.243,0,0,1,.109.009,2.13,2.13,0,0,0,.641.013c.071,0,.176.036.208-.008.237-.329.539-.108.805-.169.291-.067.614.122.883-.125,1.068-.056,1.172-.056,1.274-.055s.1.086.126.26c.032.216-.171.281-.15.464a1.275,1.275,0,0,1-.146.728,6.069,6.069,0,0,0-.248.587c-.07.191-.081.422-.174.624a.883.883,0,0,0-.148.637c-.139.091-.126.292-.2.433a2.293,2.293,0,0,0-.224.508c-.037.161.019.356-.132.468-.162.544-.409,1.038-.594,1.568-.08.227-.19.437-.282.657-.082.195-.159.394-.235.592-.086.223-.168.449-.253.672a6.474,6.474,0,0,1-.263.665c-.1.19-.148.4-.249.59a6.1,6.1,0,0,1-.289.653c.03.287-.221.351-.289.565a5.948,5.948,0,0,1-.227.6,4.3,4.3,0,0,1-.606,1.294c.024.242-.236.364-.168.628a.245.245,0,0,1-.084.224c-.068.083-.2.183-.189.25.031.214-.156.278-.161.464s-.216.248-.246.4c-.034.176-.165.287-.17.447-.005.188-.209.256-.15.461-.235.378-.306.9-.651,1.181l-.208.607a.363.363,0,0,1-.094.31,2.152,2.152,0,0,0-.4.51,1.782,1.782,0,0,0-.229.6.191.191,0,0,1-.086.13c-.2.1-.156.413-.3.561,0,.3-.236.406-.326.634s-.106.509-.284.653c-.228.184-.055.578-.282.758-.031.024,0,.16-.067.228a.976.976,0,0,0-.264.489c-.032.157-.21.211-.252.4a1.829,1.829,0,0,1-.2.519,4.162,4.162,0,0,1-.348.448c-.013.017-.01.055-.021.078-.1.215-.12.486-.284.656s-.183.445-.341.637a5.61,5.61,0,0,0-.278.645A3.47,3.47,0,0,0,68.3.6a4.825,4.825,0,0,1-.3.561c-.1.207-.174.443-.264.664-.071.174-.1.382-.25.5-.038.029-.09.087-.089.128.013.258-.077.546.061.767.093.148.017.187-.042.258s-.086.141-.174.122c-.222-.046-.365.094-.417.344-.039.19-.219.315-.149.55.075.253-.176.393-.146.64.021.174.008.354.014.53,0,.052.227.247.271.258.09.022.123-.07.174-.124a.437.437,0,0,0,.124-.3.149.149,0,0,1,.222-.1c.072.056.08.171.012.3-.025.049-.087.081-.093.129-.011.08-.035.186.048.237a.174.174,0,0,0,.133.022c.041-.013.072-.068.111-.1.165-.12.241-.117.267.046a.88.88,0,0,0,.125.3,1.34,1.34,0,0,0,.477.474.952.952,0,0,0,.269-.01.509.509,0,0,0,.385.38l.043.009a.816.816,0,0,0,.183.024.477.477,0,0,0,.362-.162c.145.187.367.024.491.131a.651.651,0,0,0,.522.159c.151-.011.2.232.371.19a3.249,3.249,0,0,1,.5-.012c.091-.007.128.067.173.129s.064.057.1-.016c.06-.109.179-.171.236-.083.1.151.259.114.354.244.129.18.387-.018.488.253a3.259,3.259,0,0,0,.353.009.18.18,0,0,1,.175.118.451.451,0,0,0,.493.247c.405-.015.811-.005,1.216,0,.086,0,.137-.055.131-.154-.009-.145.08-.2.141-.286.1-.139.192-.158.289,0a.555.555,0,0,0,.561.265c.178,0,.321,0,.325-.3,0-.084.057-.08.1,0,.1.19.252.1.386.109.1-.21.346-.161.448-.378.068-.145.19-.129.306-.157.234-.057.341.144.476.3.077.089.175.1.241,0,.146-.214.31-.343.549-.3.135.027.259,0,.389.137a.366.366,0,0,0,.465,0,.6.6,0,0,1,.314-.14c.387-.039.8.152,1.157-.174a2.321,2.321,0,0,1,.57.01c.213.055.324-.183.515-.2.291-.025.618.18.871-.168.214,0,.429,0,.643,0,.089,0,.2.053.262-.07.118-.225.391.029.491-.251,0-.008.041-.011.047,0,.141.225.244.129.406,0,.118-.1.328.007.486-.038s.309-.213.516-.181.43.1.583-.168c.12,0,.239.009.358,0,.135-.012.207-.248.37-.176.232.1.38-.153.57-.225a.372.372,0,0,0,.2-.423.258.258,0,0,1,.013-.166c.107-.112.137-.2.01-.328a.286.286,0,0,1,.008-.228Zm-5.282-22.24c-.012,0-.031-.036-.047-.056a.4.4,0,0,1,.1-.056c.012,0,.031.036.047.056A.387.387,0,0,1,83.034-17.513Zm-.007-4.6c.069,0,.118.073.1.179a.7.7,0,0,0,0,.087c0,.251-.166.355-.38.235-.067-.038-.06-.072,0-.126a.217.217,0,0,0,.1-.21c0-.027-.007-.077,0-.083A.369.369,0,0,1,83.028-22.117Zm-.7-3.375c.033-.027.086-.018.168-.032s.175.041.258.156c.1.14.131.3.043.358a.157.157,0,0,1-.237-.058c-.061-.086-.134-.158-.192-.247C82.335-25.362,82.221-25.4,82.327-25.492Zm-1.174,1.646a.112.112,0,0,1,.18-.056c.094.073.153.21.293.182a.414.414,0,0,1,.067.21c0,.087-.048.156-.136.137a.33.33,0,0,0-.069,0c-.171.05-.248-.12-.333-.244A.341.341,0,0,1,81.154-23.847Zm-1.311,9.761a1.278,1.278,0,0,1,.116.063.081.081,0,0,1,0,.058c-.053.089-.211.092-.231-.005S79.772-14.094,79.843-14.086ZM66.262-24.906c.047-.1.085-.044.117.012C66.263-24.9,66.26-24.9,66.262-24.906Zm11.8-.6a.142.142,0,0,0,.014-.013C78.147-25.517,78.217-25.517,78.062-25.5Zm.7,6.6.051.115-.05.064a.582.582,0,0,1-.045-.12C78.718-18.865,78.75-18.889,78.766-18.909ZM77.557-6.226a.216.216,0,0,1,.069,0c.169-.044.234.139.33.248,0,0-.036.1-.06.1-.161.022-.324.033-.422-.179a1.084,1.084,0,0,1-.039-.121,1.231,1.231,0,0,1,.121-.051ZM77-2.955a.138.138,0,0,1,.237,0,.169.169,0,0,1,0,.06A.136.136,0,0,1,77-2.9a.082.082,0,0,1,0-.059ZM76.53-6.512c-.011.087-.069.128-.134.1a.132.132,0,0,0-.068.011c.151-.154.2-.128.2-.113Zm-.264.023c0-.037.06-.069.1-.094.017-.012.044,0,.066,0-.055.081-.1.142-.129.19C76.273-6.4,76.257-6.414,76.266-6.489ZM76.2-6.4a.052.052,0,0,1,.06,0c.008.01.005.035,0,.058-.058.081-.077.1-.084.1C76.093-6.312,76.152-6.363,76.2-6.4Zm-3.014.534a.622.622,0,0,1-.044-.12c0-.015.029-.038.044-.058a.619.619,0,0,1,.045.12C73.232-5.914,73.2-5.89,73.185-5.87Zm1.66.377.016-.018c.044.007.086.036.115.111-.043.015-.086.035-.131.048Zm-.82-.518c.043-.047.128-.034.171-.043.068.014.136.005.151.036a.639.639,0,0,1,.046.122.668.668,0,0,0-.3.071l-.064.025a.3.3,0,0,0-.041.022l-.007-.009a.291.291,0,0,1,.047-.226Zm-.292.354a.387.387,0,0,1,.1.056l-.05.064L73.686-5.6c.016-.02.035-.06.047-.056ZM73.971.6c-.016.089-.052.152-.14.14a1.507,1.507,0,0,0-.21,0,.886.886,0,0,1-.139,0c-.019,0-.052-.036-.05-.049a.4.4,0,0,1,.037-.123.308.308,0,0,1,.358-.184A.168.168,0,0,1,73.971.6Zm0-5.575c-.089.009-.126-.05-.14-.14a.179.179,0,0,1,.066-.2.3.3,0,0,0,.214.1c0,.006,0,.01,0,.016.016.14-.036.211-.145.222ZM75.044.737C75,.8,74.955.864,74.91.927a.482.482,0,0,1-.058-.075c-.047-.1-.024-.264.053-.286.056-.016.123.031.186.05A.707.707,0,0,1,75.044.737Zm.408-5.386c-.016-.049-.054-.105-.046-.146.046-.21.179-.355.317-.361.036.03.088.05.1.092s.022.148,0,.164c-.12.094-.251.169-.377.251Zm37.342,11.79a.47.47,0,0,0,.042-.548c-.126-.3-.117-.3-.025-.546a.534.534,0,0,0,.005-.547c-.018-.05-.065-.094-.067-.143-.007-.238.005-.477-.005-.714s.078-.484-.13-.646c0-.236-.019-.473-.007-.708a.466.466,0,0,0-.145-.375c-.036-.039-.064-.089-.1-.125s-.044-.075.012-.129a.259.259,0,0,0,.026-.369c-.068-.1-.092-.253-.158-.362-.115-.192.114-.246.09-.431-.03-.238-.015-.465-.2-.616-.062-.049-.047-.064.012-.25.022-.072.044-.2.015-.233-.114-.123-.105-.2,0-.332a.41.41,0,0,0,.017-.33.9.9,0,0,1-.132-.65.309.309,0,0,0-.1-.219c-.049-.064-.1-.131-.152-.189s-.038-.078.018-.129c.145-.13.066-.325.083-.491.021-.2-.065-.241-.209-.245-.067,0-.112-.158-.071-.21a.909.909,0,0,0,.137-.646c-.013-.224.072-.483-.135-.645,0-.267,0-.533-.008-.8a.446.446,0,0,0-.043-.156,2.389,2.389,0,0,1-.094-.782c.046-.265-.194-.385-.182-.628,0-.015-.077-.048-.119-.052a2.647,2.647,0,0,0-.286,0c-.086,0-.124-.054-.134-.154-.012-.139.031-.194.166-.2a3.207,3.207,0,0,0,.351-.027c.024,0,.046-.091.055-.143.024-.146-.109-.182-.138-.284-.038-.132.056-.3-.059-.415s-.03-.168.021-.26a.3.3,0,0,0,.009-.23.532.532,0,0,1-.12-.39c.009-.267,0-.536,0-.8-.231-.169-.044-.579-.278-.756a.218.218,0,0,1,.038-.234c.189-.185.058-.441.092-.661a.452.452,0,0,1-.143-.376.625.625,0,0,0-.1-.488c-.063-.076.136-.179.111-.347s.039-.384-.017-.528a1.141,1.141,0,0,1-.137-.559c0-.039-.062-.083-.084-.132-.07-.161-.086-.183,0-.3a.473.473,0,0,0,.032-.55.4.4,0,0,1-.087-.225c.008-.208-.013-.419.007-.624.022-.222-.212-.308-.153-.554.048-.2-.078-.221-.211-.236-.07-.009-.1-.162-.064-.218a.785.785,0,0,0,.139-.556c-.041-.3.113-.657-.143-.909a.571.571,0,0,1,.049-.063c.085-.078.145-.221.079-.3a.731.731,0,0,1-.134-.474c-.02-.25.085-.52-.1-.754-.063-.077-.044-.282-.03-.422.021-.2-.151-.265-.156-.462a3.17,3.17,0,0,0-.123-1.364c-.089-.188.035-.474-.067-.691a.3.3,0,0,0,.285-.3.3.3,0,0,0-.3-.3h-.075a1.66,1.66,0,0,1,.011-.532c.046-.244-.151-.342-.157-.553-.005-.25.089-.537-.121-.738,0-.205-.013-.411-.015-.617s-.208-.314-.147-.553a.505.505,0,0,0-.193-.521c-.118-.109-.037-.164.018-.258a.541.541,0,0,0,.013-.415c-.021-.077-.123-.149-.113-.2a2.182,2.182,0,0,0-.15-.821,2.691,2.691,0,0,0-.292-.739.529.529,0,0,1-.138-.468,1.1,1.1,0,0,0,0-.178.486.486,0,0,0-.219-.327c-.079-.069-.163.033-.243.11-.126.123-.25.063-.253-.1a3.267,3.267,0,0,1,0-.535.9.9,0,0,0-.294-.835c-.074-.075-.14-.242-.2-.236-.165.015-.223-.2-.368-.2-.183,0-.382.062-.513-.177-.111.025-.237-.063-.333.075s-.186.147-.3.021a.277.277,0,0,0-.182-.092,4.194,4.194,0,0,0-.786,0c-.246.037-.406-.259-.658-.2a1.534,1.534,0,0,1-.484-.035c-.145-.233-.35-.1-.528-.136a.1.1,0,0,1-.052-.054c-.106-.259-.388.016-.49-.252a3.031,3.031,0,0,1-.571-.217.691.691,0,0,1-.309-.156c-.152-.158-.226.135-.357.142a.149.149,0,0,1-.125-.047c-.072-.1-.106-.093-.211-.023a1.576,1.576,0,0,0-.441.392c-.126.175-.258.343-.386.515.077.411-.219.548-.371.792a.294.294,0,0,0-.055.148.5.5,0,0,1-.146.462c.063.208-.112.3-.156.456a5.106,5.106,0,0,1-.235.593c-.077.185-.053.439-.181.619.106.267-.181.4-.143.64-.244.115-.084.426-.192.617a1.313,1.313,0,0,0-.222.59,3.644,3.644,0,0,1-.154.731c0,.022.026.055.052.086v.007a.957.957,0,0,0-.156,0,.3.3,0,0,0-.272.326.3.3,0,0,0,.327.272c.092-.008.135-.01.159.091a.123.123,0,0,1-.1.06.188.188,0,0,0-.124.053,1.382,1.382,0,0,0-.315.818,1.584,1.584,0,0,0,0,.356c.025.178-.117.23-.156.369a1.576,1.576,0,0,0-.128.734,1.615,1.615,0,0,1-.148.73c-.072.173-.2.331-.142.55.069.259-.222.38-.147.641.063.221-.108.365-.135.552a5.064,5.064,0,0,0-.008.623.106.106,0,0,1-.039.067c-.16.121-.125.33-.093.481.052.248-.207.3-.163.557a.811.811,0,0,1-.133.727c.087.336-.116.6-.141.909a1.585,1.585,0,0,0,0,.356c.027.179-.134.228-.147.373-.009.1.018.181.091.2a.15.15,0,0,0,.14-.015.7.7,0,0,0-.029.282.386.386,0,0,1,0,.059.092.092,0,0,0,0,.013.223.223,0,0,1-.085.033c-.264.038-.261.074-.262.341,0,.148.007.3,0,.446-.01.167.055.352-.094.49-.091.083-.024.288-.152.369-.027.017-.037.1-.036.154a1.2,1.2,0,0,1-.135.65c-.084.146.055.4-.082.58s-.04.451-.071.676c0,.029.009.068,0,.087-.076.132-.2.255,0,.4a.225.225,0,0,1,0,.166c-.17.139-.086.4-.162.541a1.565,1.565,0,0,0-.131.474c-.034.185-.183.332-.134.553.046.2-.114.3-.14.463-.036.219.07.482-.138.645-.043.244.077.541-.152.725a2.555,2.555,0,0,0,.007.533c.056.247-.223.307-.156.556a.9.9,0,0,1-.124.556,2.244,2.244,0,0,0-.016.617.243.243,0,0,1-.066.142c-.114.115-.039.282-.08.407-.05.154-.169.265-.14.465a.51.51,0,0,1-.128.473.215.215,0,0,0,.03.236c.07.08.136.166.2.251a.4.4,0,0,1,.031.063c-.039.026-.077.067-.118.074-.07.013-.145-.007-.214.009-.027.006-.05.068-.067.109,0,.009.03.056.048.058.07.009.143,0,.213.009.043.006.106.024.12.06.11.3.028.711-.213.813a.585.585,0,0,0-.321.3,1.265,1.265,0,0,1-.112.3c-.113.148.047.423-.152.549-.026.016-.027.1-.032.158-.017.2.06.422-.122.563-.007.2-.024.409-.018.614,0,.142-.106.2-.125.293a1.733,1.733,0,0,1-.149.372,1.291,1.291,0,0,0-.015.437.977.977,0,0,1-.084.4.685.685,0,0,0,.045.72.214.214,0,0,1-.025.3,2.079,2.079,0,0,0-.309.554c-.109.192.036.5-.2.615,0,.238,0,.475,0,.713-.222.19-.128.477-.142.73-.01.177,0,.355-.007.533-.207.161-.154.425-.13.641.032.284-.193.436-.164.733.047.469.012.951.014,1.427a1.076,1.076,0,0,0,.024.255,1.077,1.077,0,0,0,.718.419,1.624,1.624,0,0,0,.408-.456c.038-.069.066-.081.1-.035.1.128.211.244.3.381s.135.039.209-.026c.045-.039.152-.05.185-.011a.654.654,0,0,1,.207.337c.044.251.193.382.416.347a.626.626,0,0,1,.285,0c.1.034.2.15.3.165.176.024.369.053.507-.154.132.156.239.344.445.391.071.016.105.15.208.021a1.877,1.877,0,0,0,.408-.849c.145-.118.111-.365.236-.5.1-.113.241-.214.193-.434s.214-.31.149-.553a.479.479,0,0,1,.021-.335.542.542,0,0,0,.111-.481c-.031-.207.119-.3.148-.463.033-.193-.071-.409.086-.583.142-.157-.043-.494.2-.609-.072-.255.1-.427.14-.641.039-.188-.067-.422.117-.566.01-.233.016-.467.033-.7a.268.268,0,0,1,.07-.14c.144-.166-.015-.485.2-.612,0-.176.009-.353.012-.529,0-.067,0-.134,0-.2a1.347,1.347,0,0,0,.134-.054l.055-.025a.3.3,0,0,0-.231-.555l-.079.036a.561.561,0,0,1-.094.038l-.037.009a.605.605,0,0,1,.064-.126c.08-.128-.108-.206-.174-.3s-.034-.132.016-.195c.085-.108.083-.109.253-.015.126.07.159.047.238-.162C98.313.8,98.335.7,98.351.7c.261.02.2-.211.238-.406s.194-.337.132-.552c-.072-.244.167-.332.152-.553a.629.629,0,0,1,.074-.5c.139-.165.017-.4.069-.587.035-.126.127-.21.152-.372s.247-.089.335-.252a.387.387,0,0,1,.215-.208,1.112,1.112,0,0,0,.417-.245,2.12,2.12,0,0,0,.217-.25h.161a.3.3,0,0,0,.3-.3.3.3,0,0,0-.279-.3c.01-.01.02-.019.029-.029.038-.041.063-.176.152-.053.078.106.162.241.263.278.165.062.226-.169.333-.272s.278-.07.346-.252c.079-.211.28-.167.405-.3a1.108,1.108,0,0,1,.349-.226.77.77,0,0,0,.461-.582c.035-.163.125-.151.217-.139.142.018.222-.026.219-.233a.126.126,0,0,1,.151-.128c.07.007.164.03.207-.015.258-.268.494-.2.753.008.072.058.179.031.174.2s0,.357,0,.536a4.355,4.355,0,0,1-.006.624c-.032.213.16.273.153.463-.01.265.005.531.01.8.213.2.1.488.128.737.013.114-.02.284.03.336.185.195.088.44.115.662.03.249-.087.539.132.736a4.26,4.26,0,0,0,.017.618c.036.215.186.383.143.644-.032.2,0,.416-.009.623a.611.611,0,0,0,.141.468c.036.043-.011.169.061.233.211.185,0,.331-.033.493.183.141.112.368.116.564,0,.179-.01.357.137.467-.043.247.1.426.144.638a1.82,1.82,0,0,1,0,.621c-.039.258.1.429.142.644s-.029.471.151.638c-.072.306.194.515.149.821-.015.1.132.176.213.126.02-.012.032-.047.052-.061.262-.178.357-.16.539.094a.232.232,0,0,1,.049.118.541.541,0,0,0-.125.007.3.3,0,0,0-.237.352.306.306,0,0,0,.3.247.278.278,0,0,0,.055,0,.564.564,0,0,0,.244-.03c.183,0,.366,0,.549,0a.288.288,0,0,0,.369.173c.192-.071.281.166.442.189.182.025.377-.093.546.076.188.188.408.067.612.095.118.016.884-.021,1.144.011.187.023.053.126.01.212-.1.2-.039.319.158.316.091,0,.18.021.231-.123l0-.005a.636.636,0,0,0,.528.261c.012,0,.024,0,.036,0,0,.041.006.086.009.129,0,.026.072.075.089.064.115-.077.224-.168.335-.255-.032-.222.139-.286.213-.426a.791.791,0,0,0,.072-.23c.027-.165-.05-.347.08-.5.159-.182.025-.3-.073-.431a.442.442,0,0,1,.041-.058ZM94.5-.034l.05.115L94.5.145a.619.619,0,0,1-.045-.12C94.454.01,94.486-.014,94.5-.034Zm.028,2.286c-.032.041-.067.078-.1.122-.05.075-.1.1-.143,0a.264.264,0,0,1,0-.168.14.14,0,0,1,.17-.1l.108.081C94.555,2.212,94.543,2.234,94.529,2.253Zm2.922-.236h0l-.02.036a.094.094,0,0,1,0-.021.114.114,0,0,1,.015-.015Zm.011-2.881c.021-.1.179-.095.232,0a.088.088,0,0,1,0,.058,1.137,1.137,0,0,1-.116.063C97.511-.741,97.44-.764,97.462-.864Zm-.211-1a.71.71,0,0,0-.046.34c-.035,0-.041,0-.045-.013a.2.2,0,0,1-.01-.083A.364.364,0,0,1,97.251-1.868Zm-.193-6.2c.061,0,.1.069.029.166a.346.346,0,0,1-.364.183.338.338,0,0,1-.366-.179c-.066-.1-.1-.207-.033-.3a1.3,1.3,0,0,0,.3-.553c0-.024.083-.042.123-.033s.076.053.114.081a.645.645,0,0,0-.045.062c-.129.24-.125.269.005.428A.307.307,0,0,0,97.058-8.064Zm-.266-5.9a.5.5,0,0,1,.043.12,1.306,1.306,0,0,1-.119.054.231.231,0,0,1-.068,0,.231.231,0,0,1-.068,0,1.3,1.3,0,0,1-.119-.054.524.524,0,0,1,.043-.12C96.642-14.158,96.653-14.158,96.791-13.962ZM96.292-16a.15.15,0,0,1,.233-.08.094.094,0,0,1,.018.037.3.3,0,0,0-.149.055.464.464,0,0,0-.112.121A.591.591,0,0,1,96.292-16ZM95.573-.388a.106.106,0,0,1-.1-.044.494.494,0,0,1,.108-.2.29.29,0,0,0,.066-.112.162.162,0,0,1,.074.132C95.738-.471,95.681-.4,95.573-.388ZM96.6-1.035c-.043.092-.012.227-.1.3-.057.047-.1.14-.161.155s-.177-.053-.175-.075c.017-.256-.1-.291-.261-.275-.1.01-.191-.009-.182-.18,0-.059,0-.118,0-.177a1.709,1.709,0,0,0,0-.177c-.013-.113.039-.163.114-.177.177-.032.383.092.516-.16.169-.008.393-.143.389.262,0,.024.072.052.112.075.148.085.132.1.046.243s-.235.055-.3.185Zm.416,3.68a.086.086,0,0,1-.07,0c-.129-.1-.073-.259-.077-.4a.26.26,0,0,1,.072-.135c.012-.015.046,0,.069,0h.213c.066-.03.116-.051.159-.067-.086.067-.052.067-.016.067.013,0,.028,0,.042,0l-.024.047a.288.288,0,0,0-.029.137c-.1.137-.18.306-.339.355Zm.922-13.574-.05-.063.05-.115c.016.019.048.044.045.058A.581.581,0,0,1,97.935-10.929ZM101.728-26.2c-.016.02-.035.06-.047.056a.41.41,0,0,1-.1-.056l.051-.064Zm-.319-.98c.112-.026.176.043.176.182a.134.134,0,0,1-.111.171c-.112.026-.169-.044-.178-.179C101.29-27.117,101.337-27.164,101.409-27.181Zm-.826-3.306a.687.687,0,0,1,.185-.086c.092-.012.187.01.253-.1s.115-.036.131.041a1.436,1.436,0,0,1,0,.266c0,.089-.005.179,0,.268.015.2-.063.255-.21.245-.033,0-.064.083-.1.112-.145.108-.39-.069-.4-.282-.014-.187.208-.253.144-.461Zm.089,21.324a.165.165,0,0,0-.018.019l-.02-.045A.309.309,0,0,1,100.673-9.162Zm-.3,2.308H100.3a.524.524,0,0,0,0-.053c0-.02.03-.041.044-.06.018,0,.042-.009.05,0,.044.053.088.108.132.163A.291.291,0,0,0,100.368-6.854Zm.011-14.436c-.055-.049-.1-.117-.151-.172s-.074-.116,0-.185c.053-.053.095-.126.15-.175.074-.067.2.016.208.134,0,.057,0,.115,0,.173,0,.029,0,.058,0,.086C100.575-21.331,100.441-21.235,100.379-21.29Zm-1.008-7.494a.213.213,0,0,0,.236-.128c.036-.07.07-.072.1.01a.925.925,0,0,1,.021.162c0,.058,0,.115,0,.173,0,.092-.069.137-.117.072a.236.236,0,0,0-.241-.118c-.014,0-.049-.043-.046-.056.01-.042.035-.115.05-.113Zm-.782,9.819H98.58c0-.027-.009-.062,0-.078a.547.547,0,0,1,.081-.086,1.569,1.569,0,0,1-.074.165Zm-.173-.6-.05.064a.588.588,0,0,1-.045-.12c0-.015.029-.038.045-.058C98.382-19.642,98.4-19.6,98.416-19.566Zm-.063.761a.113.113,0,0,1-.045-.055c.02-.038.043-.095.072-.1a.684.684,0,0,1,.2,0,.107.107,0,0,1,0,.013C98.489-18.776,98.422-18.778,98.353-18.8Zm.289-.164a.032.032,0,0,1-.027.006c.072-.139.094-.117.092-.111A.341.341,0,0,1,98.642-18.969Zm.872-6.429c-.134-.01-.222.013-.225.224,0,.1-.169.193-.207.128-.118-.2-.277-.177-.433-.171-.007-.015-.015-.027-.022-.04a1.552,1.552,0,0,0,.038-.433c0-.047,0-.095,0-.142a.3.3,0,0,0-.013-.084c.053-.032.1-.008.21.081s.22.063.33.08h.45c.166.228.344.264.54.056a2.946,2.946,0,0,1,.392.2c-.03.035-.058.087-.093.1a.449.449,0,0,0-.328.549.137.137,0,0,1-.12.169c-.1.019-.146-.032-.166-.2C99.825-25.249,99.731-25.381,99.514-25.4ZM100.8-6.106a1.458,1.458,0,0,0-.1.3c-.008.024-.032.04-.048.06-.106-.179-.29-.275-.348-.5h.063a.3.3,0,0,0,.3-.3.3.3,0,0,0-.019-.1c.047.059.094.118.142.176a.268.268,0,0,1,.012.366Zm2.923-5.123a.7.7,0,0,1-.184.258c-.05.043-.132.027-.2.043-.2.047-.287.162-.318.4a.293.293,0,0,0-.072.089.711.711,0,0,0-.092.115.544.544,0,0,0-.056-.064c-.072-.065-.1-.211-.223-.185-.135.029-.293-.084-.4.067s-.309.108-.4.308c-.067.144-.208.214-.208.433,0,.114-.089.022-.142-.02-.129-.1-.133-.1-.242-.021-.04.029-.066.115-.1.118l-.092.012a.715.715,0,0,0-.409-.132c-.024-.108.016-.254,0-.369,0-.029,0-.059,0-.1.033-.241-.051-.5.117-.74.121-.177-.072-.53.162-.712a1.64,1.64,0,0,1,.062-.586.842.842,0,0,0,.08-.58c-.035-.241.136-.355.154-.552s-.064-.415.1-.572a.253.253,0,0,0,.037-.155,1.3,1.3,0,0,1,.132-.649c.089-.168-.056-.454.128-.649.049-.052.016-.221.029-.335.027-.224-.077-.485.08-.668.137-.159-.03-.42.146-.553a.26.26,0,0,0,.058-.145c.029-.193-.06-.405.092-.579.121-.137.041-.335.049-.5s.188-.247.154-.462a.568.568,0,0,1,.091-.488c.063-.076.049-.275.041-.415-.012-.182.1-.25.168-.362.044-.072.1-.079.1,0,0,.372.221.675.18,1.075-.029.3-.12.65.123.909.013.013.007.055.007.084a4.694,4.694,0,0,1-.007.711c-.04.262.171.4.154.64s.005.476-.006.712c-.013.265.219.43.155.731a3.424,3.424,0,0,0,0,.706c.231.189.134.484.129.73,0,.222.21.306.159.552a3.3,3.3,0,0,0-.007.621,1.537,1.537,0,0,1,.146.906.248.248,0,0,0,.075.137.225.225,0,0,1,.06.231Zm.935-11.131-.05-.115.05-.063a.584.584,0,0,1,.045.12C104.709-22.4,104.678-22.38,104.661-22.36Zm.572-5.179a.62.62,0,0,1-.044-.12c0-.015.029-.038.044-.058l.051.115ZM105.806,1.4a.662.662,0,0,1-.045-.12c0-.015.029-.039.045-.059l.051.115Zm0-28.935c-.016-.02-.047-.044-.045-.059a.662.662,0,0,1,.045-.12l.051.063Zm1.383,15.6c0-.022.03-.04.052-.067.063.082.129.161.185.25.009.013-.032.105-.052.107-.063.005-.15.047-.182-.056A.692.692,0,0,1,107.189-11.938Zm-.381-16.852a.663.663,0,0,1-.045-.12c0-.015.029-.039.045-.058a.662.662,0,0,1,.045.12C106.855-28.834,106.824-28.81,106.808-28.79Zm.9.3a.138.138,0,0,1-.157.056.5.5,0,0,0,.1-.148.53.53,0,0,1,.063.035A.084.084,0,0,1,107.711-28.49Zm.452,27.11c0,.029-.084.069-.086.065-.064-.111-.2-.154-.2-.329s.138-.214.2-.33c.03.026.082.047.087.078a1.821,1.821,0,0,1,0,.258,1.825,1.825,0,0,1,0,.258ZM110.1-7.711a1.1,1.1,0,0,1,.1-.122l.049-.057a.411.411,0,0,1,.067.135c.015.154-.027.212-.137.22l-.119-.055A.709.709,0,0,1,110.1-7.711Zm-.93-4.379-.092.064-.05-.064a.387.387,0,0,1,.1-.056C109.134-12.149,109.153-12.11,109.169-12.09Zm.027,7.118c.031-.1.118-.056.182-.06.016,0,.033.034.05.053a.7.7,0,0,1-.19.3c-.015,0-.044-.036-.046-.057A.709.709,0,0,1,109.2-4.972Zm.165,4.253c.029-.036.057-.076.089-.108l.053.085c.026.041.049.078.067.114-.026.048-.071.067-.149.055-.038-.006-.072-.056-.108-.086l.049-.061ZM110-1.23a1.045,1.045,0,0,1,.1.122.8.8,0,0,1,.052.12l-.07.036c-.023-.041-.047-.081-.07-.117a.917.917,0,0,1-.086-.159c.01-.017.02-.033.029-.051C109.967-1.261,109.984-1.247,110-1.23ZM108.954-2a.583.583,0,0,1,.045.12c0,.015-.029.039-.045.058a.615.615,0,0,1-.044-.12C108.907-1.954,108.938-1.979,108.954-2Zm.327,4.82c-.075-.013-.123-.066-.114-.177.008-.088,0-.178,0-.267a.1.1,0,0,1,.055-.077c-.054-.071-.055-.043-.055-.012a.4.4,0,0,1-.119-.063,2.89,2.89,0,0,0-.2-.243c-.149-.125-.1-.306-.1-.473,0-.032.076-.094.078-.092a3.788,3.788,0,0,1,.342.437c.033.055,0,.17,0,.258.026.07.045.128.064.185a.129.129,0,0,1,.08-.012c.206.053.27.313.424.442-.013.021-.023.056-.039.061a1.421,1.421,0,0,1-.151.036c-.161-.279-.251-.423-.3-.5C109.405,2.823,109.343,2.832,109.281,2.821Zm.532,1.967a.662.662,0,0,1-.045-.12c0-.015.029-.039.045-.058l.051.115Zm.2-.963c-.04.069-.1.117-.143.186s-.061.075-.1.008c-.064-.109-.194-.17-.165-.344a.209.209,0,0,1,.071-.131c.037-.022.09,0,.136,0,.023,0,.046,0,.069,0A.193.193,0,0,1,110.01,3.825ZM110.1-.212a.663.663,0,0,1-.045-.12c0-.015.029-.039.045-.059l.051.115Zm.18,4.638c-.035,0-.072-.053-.108-.083.036-.03.069-.076.109-.086.068-.018.136,0,.179.109A.627.627,0,0,1,110.279,4.426Zm1.565,3.011c0-.024.03-.041.047-.061.113-.14.246-.09.375-.056.019,0,.033.038.05.06-.111.077-.12.229-.166.351a.264.264,0,0,0-.136-.024.587.587,0,0,1-.084-.031c-.036-.015-.082-.031-.132-.046l-.006-.007C111.7,7.5,111.83,7.5,111.844,7.436Zm-1.133-3.008c-.073-.013-.12-.063-.114-.174.009-.146,0-.293.007-.438,0-.027.056-.054.09-.067.01,0,.047.039.046.058-.013.17.018.286.182.268a.4.4,0,0,1,.14,0,.15.15,0,0,1,.062.034.847.847,0,0,1-.067.156l-.019.03a.732.732,0,0,0-.072.137l-.044,0A1.218,1.218,0,0,1,110.711,4.429ZM109.224,2.3l.018.024c0-.008-.007-.019-.01-.027l-.008,0Zm27.9,3.306S137.126,5.612,137.129,5.607Zm.3-2.339c-.133.031-.29-.053-.382.144-.126-.021-.205-.2-.358-.143s-.2-.219-.37-.182a1.236,1.236,0,0,1-.428,0c-.2-.027-.435.121-.587-.168a2.034,2.034,0,0,0-.5,0c-.208.051-.32-.2-.514-.195-.246,0-.522.124-.728-.17-.167,0-.334.01-.5,0s-.2-.241-.327-.327V2.111a.3.3,0,0,0-.6,0v.248a.382.382,0,0,1-.278.016c-.187-.053-.25.246-.438.21-.066-.013-.046.143-.061.225-.007.033-.058.052-.089.077-.095-.248-.3-.088-.438-.19-.05-.038-.038-.077.018-.129a.342.342,0,0,0,.059-.108.3.3,0,0,0,.151.115.506.506,0,0,0,.149.024.593.593,0,0,0,.462-.3l-.206-.163a.477.477,0,0,0,.026-.042c0-.007-.027-.036-.044-.056-.017.017-.032.035-.049.052l-.217-.138-.028.039a.3.3,0,0,0-.292.212.3.3,0,0,0,.02.222.2.2,0,0,0-.086-.041c-.115-.009-.239-.036-.318.119a.583.583,0,0,1-.1.126c-.083.088-.168.173-.253.259-.063-.148-.231-.1-.287-.2-.142-.245-.444,0-.547-.309-.1,0-.191,0-.286,0a.585.585,0,0,0-.451.163c-.134.113-.374-.083-.518.152-.187.015-.374.016-.558.046-.294.049-.614-.148-.885.139-.012.013-.075-.025-.1-.058-.095-.139-.22-.063-.331-.083-.16.239-.38.167-.585.18-.066,0-.163,0-.192.055-.109.188-.261.09-.392.125-.183.047-.257-.134-.341-.26-.063-.095,0-.206.067-.3.125-.174.036-.4.053-.595,0-.027-.07-.1-.1-.091-.318.055-.447-.25-.606-.493a.226.226,0,0,1,.021-.161.608.608,0,0,1,.151-.188c.074-.057.191-.061.234-.137s.02-.221.109-.3.038-.266.146-.377.083-.148-.008-.291a.287.287,0,0,1-.021-.374.733.733,0,0,0,.045-.653.966.966,0,0,1-.11-.391c.008-.148-.009-.3,0-.446.02-.223-.043-.32-.227-.321-.061,0-.057-.068-.024-.122.083-.135.247-.2.248-.406,0-.387.019-.775,0-1.16-.023-.365.125-.765-.133-1.093-.036-.046,0-.162.06-.23a.406.406,0,0,0,.045-.471c-.01-.016-.014-.027-.022-.041a.3.3,0,0,0,.284-.3.3.3,0,0,0-.3-.3h-.073a.327.327,0,0,1,0-.056c.021-.265,0-.535.009-.8a.277.277,0,0,0-.1-.215.218.218,0,0,1-.03-.236.58.58,0,0,0,.132-.473c0-.446,0-.893,0-1.339,0-.117.027-.284-.022-.34-.194-.223-.112-.5-.116-.747-.012-.744,0-1.488,0-2.232,0-.115.021-.239-.075-.318a.108.108,0,0,1-.038-.128,2.415,2.415,0,0,0-.022-1.389.5.5,0,0,1,.041-.42c.036-.047.142-.1.036-.187-.123-.106-.061-.335-.2-.44-.029-.022-.022-.161,0-.232a1.262,1.262,0,0,0-.018-1.032.257.257,0,0,1,.031-.242c.048-.058.121-.1.1-.214-.053-.331.125-.714-.144-1l-.009-.532c-.211-.138-.009-.259,0-.393a1.58,1.58,0,0,0-.332-1.249c-.089-.122-.052-.28-.144-.377s-.123-.181.036-.2a.355.355,0,0,0,.292-.32,4.212,4.212,0,0,0-.018-.7c-.185-.142-.1-.371-.113-.566-.01-.238-.009-.476,0-.714.006-.146-.088-.195-.138-.288-.062-.115-.169-.071-.245-.126a.153.153,0,0,1-.057-.109.506.506,0,0,0,.222-.33.761.761,0,0,0-.037-.394c-.009-.03-.018-.06-.024-.089a.3.3,0,0,0-.027-.065.612.612,0,0,0,.019-.284c-.008-.2.052-.422-.129-.558a5.708,5.708,0,0,1-.006-.8c.036-.286-.2-.448-.159-.733.022-.16.074-.369-.041-.506-.149-.176-.072-.385-.094-.579,0-.029.007-.074,0-.085-.18-.166-.265-.513-.569-.451a.324.324,0,0,1-.268-.048c-.221-.15-.25-.125-.392.076a.216.216,0,0,0,.055.335c.217.12.239.145.114.33-.092.137-.067.324-.19.446s-.209.163-.347-.015c-.036-.046-.118-.058-.08-.188.061-.212.047-.222-.074-.215a.366.366,0,0,0-.2.039c-.071.055-.113.183-.207.032-.058-.093-.145-.248-.2-.236-.172.038-.228-.175-.371-.205-.161-.035-.27-.182-.277-.433-.008-.278-.143-.463-.333-.439a.765.765,0,0,1-.515-.186c-.16-.1-.31-.25-.513-.185a.142.142,0,0,1-.192-.063c-.1-.186-.259-.082-.392-.112s-.236.092-.284.21c-.11.271-.219.541-.335.81-.072.166.06.4-.075.586s-.053.448-.074.674c-.013.147.047.347-.012.437a2.052,2.052,0,0,0-.129,1.185c-.013,1.666,0,3.333-.008,5,0,.223.075.483-.132.645.008.252-.086.528.134.727.152.139.229.3.036.5a.287.287,0,0,0-.033.158,1.428,1.428,0,0,1-.135.829.357.357,0,0,0,.067.4c.055.047.071.092.03.126-.119.1-.1.244-.11.392a.582.582,0,0,0,.141.47.219.219,0,0,1-.046.235.237.237,0,0,0-.094.219c.026.193-.051.4.1.578.063.074.039.275.039.419,0,2.113,0,4.227,0,6.339a.8.8,0,0,0,.107.576.406.406,0,0,1-.044.471.228.228,0,0,0-.027.3.437.437,0,0,1,.108.3c-.01.267,0,.536,0,.8v1.7a6.422,6.422,0,0,1-.007.8c-.036.284.183.448.159.732-.033.382-.008.773-.008,1.16,0,.3.005.6,0,.892a.492.492,0,0,0,.1.309c.085.131-.1.148-.1.258,0,.056,0,.137.021.165a.487.487,0,0,1,.124.386c-.01.238,0,.476,0,.714V1.89c0,.238,0,.476,0,.714,0,.2.017.407.026.611.261.213,0,.388-.024.581a.222.222,0,0,0,.044.152.4.4,0,0,1,.1.31c-.007.416.01.833-.007,1.25-.01.244.213.373.157.643-.032.151.128.229.207.331.192.25.222.247.537.047.161-.1.234-.041.249.216a.48.48,0,0,1,0,.089c-.014.108.033.173.107.185.1.016.17-.015.187-.18.013-.145.125-.228.18-.17.106.112.265.129.346.238.106.14.262.084.361.234s.27.022.4.064a.536.536,0,0,1,.169.134c.038.035.1.022.1-.043-.019-.222.1-.476-.087-.663a.464.464,0,0,1-.042-.063c.1-.059.113-.18.142-.289a.749.749,0,0,0,.151.05l.03.006a.094.094,0,0,0-.021.035.324.324,0,0,0-.018.165c.064.136.2.26,0,.392.169.077.07.426.262.439.139.009.169.208.3.19a.347.347,0,0,1,.377.173c.023.035.12,0,.189-.053.231-.186.325-.191.479.027.116.165.273.2.406.3a.424.424,0,0,0,.58-.017c.128-.107.146-.106.24-.013.142.14.324.182.461.36a.793.793,0,0,0,.468.29,1,1,0,0,0,.357,0c.143-.028.177.189.3.181.091-.005.224.011.262-.053.084-.142.23-.07.3-.183.083-.134.131-.089.209.007.038.045.154.064.183.029a.357.357,0,0,1,.31-.159c.238.014.477.005.715,0,.045,0,.107,0,.131-.029.154-.207.393-.353.343-.716-.005-.042.043-.137.064-.136.2,0,.428-.106.584.173.053.1.138.165.2.256.1.157.139-.012.2-.055a.388.388,0,0,1,.134-.027c.214-.046.234-.047.236-.286a.4.4,0,0,1,.07-.227c.008,0,.017,0,.026,0l.195-.061h0a.373.373,0,0,0,.185.346c.105.083.148-.156.281-.139.1.012.2-.263.314,0a1.318,1.318,0,0,0,.352,0c.105-.026.2-.144.3-.164.179-.035.383.06.512-.186.214,0,.429.01.643-.006.058,0,.109-.1.171-.125.109-.037.263,0,.327-.078a.444.444,0,0,1,.385-.151c.248-.022.457-.282.73-.181.025.009.067-.072.107-.1a3.626,3.626,0,0,0,.644-.432c.272.039.473-.151.679-.326a.114.114,0,0,1,.061-.03,2.4,2.4,0,0,1,.428,0c.159.027.207-.221.372-.19s.337-.021.5.014c.186.041.3-.128.443-.185.084-.032.12.068.177.114s.029.067.021.078a.169.169,0,0,1,.026-.021.663.663,0,0,0,.2-.25.247.247,0,0,0-.075-.3c-.061-.05-.07-.1,0-.123.089-.027.185-.015.275-.036.074-.017.106-.081.108-.186,0-.162-.169-.195-.151-.374s0-.357.005-.535.112-.148.2-.158c.022,0,.06-.1.054-.109C137.676,3.4,137.606,3.226,137.426,3.268ZM118.459-1.076a.138.138,0,0,1-.236,0,.084.084,0,0,1,0-.06.136.136,0,0,1,.235,0C118.463-1.122,118.458-1.1,118.459-1.076Zm.094-18.336a.5.5,0,0,1-.069-.136.2.2,0,0,1,.088-.223,1.119,1.119,0,0,1,.049.224C118.622-19.5,118.577-19.457,118.553-19.412Zm.165-6.638a.356.356,0,0,1-.186,0c-.083-.039-.045-.147-.047-.227,0-.02.027-.042.042-.063a.6.6,0,0,1,.238.236A.079.079,0,0,1,118.718-26.051ZM122.335-14.5a.131.131,0,0,1-.067.06l-.039-.389a.455.455,0,0,1,.069.1A.359.359,0,0,1,122.335-14.5Zm-1.19,4.913a1.843,1.843,0,0,1-.152-.168c-.052-.057-.089-.11-.012-.185.054-.052.094-.128.149-.179s.2.021.213.128c0,.056,0,.115,0,.173,0,.029,0,.057,0,.086C121.336-9.634,121.208-9.536,121.145-9.59ZM121.4,2.877a.29.29,0,0,1-.047-.226.249.249,0,0,1,.417,0,.106.106,0,0,1,.006.041.923.923,0,0,1-.272.216l0,0A.144.144,0,0,1,121.4,2.877Zm.116-13.658.118-.058c.112.009.152.064.139.218a.431.431,0,0,1-.066.136c-.016-.018-.033-.035-.049-.054a1.106,1.106,0,0,1-.1-.122.66.66,0,0,1-.047-.12Zm.639-8.426.05.064a.443.443,0,0,1-.1.056c-.012,0-.031-.036-.047-.056Zm-1.047,5.139a.417.417,0,0,0,.229-.293.886.886,0,0,1,.291-.48l.064.64a.294.294,0,0,0,.086.177.484.484,0,0,0,.056.132c.066.107.137.21.206.314-.12.14-.236.284-.362.414-.024.025-.1.009-.131-.019a1.444,1.444,0,0,1-.153-.185c-.151-.183-.152-.176-.344-.047a.989.989,0,0,1-.7.261,3.771,3.771,0,0,0-.5-.007c-.049,0-.211-.26-.2-.3a.616.616,0,0,1,.279-.232,1.233,1.233,0,0,1,.142,0c.129.015.213.31.352.142a.45.45,0,0,1,.383-.148c.036,0,.1-.065.1-.1-.008-.183.047-.238.2-.271Zm-.322-4.786-.083.156c-.024-.045-.07-.093-.067-.135a.388.388,0,0,1,.012-.046l.114-.036c.008.02.017.043.025.061Zm-.666-.362a.3.3,0,0,0,.036.123s-.005.007-.009.009a.461.461,0,0,1-.171.028A.292.292,0,0,0,120.117-19.216Zm.555-.728a.174.174,0,0,1,.1.1.562.562,0,0,1,0,.17.37.37,0,0,1,0,.086c0,.018-.008.039-.013.06a.32.32,0,0,0-.075.007l-.036.012a.777.777,0,0,0-.14-.179.332.332,0,0,1-.038-.039.31.31,0,0,0-.043-.054C120.5-19.865,120.551-19.981,120.672-19.944Zm-1.4-9.291.051.115-.05.064a.62.62,0,0,1-.045-.12C119.221-29.191,119.253-29.216,119.269-29.236Zm-.353.618c0-.079-.038-.188.046-.227a.356.356,0,0,1,.186,0c.018,0,.032.038.054.064-.066.079-.129.162-.2.231C118.991-28.542,118.917-28.592,118.916-28.618Zm.259,34.508a.137.137,0,0,1-.236,0,.087.087,0,0,1,0-.06.136.136,0,0,1,.236,0A.157.157,0,0,1,119.175,5.89Zm.16-24.328c-.169-.131-.153-.335-.128-.539.286-.269.053-.43-.081-.613-.071-.1-.069-.094.079-.18.06-.035.111-.091.169-.128a.648.648,0,0,1,.125-.049c.039.025.092.039.112.078a.186.186,0,0,1,.013.064.6.6,0,0,0-.083.389.32.32,0,0,1,0,.059.3.3,0,0,0,.221.32c-.129.024-.131.089-.137.346v.053a.3.3,0,0,0-.062.076.615.615,0,0,0-.13.193.8.8,0,0,1-.1-.069Zm.555,14.684a.138.138,0,0,1-.236,0,.081.081,0,0,1,0-.06.136.136,0,0,1,.236,0A.174.174,0,0,1,119.89-3.755Zm.463-4.483c-.069-.107-.159-.091-.251-.1-.179-.024-.21-.106-.194-.344a.328.328,0,0,1,.1-.215c.056-.064.093-.2.2-.058.056.072.168.07.235.134.094.087.165.211.255.306a.244.244,0,0,1,.07.171c0,.177,0,.207,0,.236-.009.114-.148.194-.217.123a1.69,1.69,0,0,1-.2-.25Zm1.813,11.632a.483.483,0,0,0-.108.386c.009.136-.035.216-.155.208-.07,0-.14,0-.21,0v0c-.093,0-.186,0-.279,0-.018,0-.046-.036-.048-.06a2.035,2.035,0,0,1-.019-.338c.006-.089.055-.157.141-.134l.018,0a.284.284,0,0,0,.253,0,1.464,1.464,0,0,0,.412-.306c0,.006.007.01.01.018A.291.291,0,0,1,122.166,3.394Zm.537-16.2a1.072,1.072,0,0,1-.067-.222c0-.042.042-.09.067-.135l.072.135c-.024.074-.047.148-.072.222Zm.213-11.075a.22.22,0,0,1-.069,0c-.046,0-.1.016-.137-.005a.172.172,0,0,1-.072-.125.5.5,0,0,1,.04-.156.7.7,0,0,0,.35.2c0,.009.005.018.008.027A1.258,1.258,0,0,1,122.916-23.878Zm.265,13.336a.137.137,0,0,1-.236,0,.083.083,0,0,1,0-.059.136.136,0,0,1,.235,0c.008.014,0,.039,0,.06Zm.286,13.751a1.13,1.13,0,0,1-.115.063c-.071.008-.142-.015-.12-.115s.179-.095.232-.005A.094.094,0,0,1,123.467,3.208Zm1.526,1.313a.664.664,0,0,1-.045-.12c0-.015.029-.039.045-.059l.051.115Zm.286,2.68a.622.622,0,0,1-.044-.12c0-.015.029-.038.044-.058l.051.115Zm3.959-.474a.136.136,0,0,1,.235,0s0,0,0,.007a.324.324,0,0,0-.064.006l-.168.052,0,0A.082.082,0,0,1,129.238,6.727Zm3.339-.419a.637.637,0,0,1-.044-.12c0-.015.029-.039.044-.058a.585.585,0,0,1,.045.12c0,.015-.029.039-.045.059ZM120.967-28.38a.423.423,0,0,0,.326,0c.106-.049.033-.208.051-.315a.139.139,0,0,0-.107-.179,1.459,1.459,0,0,0-.261,0c-.017,0-.1-.014-.146.031a.282.282,0,0,0-.051.222A.454.454,0,0,0,120.967-28.38ZM147.118-.266a.275.275,0,0,0-.1-.216.221.221,0,0,1-.038-.236c.166-.149.134-.358.135-.561,0-.238,0-.476,0-.714a.706.706,0,0,0-.056-.239,1.1,1.1,0,0,1-.007-.894,1,1,0,0,0,.061-.415q0-2.991,0-5.982c0-.114.018-.28-.033-.333-.137-.143-.107-.315-.108-.485,0-.357,0-.714,0-1.072,0-.2.042-.42-.136-.554.009-.14-.052-.291.038-.42a.484.484,0,0,0,0-.614.311.311,0,0,1-.027-.231c.215-.242.117-.553.118-.831,0-.152-.171-.258-.138-.463a1.451,1.451,0,0,0,0-.444c-.034-.207.119-.3.145-.463.013-.086.033-.218,0-.261a1.064,1.064,0,0,1-.137-.736c0-.476,0-.952,0-1.428,0-.141.069-.336-.045-.415-.208-.142.115-.253-.008-.394-.077-.087-.092-.253-.161-.357-.058-.089-.035-.121.007-.2.063-.112.089-.259.159-.361.093-.137.029-.283.052-.422-.2-.16-.139-.412-.143-.64s0-.476,0-.714v-.625c0-.238,0-.475,0-.713-.287-.191.11-.368.009-.572-.043-.088.016-.281-.033-.332-.163-.166-.11-.374-.115-.572-.007-.267,0-.535,0-.8-.207-.23-.133-.536-.142-.819-.005-.178,0-.357,0-.536a1.278,1.278,0,0,0-.01-.439.774.774,0,0,1-.134-.469.159.159,0,0,0,0-.087,3.841,3.841,0,0,1-.242-.324.319.319,0,0,1-.03-.1h.06a.3.3,0,0,0,.3-.3.3.3,0,0,0-.3-.3h-.168c-.027-.067-.015-.143.088-.239.071-.067-.012-.259-.1-.264-.024,0-.047,0-.071,0-.323-.007-.666.09-.9-.34-.03-.056-.183-.033-.273-.011-.072.018-.061.137-.09.207a1.054,1.054,0,0,0-.142.555c.01.094-.165.177-.218.112-.119-.145-.238-.291-.346-.448a.127.127,0,0,1-.014-.061l.366-.2a.3.3,0,0,0,.123-.406.3.3,0,0,0-.407-.123l-.275.147a.35.35,0,0,1-.171-.15c-.111.025-.246-.07-.33.078-.124.216-.392-.031-.492.25-.006.018-.039.028-.06.029-.1,0-.191,0-.286,0s-.179.026-.178.19-.135.228-.209.336c-.047.069-.211-.021-.216-.12a.971.971,0,0,0-.114-.483,1.959,1.959,0,0,1-.068-.586c-.009-.063-.058-.044-.1.024a.23.23,0,0,1-.095.076c-.139-.212-.27-.2-.4.011-.091.15-.2.241-.364.2a.389.389,0,0,0-.143,0,.483.483,0,0,0-.293.325,2.916,2.916,0,0,0,.007.623c.051.247-.173.325-.158.554.026.384.011.773,0,1.16a.266.266,0,0,0,.1.218c.06.054.063.081,0,.131a.673.673,0,0,0-.1.125c-.185.25-.186.264-.018.494.048.066.151.148.142.185a.665.665,0,0,1-.16.255.408.408,0,0,0-.1.307q.006,2.187,0,4.374c0,.176.088.178.185.18h.072c.024,0,.053-.011.07,0a.764.764,0,0,1,.1.1,1.7,1.7,0,0,0-.15.191c-.042.073-.063.077-.1.011-.061-.1-.16-.189-.162.027-.01,1.1.005,2.2-.011,3.3a.881.881,0,0,0,.24.685.24.24,0,0,1,.049.149.424.424,0,0,1-.049.151c0,.006-.033,0-.049-.009-.183-.092-.185-.092-.185.067,0,.387-.015.775,0,1.16.019.366-.1.758.132,1.095.042.06,0,.227-.022.335-.018.077-.106.137-.108.208-.013.327-.012.655,0,.982,0,.088.08.109.156.126.1.022.171.182.123.242a.515.515,0,0,0-.039.682.392.392,0,0,1,.032.06c-.225.2-.1.489-.133.731v.274a.914.914,0,0,0,0,.178.683.683,0,0,0,.065.145.714.714,0,0,0,.074-.131c.09-.281.143-.3.322-.09.087.1.1.115.011.248a.213.213,0,0,0-.028.062.3.3,0,0,0-.232-.117.3.3,0,0,0-.3.3v.268a.3.3,0,0,0,.086.21.351.351,0,0,0,.078.152c.062.067.1.183.06.23-.214.272-.122.605-.136.914-.012.267,0,.535,0,.8v3.214a4.389,4.389,0,0,1-.01.8c-.058.3.158.468.156.733-.007,1.1,0,2.2,0,3.3,0,.11-.053.247.049.33.173.141-.044.212-.029.316.007.047.075.078.094.128.089.228-.078.541.154.724a.685.685,0,0,1-.07.125c-.107.123-.035.279-.056.417.292.213-.006.711.286.923a3.609,3.609,0,0,1-.007.623c-.044.242.154.347.151.553a3.357,3.357,0,0,1-.009.622c-.058.272.157.42.146.642a.785.785,0,0,0,.234.685c.058.051.063.079.015.129-.069.074-.164.218.014.2.247-.027.406.31.658.2.011,0,.044.069.067.107-.04.022-.081.064-.121.063-.138,0-.156.107-.144.23a.132.132,0,0,0,.149.134,2.971,2.971,0,0,0,.5-.01c.169-.038.219.193.371.2.106,0,.123-.277.272-.1.076.092.207.112.288.2.145.154.4-.048.491.248.176-.045.367.09.536-.115a.226.226,0,0,1,.377.016c.2.3.514.346.744.567a.241.241,0,0,0,.193.069.478.478,0,0,1,.451.166c.092.114.193-.134.29-.152.143-.027.22-.064.2-.258,0-.059-.021-.147,0-.174.185-.208.134-.478.14-.734.223-.19.13-.477.142-.73.009-.208,0-.417,0-.625V6.15a3.869,3.869,0,0,0-.007-.623c-.044-.262.108-.428.144-.643a4.219,4.219,0,0,0,.007-.534c.009-.282-.065-.589.142-.819-.015-.139.039-.29-.069-.412a.448.448,0,0,1-.039-.477c.042-.1.117-.166.111-.3-.01-.237.018-.479-.008-.713-.029-.253.116-.434.137-.643.038-.411.005-.832.013-1.248Zm-6.844-19.54c-.022-.1.049-.123.119-.115a1.136,1.136,0,0,1,.116.063.081.081,0,0,1,0,.058c-.053.089-.211.092-.231,0Zm.473,11.669a.758.758,0,0,1-.139,0,.34.34,0,0,1-.138,0c-.027-.013-.044-.071-.055-.114,0-.013.029-.056.047-.058a1.337,1.337,0,0,1,.279,0c.022,0,.043.07.053.113,0,.013-.028.054-.047.058Zm4.273-8.387c.025-.006.061.054.1.089-.176.134-.232.4-.446.446-.163.032-.262-.064-.364-.2s0-.148.049-.157c.1-.019.193-.01.182-.184s.09-.195.183-.173.156.216.3.178Zm-.791-1.3.015-.009.136.227c-.035.224-.155.361-.346.366-.046,0-.093,0-.14,0-.093,0-.186,0-.279,0-.046,0-.1-.154-.078-.214.078-.176.162-.331.357-.326A.5.5,0,0,0,144.229-17.827ZM143.9-8.144c-.144.218-.191.244-.383.066-.087-.081-.251.023-.269-.186a.823.823,0,0,1,0-.259.391.391,0,0,1,.055-.117.445.445,0,0,0,.381.185l.06,0v-.033l.016.019v.012l.007,0,.106.132a.515.515,0,0,1,.04.066c.03.083.012.073-.018.118Zm-.16-7.135c-.138.049-.22-.036-.2-.221a.4.4,0,0,1,.069-.135.359.359,0,0,1,.047.061c.042.085.15.111.142.238C143.778-15.314,143.763-15.287,143.744-15.28Zm-.321-4.161c-.033-.039-.063-.084-.1-.12-.061-.061-.078-.129,0-.179a.144.144,0,0,1,.134,0,.2.2,0,0,1,.077.213l-.064.134a.6.6,0,0,1-.049-.048Zm-.019-2.444a.38.38,0,0,0,.37-.176c.022-.026.1-.012.131.015s.043.093.062.142c.038.194-.219.233-.152.461.016.054-.1.095-.169.094s-.151-.01-.2.033a3.409,3.409,0,0,0-.258.3.216.216,0,0,1-.032-.029.616.616,0,0,0-.007-.665C143.238-21.76,143.3-21.908,143.4-21.885Zm-.569,8.929c-.067.166-.114.279-.149.357l-.007,0a.209.209,0,0,0-.03-.018c.01,0,.029-.006.029-.064,0-.24.012-.266.156-.273Zm-.159.36s0,.01,0,.015c-.056.123-.075.145-.082.139-.086-.063-.027-.114.019-.155a.051.051,0,0,1,.06,0Zm.27-.292a.088.088,0,0,1-.011.055c-.062.08-.124.158-.191.231a.038.038,0,0,1-.03.01c.162-.335.2-.32.232-.3Zm-1.223-13.075a1.145,1.145,0,0,1,.1-.12.541.541,0,0,1,.1-.059c.015.049.03.1.046.148-.007.14-.051.19-.174.174-.038,0-.073-.054-.109-.083C141.694-25.922,141.708-25.943,141.723-25.963Zm-.717,8.754a.314.314,0,0,1,.1.054c.128.147.163.237.146.351-.031.024-.08.075-.089.066a.849.849,0,0,1-.19-.242C140.945-17.033,140.99-17.131,141.006-17.209Zm.313,22.649-.05-.064.05-.115c.016.02.048.044.045.058A.612.612,0,0,1,141.319,5.44Zm.34-15.256c0,.03-.073.064-.114.071a1.328,1.328,0,0,1-.214,0,1.657,1.657,0,0,1-.285-.005c-.032-.005-.07-.074-.08-.122a.417.417,0,0,1,.019-.166c.005-.025.038-.065.047-.06.168.077.222-.183.371-.188s.207-.222.323-.315c.015-.012.081.03.091.063C141.91-10.251,141.685-10.067,141.659-9.816Zm.185-6.534c-.047,0-.094,0-.213,0a.855.855,0,0,1-.2-.045.184.184,0,0,1-.038-.148.8.8,0,0,1,.431-.513c.13-.04.125-.125.14-.242a.13.13,0,0,1,.152-.126c.084.009.107.065.134.157.075.256.084.255.276.121.144-.1.145-.1.149.083,0,.06-.005.12,0,.177.013.113-.04.168-.114.175-.118.012-.238,0-.355.008-.037,0-.1.067-.1.094.029.284-.121.264-.267.259Zm.313,24.443-.051-.064a.443.443,0,0,1,.1-.056c.012,0,.032.036.047.056l-.092.064Zm.614-19.8a2.091,2.091,0,0,0-.214,0c-.145.015-.2-.139-.274-.239a.346.346,0,0,1-.009-.233c.032-.108.134-.087.187-.059.373.2.374.208.68.036a.339.339,0,0,1,.187-.04.289.289,0,0,0,.014.049.609.609,0,0,0,.1.139c-.106.157-.2.337-.391.346-.095.005-.19,0-.285,0ZM143.818,2.3a.927.927,0,0,0-.152.373c-.013.128-.157.077-.258.087s-.161-.052-.157-.2c0-.1-.053-.129-.128-.162-.146-.063-.191-.182-.135-.288.047-.09.141-.112.24.005.138.165.24.14.35-.026a.084.084,0,0,1,.057-.041.26.26,0,0,1,.135.022A.191.191,0,0,1,143.818,2.3Zm.125-1.748a1.063,1.063,0,0,1-.115.063c-.071.008-.141-.015-.12-.115s.179-.095.232,0A.084.084,0,0,1,143.943.555Zm.084-12.793a.544.544,0,0,0-.091-.171.315.315,0,0,1,.292.049.081.081,0,0,1,0,.058c-.06.03-.122.054-.154.068a.242.242,0,0,0-.046,0Zm.586,1.954c-.069.066-.1.21-.213.184-.086-.019-.127.057-.165.12s-.072.081-.1,0a.293.293,0,0,1-.022-.157.4.4,0,0,1,.42-.318l.12.053c-.013.04-.018.1-.041.118Zm.494-2.766a.147.147,0,0,1-.1.089,2.069,2.069,0,0,1-.281,0,1.427,1.427,0,0,1-.21,0,.131.131,0,0,1-.114-.169c.007-.052.017-.131.045-.147a2.359,2.359,0,0,1,.422-.211c.083-.029.2-.04.242.089a.94.94,0,0,1,0,.347Zm.555-1.039a.137.137,0,0,1-.236,0,.079.079,0,0,1,0-.059.136.136,0,0,1,.236,0A.171.171,0,0,1,145.661-14.089Zm.572-4.287a.137.137,0,0,1-.236,0,.087.087,0,0,1,0-.06.136.136,0,0,1,.236,0A.172.172,0,0,1,146.233-18.376Zm30.9,4.529h-.169c-.032-.081.024-.145.084-.231.036-.051.015-.169.013-.258a.6.6,0,0,1,.1-.409.2.2,0,0,0,.027-.234c-.078-.1-.133-.228-.265-.272-.148-.05-.152-.1-.07-.173a.7.7,0,0,0,.152-.846.789.789,0,0,1-.065-.19h.048a.3.3,0,0,0,.3-.3.3.3,0,0,0-.3-.3h-.08v0c.019-.159.074-.368-.063-.494-.157-.148.022-.42-.149-.55-.057-.043-.069-.086-.03-.126.157-.161.1-.21-.068-.227-.075-.008-.128-.069-.111-.179a1.067,1.067,0,0,1,.046-.335,1.016,1.016,0,0,0,.024-.889c-.086-.173,0-.38-.1-.484-.156-.172-.1-.372-.119-.569-.02-.222-.229-.38-.142-.64a1.377,1.377,0,0,0-.251-.286c-.1-.062-.157.083-.234.14-.046.034-.13.011-.188-.016-.026-.012-.037-.1-.039-.151,0-.1.043-.158.127-.159a.932.932,0,0,0,.143,0c.043-.008.1-.016.123-.052a.878.878,0,0,0-.039-.652c-.2-.173-.157-.469-.259-.672a7.69,7.69,0,0,0-.8-1.732.4.4,0,0,0-.073-.25.493.493,0,0,0-.173-.438.6.6,0,0,0-.411-.329,1.742,1.742,0,0,0-.075-.261.3.3,0,0,0-.28-.2.681.681,0,0,0-.2-.584,5.387,5.387,0,0,1-.456-.566.315.315,0,0,0-.306-.162,2.261,2.261,0,0,1-.357,0c-.082,0-.116-.063-.11-.153a.3.3,0,0,0,.354-.195.3.3,0,0,0-.187-.381.514.514,0,0,0-.33,0,.816.816,0,0,1-.307-.293.128.128,0,0,0-.125-.044c-.165.043-.262-.076-.362-.209a.387.387,0,0,0-.165-.146c-.109-.032-.238.043-.323-.108-.072-.128-.214-.05-.3-.184-.117-.181-.393.055-.486-.25-.206-.027-.435.087-.616-.077-.2-.18-.409-.067-.612-.1-.117-.018-.239.011-.357-.005-.253-.037-.524.109-.758-.082s-.507-.035-.756-.094c-.258-.3-.58-.184-.87-.162-.194.015-.262-.248-.443-.2a.193.193,0,0,1-.191-.049c-.109-.187-.3-.044-.382-.137a.48.48,0,0,0-.451-.166c-.047,0-.121.019-.137-.01-.152-.285-.434-.05-.575-.2-.2-.208-.4-.1-.6-.149a.491.491,0,0,1-.183-.091.523.523,0,0,0-.531-.043c-.052.019-.036.075.019.126.03.027.069.1.06.121a.118.118,0,0,1-.182.062c-.14-.24-.338-.168-.519-.171-.131,0-.174.14-.1.31a.907.907,0,0,1,.1.214c.024.16-.08.154-.169.2a.864.864,0,0,0-.265.275c-.083.115-.112,0-.154-.043a.386.386,0,0,1-.129-.292.125.125,0,0,0-.148-.131c-.118.011-.257-.038-.348.025s-.105.233-.159.354c-.07.157-.079.371-.294.381-.066,0-.129.168-.237.134s-.083-.179-.111-.28c-.022-.081-.063-.083-.1-.025s-.066.12-.1.121c-.31.01-.62,0-.929.01-.119,0-.142-.165-.227-.176-.2-.026-.424.053-.584-.185-.241.07-.44-.093-.657-.171-.149-.053-.308.022-.457-.152-.1-.115-.32.019-.434-.2-.023-.044-.135-.05-.186.035a.213.213,0,0,1-.245.126.445.445,0,0,0-.493.248,8.2,8.2,0,0,1-.553.7c-.186.218-.231.567-.454.748l.134.19c-.221.183-.262.537-.455.746a.407.407,0,0,0-.117.3c0,.166.052.343-.081.494-.1.109-.07.324-.2.431a.281.281,0,0,0-.138.281c.035.2-.1.31-.135.465s.018.356-.133.468c.044.275-.139.468-.163.719-.016.166.043.339-.085.5s-.032.394-.059.591a.126.126,0,0,1-.047.064c-.19.167,0,.539-.237.681a2.138,2.138,0,0,1-.135.821c-.05.272.03.567-.142.826a.757.757,0,0,0,0,.435c.036.208-.134.3-.145.463a2.3,2.3,0,0,0,0,.534c.042.235-.13.361-.145.553s0,.416,0,.624c-.2.16-.138.413-.143.64,0,.208,0,.417,0,.625,0,.058.016.144-.009.171-.24.264-.1.609-.134.915-.052.422.13.883-.143,1.265,0,.238,0,.476,0,.714s-.232.378-.142.64q0,2.455,0,4.91a.642.642,0,0,0,.124.478.412.412,0,0,1,.013.331c-.178.221-.092.5-.145.736-.065.3.145.471.169.728.01.107.17.192.011.317a3.651,3.651,0,0,0-.007.956c.18.14.105.366.122.562.019.223-.077.482.13.646,0,.206.008.412.012.618s.193.31.149.553a.424.424,0,0,0,.327.544.128.128,0,0,1,.046.024.862.862,0,0,0-.159.123l-.024.02a.505.505,0,0,0-.2.525,2.009,2.009,0,0,0,.139.365l.02.045a.445.445,0,0,0,.271.262.58.58,0,0,0,.145.518.651.651,0,0,0,.143.55c-.041.22.185.307.158.553a.727.727,0,0,0,.168.518c.193.175.007.473.189.632.061.053.059.207.109.294.067.119.22.216.222.327.007.3.156.23.29.243s.208.141.125.291c-.066.12-.179.216-.081.369.086.134.176.282.351.234a.268.268,0,0,1,.211,0c.1.069.237.169.248.275a.853.853,0,0,1-.044.592c-.039.06-.1.1-.021.193.175.2.339.418.508.629-.023.29.2.374.3.557.312.108.481.441.7.7.108.126.2.123.295-.013.043-.065.066-.079.1-.03.083.106.156.26.257.3a1.432,1.432,0,0,1,.686.521c.2.019.338.265.578.219.19-.036.433-.129.583.16a1.219,1.219,0,0,0,.426-.005c.2-.074.244.255.446.2a.476.476,0,0,1,.582.166c.241-.067.44.1.658.167s.449-.029.661.177c.111.108.322-.079.46.112s.393-.038.487.254a.418.418,0,0,1,.446.176c.024.038.138.032.185-.063.079-.161.276-.07.349-.25,0,0,.081.027.091.057a.836.836,0,0,1,0,.176c.013.239.072.3.258.262a.36.36,0,0,0,.179-.1c.083-.089.159-.108.246-.024.053.051.082.137.172.132.214-.01,1.12,0,1.359,0,.082-.2.3-.138.4-.309a.131.131,0,0,1,.125-.045c.273.063.471-.155.7-.271a3.539,3.539,0,0,1,.781-.446c.176-.233.446-.255.638-.443a3.154,3.154,0,0,1,.544-.517c.263-.159.368-.61.706-.679.219-.273.431-.557.66-.816a.486.486,0,0,0,.1-.4c-.008-.109.038-.187.109-.18a.417.417,0,0,0,.429-.225,1.383,1.383,0,0,1,.2-.252.453.453,0,0,0,.122-.386.278.278,0,0,1,.03-.16c.147-.195.3-.381.453-.57.417-.019.355-.637.649-.81,0-.142.05-.289-.03-.419-.029-.047-.078-.078-.1-.129-.047-.118.01-.262.106-.268s.191.006.286,0a.38.38,0,0,0,.313-.381c.007-.273.086-.439.3-.511.042-.015.116-.043.116-.065,0-.236.219-.368.171-.632-.039-.214-.009-.4.229-.412.037,0,.047-.214.106-.286.135-.167.1-.278-.012-.442s-.038-.29.165-.3c.091-.006.189.024.224-.132.018-.079.03-.188.076-.224.171-.135.167-.436.307-.55.218-.179.119-.5.253-.678.12-.159.01-.38.1-.481.18-.2.108-.435.116-.658a.121.121,0,0,0-.143-.137.35.35,0,0,1-.142,0,.546.546,0,0,1-.122-.064c.024-.037.053-.111.069-.106.143.039.194-.146.3-.18.089-.029.2.016.272-.04s.05-.23.111-.287a.874.874,0,0,0,.235-.778c-.011-.11-.035-.244.064-.321.2-.157.162-.47.267-.662a1.413,1.413,0,0,0,.089-.671c0-.031-.058-.077-.1-.1-.166-.112-.159-.1-.086-.219.113-.178.307-.275.334-.542.013-.137.17-.195.143-.374a1,1,0,0,1,0-.355c.029-.129.148-.2.145-.374,0-.25-.088-.54.136-.729q0-.536,0-1.071c.276-.281.11-.664.136-1s.016-.682.015-1.024h.063a.3.3,0,0,0,.3-.3.3.3,0,0,0-.3-.3Zm-24.227,11.9c.015-.014.03-.027.044-.041a.354.354,0,0,0,.046.018.7.7,0,0,1-.047.12h0c-.015-.033-.031-.067-.041-.1Zm.258-4.906a.124.124,0,0,1,.137.137.413.413,0,0,1-.071.218c-.019.029-.087,0-.134,0a.333.333,0,0,1-.137,0c-.028-.013-.041-.072-.061-.11.092-.074.126-.241.266-.245Zm-.693-3.508a.139.139,0,0,1,.049-.058.1.1,0,0,1,.07,0c.207.048.278.3.422.445l.017.016c-.014,0-.035,0-.056.043-.021.011-.043.033-.061.03C152.694-9.932,152.589-10.154,152.474-10.359Zm3.029,1.87c-.012,0-.031-.036-.047-.056a.4.4,0,0,1,.1-.056c.012,0,.031.036.047.056A.4.4,0,0,1,155.5-8.489Zm.312-10.688a1.1,1.1,0,0,1-.1.123l-.049.061-.083-.156c.024-.06.04-.165.085-.19s.121.026.184.043a.619.619,0,0,1-.042.12Zm.547,1.935c-.012,0-.031-.036-.047-.056a.416.416,0,0,1,.1-.055c.012,0,.031.036.047.055A.4.4,0,0,1,156.362-17.241Zm.35-12.471c-.072-.017-.12-.064-.112-.175.009-.135.066-.2.178-.18a.15.15,0,0,1,.112.176C156.88-29.756,156.823-29.686,156.712-29.712ZM171.373-5.586c-.022,0-.037-.024-.028-.094,0-.037.059-.069.1-.094.017-.012.044,0,.066,0-.052.07-.095.132-.133.19Zm-.4-7.14,0,0a.093.093,0,0,0,.013-.014c0,.01.009.021.013.03Zm-.293.542.019,0a.938.938,0,0,0,.126.066c0,.056,0,.113,0,.17v.063c-.041-.007-.083-.064-.16-.173-.038-.055-.047-.089.016-.121Zm.4,5.041c.021-.1.178-.095.231,0a.081.081,0,0,1,0,.058,1.128,1.128,0,0,1-.115.063C171.13-7.019,171.06-7.043,171.082-7.143Zm-.2-15.419c.069-.018.136,0,.179.109a.635.635,0,0,1-.18.061c-.035,0-.072-.054-.108-.084C170.8-22.506,170.838-22.552,170.877-22.562Zm-.18,8.569.05.063-.05.115c-.016-.02-.047-.044-.045-.059A.623.623,0,0,1,170.7-13.992Zm-.6-8.718c.011-.01.032,0,.048-.005a.229.229,0,0,1,0,.3.045.045,0,0,1-.047,0A.226.226,0,0,1,170.1-22.711ZM162.87,5.061c-.053.089-.211.092-.231,0s.049-.123.119-.115a1.136,1.136,0,0,1,.116.063.081.081,0,0,1,0,.058Zm4.07-6.834c-.041.2-.216.31-.184.537.005.036-.055.088-.087.129l-.606.758c-.033.362-.324.483-.451.75a10.943,10.943,0,0,1-1.321,1.813.922.922,0,0,0-.117.3c-.038.117-.159.2-.25.282-.052.047-.151.051-.174.108-.107.264-.373.22-.505.435-.1.163-.235.294-.345.45-.024.034.011.125-.009.171-.05.115-.1.047-.149-.015-.075-.1-.157-.111-.244-.024a1.089,1.089,0,0,0-.1.126c-.08.111-.159.2-.3.185a2.915,2.915,0,0,0-.5,0,.179.179,0,0,0-.118.07c-.1.124-.213.177-.29.018s.054-.258.133-.364c.15-.2.143-.2.03-.494a4.956,4.956,0,0,0-.21-.6,2.317,2.317,0,0,0-.4-.506.563.563,0,0,1-.139-.468c0-.086.018-.23-.014-.253-.208-.144-.069-.439-.193-.623a1.375,1.375,0,0,1-.212-.51c-.03-.171,0-.353-.147-.462.088-.337-.245-.567-.148-.905.06-.208-.183-.28-.14-.46.059-.24-.171-.349-.143-.551s-.126-.309-.138-.463c-.018-.213-.11-.215-.231-.233-.026,0-.052-.087-.063-.139a.168.168,0,0,1,.093-.2c.042-.018.1,0,.133-.027a.25.25,0,0,0,.057-.145c.018-.183-.169-.25-.157-.46.007-.112-.154-.08-.244-.084a1.089,1.089,0,0,1-.214-.005.171.171,0,0,1-.094-.106.259.259,0,0,1,.011-.168.571.571,0,0,1,.149-.19c.332-.247.258-.651.265-1.025-.25-.287-.143-.666-.131-1,.012-.308-.226-.494-.166-.822a5.093,5.093,0,0,0,.008-.889c-.2-.16-.09-.433-.152-.635a1.654,1.654,0,0,0-.247-.589.292.292,0,0,1,0-.228c.21-.162.01-.547.249-.68,0-.207.005-.414.006-.621,0-.684-.018-1.369.008-2.052.013-.363-.148-.773.135-1.086,0-.654,0-1.309-.006-1.963,0-.064-.084-.126-.129-.19.142-.089.1-.312.2-.43s.081-.225.005-.373c-.117-.229-.106-.278.016-.538.03-.065.063-.121.012-.123-.2-.008-.228-.206-.3-.372s-.08-.19.036-.205a.531.531,0,0,1,.142,0,.123.123,0,0,0,.155-.12,1.321,1.321,0,0,1,.139-.556,2,2,0,0,0,.01-.531,1.459,1.459,0,0,1,.143-.907c0-.357,0-.714,0-1.071a.425.425,0,0,1,.314-.388.279.279,0,0,1,.071,0,.377.377,0,0,0,.469-.372.487.487,0,0,1,.165-.272,3.743,3.743,0,0,1,.675-.767c.264-.177.389-.52.634-.673.169-.106.29-.3.447-.373.193-.084.288-.326.445-.376s.232-.176.343-.271c.091-.077.208-.111.29-.2a1.128,1.128,0,0,1,.4-.324c.142-.054.194-.335.4-.312.022,0,.073-.086.072-.129-.008-.215.1-.254.225-.217.186.052.253-.265.436-.2.155-.227.4-.233.589-.381a1.319,1.319,0,0,1,.539-.316c.132-.292.464-.065.6-.357.111.023.235-.056.332.08a4.356,4.356,0,0,1,.808,1.188c.223.114.171.462.35.626a2.1,2.1,0,0,1,.37.6c.1.2.242.349.2.618-.005.035.075.079.087.129.049.214.2.375.205.609.184.124.073.393.16.538.111.184.156.4.259.584-.106.267.181.4.143.64a1.668,1.668,0,0,1,.292,1.012c.012.249-.086.513.1.754.14.182-.071.53.156.721.026.021.022.106.025.162a1.637,1.637,0,0,0,.042.6.925.925,0,0,1,.1.488,3.014,3.014,0,0,0,.01.621,2.236,2.236,0,0,1,.138.733c-.018.235,0,.476,0,.713v.8c0,.476.008.952,0,1.428-.005.251.086.541-.14.73v.714c-.276.281-.118.665-.133,1a4.4,4.4,0,0,1-.143.731,3.788,3.788,0,0,0-.011.711.2.2,0,0,1-.016.08.193.193,0,0,1-.05.064c-.2.168-.2.419-.234.687-.03.234-.129.465-.174.71-.013.074-.109.1-.1.216a1.159,1.159,0,0,1-.007.44c-.044.124-.165.2-.134.378a.388.388,0,0,1-.1.3c-.069.1-.067.253-.147.373a.9.9,0,0,0-.163.525c.029.247-.212.329-.157.553-.126.1-.108.316-.2.429a.627.627,0,0,0-.091.4.268.268,0,0,1-.057.146,2.356,2.356,0,0,0-.375.788c-.142.378-.391.688-.522,1.069C167.157-2.106,166.979-1.965,166.94-1.773Zm3.369-.846c-.009-.031-.019-.06-.03-.088.013.028.024.056.036.084l-.007,0Zm-1.545,6.443a.462.462,0,0,1-.024.158c-.085.142-.109-.027-.144-.064-.108-.113-.193-.261-.3-.364-.086-.078-.228-.043-.287-.191-.022-.057-.15-.077-.046-.186.053-.057.1-.124.15-.186.087.169.329.089.36.292.029.188.082.217.218.24.1.017.077.185.077.3Zm.572-1.7c-.014.089-.051.159-.137.137-.111,0-.167-.08-.146-.219.014-.09.051-.149.14-.14C169.3,1.912,169.356,1.984,169.336,2.123Zm.253-.762c-.033,0-.072-.053-.108-.083.036-.03.075-.087.108-.083a.654.654,0,0,1,.178.083A.654.654,0,0,1,169.589,1.362Zm.443-2.913c-.11.2-.307.231-.451.366-.084.068-.1-.052-.144-.094-.09-.083-.142-.242-.286-.211-.168.372-.567-.015-.738.349-.142,0-.3.061-.419-.007a1.7,1.7,0,0,1-.36-.417c0-.006.011-.055.022-.059a1.207,1.207,0,0,0,.357-.216c.034-.026.118.052.18.081a1.949,1.949,0,0,0,.185.086c.015.006.049-.015.057-.035.1-.249.315-.058.435-.19a.677.677,0,0,1,.238-.145.5.5,0,0,0,.219-.309,1.8,1.8,0,0,1,.134-.288c.041-.11.013-.29.149-.278a1.244,1.244,0,0,0,.089.368.856.856,0,0,1,.05.17c-.121.032-.143.072-.022.223.081.1.013.362.245.318.072-.014.107.2.06.284Zm.273-5.3a.484.484,0,0,1-.253-.357c-.008-.074.054-.186.106-.177.171-.033.241.252.416.208.013,0,.04.034.047.058.016.055-.268.3-.316.267Zm.439,6.013c-.006.025-.031.042-.047.062A1.072,1.072,0,0,1,170.63-1c0-.041.043-.089.067-.135l.072.135a1.507,1.507,0,0,1-.025.16ZM171-5.244c-.03-.007-.052-.068-.078-.1.106-.1.163-.306.344-.25.022.007.056-.011.069,0a.1.1,0,0,1,0,.053C171.2-5.325,171.136-5.213,171-5.244Zm.471-.357a.1.1,0,0,0-.06.009c.144-.15.2-.126.194-.111-.012.087-.069.128-.135.1Zm.272-16.849a1.136,1.136,0,0,1-.116.063c-.071.008-.141-.015-.12-.115s.179-.095.232-.005A.09.09,0,0,1,171.746-22.45Zm2.26-3.1a.614.614,0,0,0,.111.147.3.3,0,0,0,.035.12.067.067,0,0,1-.07-.02c-.053-.049-.085-.133-.171-.117a.161.161,0,0,1-.038,0l.034-.041c.03-.036.058-.073.087-.112C174-25.573,174-25.566,174.007-25.555Zm.341,11.579c0-.166.027-.193.185-.194-.024.029-.046.059-.068.089l-.022.022a.812.812,0,0,0-.089.1.113.113,0,0,1,0-.018Zm-.074-10.555a.617.617,0,0,1-.044-.12c0-.015.029-.039.044-.058.018.038.035.077.051.115Zm-.248,18.758h.013l-.01.049h-.075A.177.177,0,0,1,174.025-5.772Zm.539-3.944a.3.3,0,0,1-.07-.212c0-.087.05-.154.137-.135a.33.33,0,0,0,.069,0,.334.334,0,0,1,.137,0,.158.158,0,0,1,.055.108.6.6,0,0,1-.146.183C174.694-9.728,174.609-9.689,174.564-9.717Zm.425-12.492c.016.019.047.044.045.058a.641.641,0,0,1-.045.12l-.051-.064Zm.072,7.859,0,0a.051.051,0,0,1,.06,0,.687.687,0,0,1,.069.1c-.027-.012-.045-.016-.069-.025a.248.248,0,0,1,.019.037.587.587,0,0,0-.079-.058c.019.005.039.013.06.021a.647.647,0,0,0-.061-.076.082.082,0,0,0-.005.051.361.361,0,0,0-.219-.057.36.36,0,0,0-.207.083c.012-.237.024-.26.178-.256C174.914-14.523,175.06-14.59,175.061-14.35Zm-.263-8.334.049-.061.083.156c-.024.06-.04.165-.085.19s-.121-.025-.184-.043a.7.7,0,0,1,.042-.12A1.039,1.039,0,0,1,174.8-22.683Zm-2.1-3.1.051.115-.051.063a.662.662,0,0,1-.045-.12C172.653-25.737,172.684-25.761,172.7-25.781Zm-.067,8.845c0-.034.065-.077.105-.089a.127.127,0,0,1,.171.093,1.918,1.918,0,0,1,.005.35.546.546,0,0,1,0,.174.176.176,0,0,1-.106.091.125.125,0,0,1-.171-.092A3.107,3.107,0,0,1,172.633-16.936Zm-.792,8.3-.05-.115.05-.064a.587.587,0,0,1,.045.12c0,.014-.029.038-.045.058Zm.216-14.21c0-.056-.018-.137,0-.167.125-.16.228-.39.46-.269l.106.091c-.016.021-.033.059-.049.058-.184-.007-.27.173-.383.3-.066.075-.132.067-.139-.014Zm.57,21.714c-.089.009-.126-.05-.14-.14-.021-.139.035-.219.143-.219.084,0,.131.046.142.137C172.787-1.212,172.735-1.14,172.626-1.13Zm.431-8.374c0,.055-.01.161-.146.159s-.292-.074-.292.228c0,.087-.11.175-.171.262-.032.046-.057.021-.1-.035-.085-.106-.134-.2-.094-.251.094-.117.142-.229.031-.368-.067-.084-.134-.166-.2-.252a.082.082,0,0,1,0-.06c.011-.024.032-.059.049-.06.26,0,.521,0,.781,0,.135,0,.148.1.148.225V-9.5Zm.145-14.131c-.108-.01-.165-.083-.143-.222.013-.089.051-.149.14-.14.108.01.161.081.145.222C173.323-23.687,173.292-23.626,173.2-23.635Zm.92,19.1c-.047.035-.13.02-.191-.058-.1-.122-.077-.14-.024-.386.012-.054.021-.1.032-.145h.006a1,1,0,0,1,.148,0,.121.121,0,0,1,.067.021l-.016.02a.273.273,0,0,0-.067.3c.027.08.192.129.045.241Zm.579-.888c0,.008-.022.006-.041,0A.693.693,0,0,0,174.6-5.5l.043-.213a.3.3,0,0,0-.022-.172c.03-.08.057-.163.09-.241.01-.024.094-.02.132,0s.081.1.073.124c-.063.2-.138.391-.213.584Z" transform="translate(409.925 55.376)" fill="#373a48"/>
    <g id="Pizza" transform="translate(344.713 16)">
      <path id="Path_1669" data-name="Path 1669" d="M65.879,33.267A28.151,28.151,0,1,0,43.046,65.879,28.154,28.154,0,0,0,65.879,33.267Zm-5,10.663-18.1-6.591L57.533,24.961a23.3,23.3,0,0,1,3.342,18.97ZM54.514,21.369,39.76,33.747,36.411,14.76A23.427,23.427,0,0,1,54.514,21.369ZM31.79,15.578,35.14,34.563l-18.1-6.587A23.416,23.416,0,0,1,31.79,15.578Zm-16.356,16.8,18.1,6.59L18.781,51.355a23.282,23.282,0,0,1-3.348-18.973ZM21.8,54.945,36.552,42.568,39.9,61.548A23.413,23.413,0,0,1,21.8,54.945Zm22.72,5.787L41.172,41.751l18.094,6.585A23.394,23.394,0,0,1,44.52,60.733Z" transform="translate(-10 -10)" fill="#f90"/>
      <path id="Path_1670" data-name="Path 1670" d="M35.814,29.632a2.347,2.347,0,1,1-3.306-.292A2.347,2.347,0,0,1,35.814,29.632Z" transform="translate(-16.416 -15.565)" fill="#f90"/>
      <path id="Path_1671" data-name="Path 1671" d="M65.81,65.38a2.347,2.347,0,1,1-3.306-.288A2.342,2.342,0,0,1,65.81,65.38Z" transform="translate(-25.298 -26.15)" fill="#f90"/>
      <path id="Path_1672" data-name="Path 1672" d="M25.629,50.755a2.346,2.346,0,1,1-1.906,2.719A2.348,2.348,0,0,1,25.629,50.755Z" transform="translate(-14.052 -22.057)" fill="#f90"/>
      <path id="Path_1673" data-name="Path 1673" d="M71.585,42.652a2.346,2.346,0,1,1-1.9,2.719A2.344,2.344,0,0,1,71.585,42.652Z" transform="translate(-27.661 -19.657)" fill="#f90"/>
      <path id="Path_1674" data-name="Path 1674" d="M38.827,70.136a2.346,2.346,0,1,1,1.4,3.011A2.347,2.347,0,0,1,38.827,70.136Z" transform="translate(-18.493 -27.35)" fill="#f90"/>
      <ellipse id="Ellipse_81" data-name="Ellipse 81" cx="2.347" cy="2.347" rx="2.347" ry="2.347" transform="translate(31.426 10.377)" fill="#f90"/>
    </g>
  </g>
</svg>
