<svg xmlns="http://www.w3.org/2000/svg" width="172.672" height="55.319" viewBox="0 0 172.672 55.319">
  <path id="Subtraction_28" data-name="Subtraction 28" d="M18034.115,3719.729h0L17880,3713.015l7.908-38.728,5.629-.338a6.507,6.507,0,0,0,4.826,7.537,6.615,6.615,0,0,0,1.223.113,7.974,7.974,0,0,0,7.377-5.913,7.7,7.7,0,0,0,.268-2.558l75.137-4.5a4.346,4.346,0,0,0-1.416,1.3,3.725,3.725,0,0,0,.734,5.419,3.321,3.321,0,0,0,1.953.6,4.488,4.488,0,0,0,3.6-1.939,4.367,4.367,0,0,0,.783-3.374,3.111,3.111,0,0,0-1.518-2.049,4.005,4.005,0,0,0-.365-.184l48.807-2.926a6.232,6.232,0,0,0,2.605,6.15,5.015,5.015,0,0,0,3.166,1.06c2.59,0,5.316-1.677,7.117-4.377a12.327,12.327,0,0,0,1.477-3.695l3.363-.2Zm-127.262-15.95a3.04,3.04,0,0,0-3.215,2.82,3.593,3.593,0,0,0,3.3,3.6,3.189,3.189,0,0,0,.416.023,3.025,3.025,0,0,0,3.182-2.818,3.589,3.589,0,0,0-3.3-3.6A3.713,3.713,0,0,0,17906.854,3703.779Zm-15.537-11.792a1.8,1.8,0,0,0-1.977,1.713,2.153,2.153,0,0,0,2,2.1c.072,0,.152.009.227.009a1.863,1.863,0,0,0,1.975-1.713,1.772,1.772,0,0,0-.428-1.292,2.306,2.306,0,0,0-1.57-.811C17891.469,3691.991,17891.395,3691.988,17891.316,3691.988Zm140.691-9.713a4.309,4.309,0,0,0-4.076,3.279,5.346,5.346,0,0,0,3.982,5.636,5.588,5.588,0,0,0,1.377.172,4.044,4.044,0,0,0,4.26-3.153,5.341,5.341,0,0,0-3.979-5.641A4.47,4.47,0,0,0,18032.008,3682.275Z" transform="translate(-17880.002 -3664.41)" fill="#f9b200"/>
</svg>
