<svg xmlns="http://www.w3.org/2000/svg" width="117" height="40" viewBox="0 0 117 40"><g><g><path fill="#f9b200" d="M17.443 14.08c.045.486-.13.995-.48 1.396a2.063 2.063 0 0 1-1.553.711c-1.049 0-1.812-.717-1.812-1.706 0-.95.685-1.995 1.83-2.1.064-.006.13-.009.205-.009 1 0 1.726.686 1.81 1.707zm91.287 18.309c.092 1.782-1.263 3.395-3.02 3.595a2.995 2.995 0 0 1-.353.02c-1.623 0-2.943-1.264-2.943-2.816-.09-1.782 1.266-3.395 3.022-3.595.128-.015.255-.022.378-.022 1.608 0 2.834 1.185 2.916 2.818zm5.325 7.61l1.554-25.713a4.484 4.484 0 0 1-1.021.12c-2.299 0-4.172-1.792-4.172-3.993-.129-2.526 1.793-4.812 4.283-5.096a4.502 4.502 0 0 1 1.447.064l.327-5.38L0 6.911l5.7 27.162 45.57 2.493c.68-.915 1.576-1.546 2.593-1.824a3.784 3.784 0 0 1 1.432-.293c1.467 0 2.795.968 3.473 2.527L114.055 40z"/></g></g></svg>