<svg xmlns="http://www.w3.org/2000/svg" xmlns:xlink="http://www.w3.org/1999/xlink" width="512.001" height="14921" viewBox="0 0 512.001 14921"><svg width="14.003" height="15.997" viewBox="0 0 14.003 15.997" id="arrow-coner-down" y="0"><path data-name="Path 1200" d="M13.771 9.36a1 1 0 0 0-1.41-.13l-4.36 3.63V1a1 1 0 0 0-2 0v11.86l-4.36-3.63a1.001 1.001 0 1 0-1.28 1.54l6 5 .15.09.13.07a1 1 0 0 0 .72 0l.13-.07.15-.09 6-5a1 1 0 0 0 .13-1.41z"></path></svg><svg width="14.004" height="15.997" viewBox="0 0 14.004 15.997" id="arrow-coner-top" y="16"><path data-name="Path 5398" d="M13.772 6.637a1 1 0 0 1-1.41.13l-4.36-3.63V15a1 1 0 1 1-2 0V3.137l-4.36 3.63a1.001 1.001 0 1 1-1.28-1.54l6-5 .15-.09.13-.07a1 1 0 0 1 .72 0l.13.07.15.09 6 5a1 1 0 0 1 .13 1.41z"></path></svg><svg viewBox="0 0 129 129" width="129" height="129" id="arrow-down" y="32"><path d="M121.3 34.6c-1.6-1.6-4.2-1.6-5.8 0l-51 51.1-51.1-51.1c-1.6-1.6-4.2-1.6-5.8 0-1.6 1.6-1.6 4.2 0 5.8l53.9 53.9c.8.8 1.8 1.2 2.9 1.2 1 0 2.1-.4 2.9-1.2l53.9-53.9c1.7-1.6 1.7-4.2.1-5.8z"></path></svg><svg width="451.847" height="451.847" viewBox="0 0 451.847 451.847" id="arrow-down-fat" y="161"><path d="M225.923 354.706c-8.098 0-16.195-3.092-22.369-9.263L9.27 151.157c-12.359-12.359-12.359-32.397 0-44.751 12.354-12.354 32.388-12.354 44.748 0l171.905 171.915 171.906-171.909c12.359-12.354 32.391-12.354 44.744 0 12.365 12.354 12.365 32.392 0 44.751L248.292 345.449c-6.177 6.172-14.274 9.257-22.369 9.257z"></path></svg><svg viewBox="0 0 477.175 477.175" width="477.175" height="477.175" id="arrow-left" y="613"><path d="M145.188 238.575l215.5-215.5c5.3-5.3 5.3-13.8 0-19.1s-13.8-5.3-19.1 0l-225.1 225.1c-5.3 5.3-5.3 13.8 0 19.1l225.1 225c2.6 2.6 6.1 4 9.5 4s6.9-1.3 9.5-4c5.3-5.3 5.3-13.8 0-19.1l-215.4-215.5z"></path></svg><svg viewBox="0 0 492 492" width="492" height="492" id="arrow-left-fat" y="1091"><path d="M464.344 207.418l.768.168H135.888l103.496-103.724c5.068-5.064 7.848-11.924 7.848-19.124 0-7.2-2.78-14.012-7.848-19.088L223.28 49.538c-5.064-5.064-11.812-7.864-19.008-7.864-7.2 0-13.952 2.78-19.016 7.844L7.844 226.914C2.76 231.998-.02 238.77 0 245.974c-.02 7.244 2.76 14.02 7.844 19.096l177.412 177.412c5.064 5.06 11.812 7.844 19.016 7.844 7.196 0 13.944-2.788 19.008-7.844l16.104-16.112c5.068-5.056 7.848-11.808 7.848-19.008 0-7.196-2.78-13.592-7.848-18.652L134.72 284.406h329.992c14.828 0 27.288-12.78 27.288-27.6v-22.788c0-14.82-12.828-26.6-27.656-26.6z"></path></svg><svg viewBox="0 0 477.175 477.175" width="477.175" height="477.175" id="arrow-right" y="1583"><path d="M360.731 229.075l-225.1-225.1c-5.3-5.3-13.8-5.3-19.1 0s-5.3 13.8 0 19.1l215.5 215.5-215.5 215.5c-5.3 5.3-5.3 13.8 0 19.1 2.6 2.6 6.1 4 9.5 4 3.4 0 6.9-1.3 9.5-4l225.1-225.1c5.3-5.2 5.3-13.8.1-19z"></path></svg><svg viewBox="0 0 492.004 492.004" width="492.004" height="492.004" id="arrow-right-fat" y="2061"><path d="M484.14 226.886L306.46 49.202c-5.072-5.072-11.832-7.856-19.04-7.856-7.216 0-13.972 2.788-19.044 7.856l-16.132 16.136c-5.068 5.064-7.86 11.828-7.86 19.04 0 7.208 2.792 14.2 7.86 19.264L355.9 207.526H26.58C11.732 207.526 0 219.15 0 234.002v22.812c0 14.852 11.732 27.648 26.58 27.648h330.496L252.248 388.926c-5.068 5.072-7.86 11.652-7.86 18.864 0 7.204 2.792 13.88 7.86 18.948l16.132 16.084c5.072 5.072 11.828 7.836 19.044 7.836 7.208 0 13.968-2.8 19.04-7.872l177.68-177.68c5.084-5.088 7.88-11.88 7.86-19.1.016-7.244-2.776-14.04-7.864-19.12z"></path></svg><svg width="64" height="64" viewBox="0 0 64 64" id="arrow-up" y="2554"><path d="M3.352 48.296l28.56-28.328 28.58 28.347c.397.394.917.59 1.436.59.52 0 1.04-.196 1.436-.59a2.003 2.003 0 0 0 0-2.849l-29.98-29.735c-.2-.2-.494-.375-.757-.475a2.052 2.052 0 0 0-2.166.456L.479 45.447a2.003 2.003 0 0 0 0 2.849 2.045 2.045 0 0 0 2.873 0z"></path></svg><svg width="451.847" height="451.846" viewBox="0 0 451.847 451.846" id="arrow-up-fat" y="2618"><path d="M248.292 106.406l194.281 194.29c12.365 12.359 12.365 32.391 0 44.744-12.354 12.354-32.391 12.354-44.744 0L225.923 173.529 54.018 345.44c-12.36 12.354-32.395 12.354-44.748 0-12.359-12.354-12.359-32.391 0-44.75L203.554 106.4c6.18-6.174 14.271-9.259 22.369-9.259 8.095 0 16.192 3.091 22.369 9.265z"></path></svg><svg viewBox="0 0 475.2 475.2" width="475.2" height="475.2" id="cancel" y="3070"><path d="M405.6 69.6C360.7 24.7 301.1 0 237.6 0s-123.1 24.7-168 69.6S0 174.1 0 237.6s24.7 123.1 69.6 168 104.5 69.6 168 69.6 123.1-24.7 168-69.6 69.6-104.5 69.6-168-24.7-123.1-69.6-168zm-19.1 316.9c-39.8 39.8-92.7 61.7-148.9 61.7s-109.1-21.9-148.9-61.7c-82.1-82.1-82.1-215.7 0-297.8C128.5 48.9 181.4 27 237.6 27s109.1 21.9 148.9 61.7c82.1 82.1 82.1 215.7 0 297.8z"></path><path d="M342.3 132.9c-5.3-5.3-13.8-5.3-19.1 0l-85.6 85.6-85.6-85.6c-5.3-5.3-13.8-5.3-19.1 0-5.3 5.3-5.3 13.8 0 19.1l85.6 85.6-85.6 85.6c-5.3 5.3-5.3 13.8 0 19.1 2.6 2.6 6.1 4 9.5 4s6.9-1.3 9.5-4l85.6-85.6 85.6 85.6c2.6 2.6 6.1 4 9.5 4 3.5 0 6.9-1.3 9.5-4 5.3-5.3 5.3-13.8 0-19.1l-85.4-85.6 85.6-85.6c5.3-5.3 5.3-13.8 0-19.1z"></path></svg><svg width="33" height="23" viewBox="0 0 33 23" id="card" y="3546"><defs><path id="a" d="M468 1286.6v2.3h-30v-2.3c0-.85.67-1.54 1.5-1.54h27c.83 0 1.5.69 1.5 1.54zm-30 5.38h30v11.54c0 .85-.67 1.54-1.5 1.54h-27c-.83 0-1.5-.69-1.5-1.54zm10.12 8.46c0-.84-.67-1.53-1.5-1.53-.82 0-1.5.69-1.5 1.53 0-.84-.67-1.53-1.5-1.53-.82 0-1.5.69-1.5 1.53 0 .85.68 1.54 1.5 1.54.83 0 1.5-.69 1.5-1.54 0 .85.68 1.54 1.5 1.54.83 0 1.5-.69 1.5-1.54z"></path></defs><use xlink:href="#a" transform="translate(-436 -1284)"></use></svg><svg width="19.694" height="20" viewBox="0 0 19.694 20" id="cart" y="3569"><path d="M4.881 4a4.975 4.975 0 0 1 4.966-4 4.975 4.975 0 0 1 4.966 4h2.881a2 2 0 0 1 1.98 2.283l-1.714 12A2 2 0 0 1 15.98 20H3.714a2 2 0 0 1-1.98-1.717l-1.714-12A2 2 0 0 1 2 4zm2.038 0h5.856a3.143 3.143 0 0 0-5.856 0zM4.847 6H2l1.714 12H15.98l1.714-12h-2.847v2h-2V6h-6v2h-2z"></path></svg><svg width="32" height="30" viewBox="0 0 32 30" id="cart--color" y="3589"><path fill="#fff" d="M25.005 28.453H6.995L3.158 13.547h25.684zM1 13V9h30v4z"></path><path fill="#24252a" d="M30 12H2v-2h28zm-5.782 16H7.782L4.28 14h23.44zm1.4-20L21.894.552a1.004 1.004 0 0 0-1.342-.448 1.002 1.002 0 0 0-.448 1.342L23.382 8H8.618l3.276-6.552a1 1 0 0 0-1.788-.896L6.382 8H1a1 1 0 0 0-1 1v4a1 1 0 0 0 1 1h1.22l3.81 15.242A1 1 0 0 0 7 30h18a1 1 0 0 0 .97-.758L29.78 14H31a1 1 0 0 0 1-1V9a1 1 0 0 0-1-1z"></path></svg><svg width="20" height="20" viewBox="0 0 20 20" id="chech-round" y="3619"><g data-name="Group 1513"><path data-name="Path 1197" d="M10 0a10 10 0 1 0 10 10A10 10 0 0 0 10 0zm0 18a8 8 0 1 1 8-8 8 8 0 0 1-8 8z"></path><path data-name="Path 1198" d="M12.7 6.39l-3.78 5-1.63-2.11a1.001 1.001 0 1 0-1.58 1.23l2.43 3.11a1 1 0 0 0 1.58-.01l4.57-6a1.006 1.006 0 0 0-1.6-1.22z"></path></g></svg><svg viewBox="0 0 191.667 191.667" width="191.667" height="191.667" id="check-round" y="3639"><path d="M95.833 0C42.991 0 0 42.99 0 95.833s42.991 95.834 95.833 95.834 95.833-42.991 95.833-95.834S148.676 0 95.833 0zm55.029 79.646l-60.207 60.207a13.463 13.463 0 0 1-9.583 3.969c-3.62 0-7.023-1.409-9.583-3.969l-30.685-30.685a13.464 13.464 0 0 1-3.97-9.583c0-3.621 1.41-7.024 3.97-9.584a13.46 13.46 0 0 1 9.583-3.97c3.62 0 7.024 1.41 9.583 3.971l21.101 21.1 50.623-50.623a13.463 13.463 0 0 1 9.583-3.969c3.62 0 7.023 1.409 9.583 3.969 5.286 5.286 5.286 13.883.002 19.167z"></path></svg><svg viewBox="0 0 26 26" width="26" height="26" id="checked" y="3831"><path d="M.3 14c-.2-.2-.3-.5-.3-.7s.1-.5.3-.7l1.4-1.4c.4-.4 1-.4 1.4 0l.1.1 5.5 5.9c.2.2.5.2.7 0L22.8 3.3h.1c.4-.4 1-.4 1.4 0l1.4 1.4c.4.4.4 1 0 1.4l-16 16.6c-.2.2-.4.3-.7.3-.3 0-.5-.1-.7-.3L.5 14.3.3 14z"></path></svg><svg width="20" height="20" viewBox="0 0 20 20" id="clock" y="3857"><g data-name="Group 1780"><path data-name="Path 1192" d="M10 0a10 10 0 1 0 10 10A10 10 0 0 0 10 0zm0 18a8 8 0 1 1 8-8 8 8 0 0 1-8 8z"></path><path data-name="Path 1193" d="M14 9h-3V6a1 1 0 0 0-2 0v4a1 1 0 0 0 1 1h4a1 1 0 0 0 0-2z"></path></g></svg><svg width="54.422" height="54.422" viewBox="0 0 139 139" id="close" y="3877"><path class="fil0" d="M7 0l63 63 62-63 7 7-63 63 63 62-7 7-62-63-63 63-7-7 63-62L0 7z"></path></svg><svg viewBox="0 0 21.9 21.9" width="21.9" height="21.9" id="close-fat" y="3932"><path d="M14.1 11.3c-.2-.2-.2-.5 0-.7l7.5-7.5c.2-.2.3-.5.3-.7s-.1-.5-.3-.7L20.2.3c-.2-.2-.5-.3-.7-.3-.3 0-.5.1-.7.3l-7.5 7.5c-.2.2-.5.2-.7 0L3.1.3C2.9.1 2.6 0 2.4 0s-.5.1-.7.3L.3 1.7c-.2.2-.3.5-.3.7s.1.5.3.7l7.5 7.5c.2.2.2.5 0 .7L.3 18.8c-.2.2-.3.5-.3.7s.1.5.3.7l1.4 1.4c.2.2.5.3.7.3s.5-.1.7-.3l7.5-7.5c.2-.2.5-.2.7 0l7.5 7.5c.2.2.5.3.7.3s.5-.1.7-.3l1.4-1.4c.2-.2.3-.5.3-.7s-.1-.5-.3-.7l-7.5-7.5z"></path></svg><svg width="32" height="32" viewBox="0 0 32 32" id="compass" y="3954"><path data-name="Path 886" d="M12.016.501A16.091 16.091 0 0 0 .501 12.016l1.816.467A14.211 14.211 0 0 1 12.483 2.318zm0 0"></path><path data-name="Path 887" d="M29.682 12.483l1.816-.467A16.091 16.091 0 0 0 19.984.501l-.467 1.816a14.211 14.211 0 0 1 10.165 10.165zm0 0"></path><path data-name="Path 888" d="M19.984 31.497a16.087 16.087 0 0 0 11.515-11.514l-1.816-.467a14.207 14.207 0 0 1-10.165 10.165zm0 0"></path><path data-name="Path 889" d="M2.318 19.516l-1.816.467a16.087 16.087 0 0 0 11.515 11.514l.467-1.816A14.207 14.207 0 0 1 2.318 19.516zm0 0"></path><path data-name="Path 890" d="M16 13.191a2.813 2.813 0 1 0 2.813 2.813A2.816 2.816 0 0 0 16 13.191zm.938 3.75h-1.875v-1.875h1.875zm0 0"></path><path data-name="Path 891" d="M16 0l-3.6 12.4L0 16l12.4 3.6L16 32l3.6-12.4L32 16l-12.4-3.6zm0 20.687A4.688 4.688 0 1 1 20.687 16 4.693 4.693 0 0 1 16 20.687zm0 0"></path><path data-name="Path 892" d="M23.068 11.459l2.528-5.055-5.056 2.527.571 1.957zm0 0"></path><path data-name="Path 893" d="M21.112 21.112l-.571 1.957 5.055 2.528-2.528-5.055zm0 0"></path><path data-name="Path 894" d="M8.931 20.541l-2.528 5.055 5.055-2.528-.571-1.956zm0 0"></path><path data-name="Path 895" d="M10.887 10.887l.571-1.957-5.056-2.527 2.528 5.055zm0 0"></path></svg><svg viewBox="0 0 471.2 471.2" width="471.2" height="471.2" id="download" y="3986"><path d="M457.7 230.15c-7.5 0-13.5 6-13.5 13.5v122.8c0 33.4-27.2 60.5-60.5 60.5H87.5c-33.4 0-60.5-27.2-60.5-60.5v-124.8c0-7.5-6-13.5-13.5-13.5s-13.5 6-13.5 13.5v124.8c0 48.3 39.3 87.5 87.5 87.5h296.2c48.3 0 87.5-39.3 87.5-87.5v-122.8c0-7.4-6-13.5-13.5-13.5z"></path><path d="M226.1 346.75c2.6 2.6 6.1 4 9.5 4s6.9-1.3 9.5-4l85.8-85.8c5.3-5.3 5.3-13.8 0-19.1-5.3-5.3-13.8-5.3-19.1 0l-62.7 62.8V30.75c0-7.5-6-13.5-13.5-13.5s-13.5 6-13.5 13.5v273.9l-62.8-62.8c-5.3-5.3-13.8-5.3-19.1 0-5.3 5.3-5.3 13.8 0 19.1l85.9 85.8z"></path></svg><svg width="22" height="22.002" viewBox="0 0 22 22.002" id="edit" y="4458"><path data-name="Union 20" d="M1.275 17.402l3.322 3.326-4.6 1.273zm.83-1.668l12.9-12.9 4.16 4.16-12.9 12.9zm14.15-14.152l.939-.936a2.21 2.21 0 0 1 3.123 0l1.037 1.035a2.216 2.216 0 0 1 0 3.125l-.937.938z"></path></svg><svg width="22.499" height="23" viewBox="0 0 22.499 23" id="exit" y="4481"><g data-name="Group 626"><path data-name="Path 202" d="M12.486 20.7H5.092a2.8 2.8 0 0 1-2.793-2.793V5.093A2.8 2.8 0 0 1 5.092 2.3h7.392a1.15 1.15 0 1 0 0-2.3H5.092A5.1 5.1 0 0 0-.001 5.093v12.813a5.1 5.1 0 0 0 5.093 5.093h7.392a1.15 1.15 0 0 0 0-2.3z"></path><path data-name="Path 203" d="M22.499 11.544a1.034 1.034 0 0 0-.006-.118 1.083 1.083 0 0 0-.055-.283.96.96 0 0 0-.04-.114 1.136 1.136 0 0 0-.227-.342l-4.929-4.929a1.15 1.15 0 0 0-1.626 1.626l2.966 2.966H9.529a1.15 1.15 0 1 0 0 2.3h9.056l-2.966 2.966a1.15 1.15 0 1 0 1.626 1.626l4.929-4.929c.01-.01.014-.025.023-.036a1.149 1.149 0 0 0 .227-.337.249.249 0 0 0 .008-.031 1.125 1.125 0 0 0 .067-.365z"></path></g></svg><svg width="25" height="24.888" viewBox="0 0 25 24.888" id="food" y="4504"><g data-name="Group 680"><path data-name="Path 220" d="M7.922 15.544q-.159.013-.318.014a3.759 3.759 0 0 1-.85-.106l-6.4 6.4a.8.8 0 0 0 0 1.138l1.657 1.658a.8.8 0 0 0 1.137 0l7.7-7.7-1.426-1.539z"></path><path data-name="Path 221" d="M24.775 5.285a.769.769 0 0 0-1.087 0l-4.15 4.15a1.004 1.004 0 1 1-1.421-1.419l4.13-4.129a.8.8 0 0 0-1.132-1.132l-4.128 4.128a1.004 1.004 0 0 1-1.421-1.419l4.149-4.15A.77.77 0 0 0 18.626.225l-4.669 4.671a4.315 4.315 0 0 0-1.114 4.134l3.13 3.13a4.316 4.316 0 0 0 4.133-1.115l4.669-4.668a.769.769 0 0 0 0-1.092z"></path><path data-name="Path 222" d="M2.1.648A.847.847 0 0 0 1.5.4a.859.859 0 0 0-.141.012.846.846 0 0 0-.621.466 7.377 7.377 0 0 0 1.424 8.428l3.971 3.971a2.078 2.078 0 0 0 1.471.609c.059 0 .118 0 .176-.007l2.306-.2 10.054 10.85a.848.848 0 0 0 .605.271h.015a.852.852 0 0 0 .6-.248l1.722-1.722a.848.848 0 0 0 0-1.2z"></path></g></svg><svg width="20" height="22" viewBox="0 0 20 22" id="garbage" y="4529"><path d="M5 3V2a2 2 0 0 1 2-2h6a2 2 0 0 1 2 2v1h3a2 2 0 0 1 2 2v2a2 2 0 0 1-2 2h-.08L17 20a2 2 0 0 1-2 2H5a1.979 1.979 0 0 1-2-1.917L2.08 9H2a2 2 0 0 1-2-2V5a2 2 0 0 1 2-2zm0 2H2v2h16V5H5zm-.914 4L5 20h10v-.083L15.913 9zM13 3V2H7v1z" fill-rule="evenodd"></path></svg><svg viewBox="0 0 471.701 471.701" width="471.701" height="471.701" id="heart" y="4551"><path d="M433.601 67.001c-24.7-24.7-57.4-38.2-92.3-38.2s-67.7 13.6-92.4 38.3l-12.9 12.9-13.1-13.1c-24.7-24.7-57.6-38.4-92.5-38.4-34.8 0-67.6 13.6-92.2 38.2-24.7 24.7-38.3 57.5-38.2 92.4 0 34.9 13.7 67.6 38.4 92.3l187.8 187.8c2.6 2.6 6.1 4 9.5 4 3.4 0 6.9-1.3 9.5-3.9l188.2-187.5c24.7-24.7 38.3-57.5 38.3-92.4.1-34.9-13.4-67.7-38.1-92.4zm-19.2 165.7l-178.7 178-178.3-178.3c-19.6-19.6-30.4-45.6-30.4-73.3s10.7-53.7 30.3-73.2c19.5-19.5 45.5-30.3 73.1-30.3 27.7 0 53.8 10.8 73.4 30.4l22.6 22.6c5.3 5.3 13.8 5.3 19.1 0l22.4-22.4c19.6-19.6 45.7-30.4 73.3-30.4 27.6 0 53.6 10.8 73.2 30.3 19.6 19.6 30.3 45.6 30.3 73.3.1 27.7-10.7 53.7-30.3 73.3z"></path></svg><svg viewBox="0 0 486.196 486.196" width="486.196" height="486.196" id="house" y="5023"><path d="M481.708 220.456l-228.8-204.6c-.4-.4-.8-.7-1.3-1-5-4.8-13-5-18.3-.3l-228.8 204.6c-5.6 5-6 13.5-1.1 19.1 2.7 3 6.4 4.5 10.1 4.5 3.2 0 6.4-1.1 9-3.4l41.2-36.9v238.6c0 18.7 15.2 34 34 34h72.2c17.6 0 31.9-14.3 31.9-31.9v-121.3c0-2.7 2.2-4.9 4.9-4.9h72.9c2.7 0 4.9 2.2 4.9 4.9v121.3c0 17.6 14.3 31.9 31.9 31.9h72.2c19 0 34-18.7 34-42.6v-228.7l41.2 36.9c2.6 2.3 5.8 3.4 9 3.4 3.7 0 7.4-1.5 10.1-4.5 4.8-5.6 4.3-14.1-1.2-19.1zm-86.2 66.7v145.1c0 9.7-4.8 15.6-7 15.6h-72.2c-2.7 0-4.9-2.2-4.9-4.9v-121.1c0-17.6-14.3-31.9-31.9-31.9h-72.9c-17.6 0-31.9 14.3-31.9 31.9v121.3c0 2.7-2.2 4.9-4.9 4.9h-72.2c-3.8 0-7-3.1-7-7v-262.8l151.8-135.6 153.1 136.9v107.6z"></path></svg><svg viewBox="0 0 330 330" width="330" height="330" id="info" y="5510"><path d="M165 0C74.019 0 0 74.02 0 165.001 0 255.982 74.019 330 165 330s165-74.018 165-164.999S255.981 0 165 0zm0 300c-74.44 0-135-60.56-135-134.999S90.56 30 165 30s135 60.562 135 135.001C300 239.44 239.439 300 165 300z"></path><path d="M164.998 70c-11.026 0-19.996 8.976-19.996 20.009 0 11.023 8.97 19.991 19.996 19.991 11.026 0 19.996-8.968 19.996-19.991 0-11.033-8.97-20.009-19.996-20.009zm.002 70c-8.284 0-15 6.716-15 15v90c0 8.284 6.716 15 15 15 8.284 0 15-6.716 15-15v-90c0-8.284-6.716-15-15-15z"></path></svg><svg viewBox="0 0 490.4 490.4" width="490.4" height="490.4" id="interface" y="5840"><path d="M245.2 490.4c135.2 0 245.2-110 245.2-245.2S380.4 0 245.2 0 0 110 0 245.2s110 245.2 245.2 245.2zm0-465.9c121.7 0 220.7 99 220.7 220.7s-99 220.7-220.7 220.7-220.7-99-220.7-220.7 99-220.7 220.7-220.7z"></path><path d="M206.5 349.6c2.3 2.3 5.4 3.6 8.7 3.6 3.2 0 6.3-1.3 8.6-3.6l147.5-146.7c2.3-2.3 3.6-5.4 3.6-8.7 0-3.2-1.3-6.4-3.6-8.7l-44.6-44.8c-4.8-4.8-12.5-4.8-17.3-.1l-94 93.5-34.2-34.4c-2.3-2.3-5.4-3.6-8.7-3.6-3.2 0-6.3 1.3-8.6 3.6l-44.8 44.6c-2.3 2.3-3.6 5.4-3.6 8.7 0 3.2 1.3 6.4 3.6 8.7l87.4 87.9zm-34-123.9l34.3 34.5c4.8 4.8 12.5 4.8 17.3.1l94-93.5 27.3 27.4-130.1 129.4-70.2-70.6 27.4-27.3z"></path></svg><svg width="40" height="40" viewBox="0 0 40 40" id="knife" y="6331"><path d="M12.35 26.016a1.63 1.63 0 1 0 1.152 2.782 1.632 1.632 0 0 0 0-2.305 1.624 1.624 0 0 0-1.153-.477z"></path><path d="M15.159 30.456a3.962 3.962 0 0 1-2.81 1.162 3.964 3.964 0 0 1-2.81-1.162 3.979 3.979 0 0 1 0-5.62 3.982 3.982 0 0 1 4.667-.704l6.012-6.013a12.264 12.264 0 0 0-7.869-2.828c-3.3 0-6.402 1.285-8.736 3.618-4.817 4.818-4.817 12.656 0 17.473A12.276 12.276 0 0 0 12.35 40c3.3 0 6.403-1.285 8.736-3.618a12.276 12.276 0 0 0 3.619-8.737 12.26 12.26 0 0 0-2.829-7.868l-6.012 6.012a3.982 3.982 0 0 1-.704 4.667z"></path><path d="M23.277 9.74l-2.717 2.717a17.259 17.259 0 0 0-6.518-1.996l-.228 2.333a14.946 14.946 0 0 1 8.226 3.503l-1.822 1.822a12.696 12.696 0 0 1 1.657 1.657l1.822-1.821A14.947 14.947 0 0 1 27.2 26.18l2.333-.229a17.259 17.259 0 0 0-1.996-6.517l2.718-2.717zm1.654-1.655L33.016 0l6.977 6.977-8.085 8.085z"></path></svg><svg width="96" height="95.428" viewBox="0 0 96 95.428" id="like" y="6371"><path data-name="Path 83" d="M93.4 51.227a10.194 10.194 0 0 0-7.6-17H66A65.927 65.927 0 0 0 68.8 17v-3.4A13.617 13.617 0 0 0 55.2 0h-3.4a3.4 3.4 0 0 0-3.3 2.575l-1.852 7.41c-2.6 10.377-10.835 21.826-19.362 23.907a10.214 10.214 0 0 0-9.488-6.465H3.4a3.4 3.4 0 0 0-3.4 3.4v61.2a3.4 3.4 0 0 0 3.4 3.4h14.4a10.211 10.211 0 0 0 9.207-5.814l11.682 3.894a37.318 37.318 0 0 0 11.828 1.92H79a10.2 10.2 0 0 0 9.484-13.958 10.194 10.194 0 0 0 4.912-16.642 10.18 10.18 0 0 0 0-13.6zm-72.2 34a3.4 3.4 0 0 1-3.4 3.4h-11v-54.4h11a3.4 3.4 0 0 1 3.4 3.4zm57.8-30.6h6.8a3.4 3.4 0 1 1 0 6.8H79a3.4 3.4 0 0 0 0 6.8h6.8a3.4 3.4 0 1 1 0 6.8H79a3.4 3.4 0 1 0 0 6.8 3.4 3.4 0 0 1 0 6.8H50.517a30.534 30.534 0 0 1-9.679-1.571L28 82.777V40.705c5.333-1.013 10.554-4.391 15.266-9.919a49.611 49.611 0 0 0 9.98-19.151L54.454 6.8h.746a6.808 6.808 0 0 1 6.8 6.8V17c0 4.565-1.428 13.321-3.255 17.229H51.8a3.4 3.4 0 0 0 0 6.8h34a3.4 3.4 0 1 1 0 6.8H79a3.4 3.4 0 0 0 0 6.8z"></path></svg><svg width="18" height="22.328" viewBox="0 0 18 22.328" id="location" y="6467"><path d="M9.658 21.753L9 22.328l-.658-.574C2.811 16.924 0 12.707 0 9a8.867 8.867 0 0 1 9-9 8.867 8.867 0 0 1 9 9c0 3.707-2.811 7.924-8.342 12.753zM2 9c0 2.849 2.307 6.434 7 10.663 4.693-4.23 7-7.814 7-10.663a6.871 6.871 0 0 0-7-7 6.871 6.871 0 0 0-7 7zm7-5a5 5 0 1 1-5 5 5 5 0 0 1 5-5zm0 2a3 3 0 1 0 3 3 3 3 0 0 0-3-3z" fill-rule="evenodd"></path></svg><svg width="19" height="33" viewBox="0 0 19 33" id="login" y="6490"><path class="cls-1" d="M16.71 28.7h-5.16v-1.641h3.3a2.151 2.151 0 1 0 0-4.293h-3.29v-5.7a9.374 9.374 0 0 0 4.25-2.272 8.273 8.273 0 0 0 .01-12.255 9.721 9.721 0 0 0-13.1 0 8.272 8.272 0 0 0-.01 12.255 9.4 9.4 0 0 0 4.26 2.27L6.96 30.85a2.064 2.064 0 0 0 .68 1.518 2.111 2.111 0 0 0 .33.262 2.422 2.422 0 0 0 1.29.366h7.45a2.151 2.151 0 1 0 0-4.296zM5.96 11.76a4.174 4.174 0 0 1 0-6.184 4.905 4.905 0 0 1 6.61 0 4.174 4.174 0 0 1 0 6.184 4.9 4.9 0 0 1-6.61 0z"></path></svg><svg viewBox="0 0 451 451" width="451" height="451" id="magnifying-glass" y="6523"><path d="M447.05 428l-109.6-109.6c29.4-33.8 47.2-77.9 47.2-126.1C384.65 86.2 298.35 0 192.35 0 86.25 0 .05 86.3.05 192.3s86.3 192.3 192.3 192.3c48.2 0 92.3-17.8 126.1-47.2L428.05 447c2.6 2.6 6.1 4 9.5 4s6.9-1.3 9.5-4c5.2-5.2 5.2-13.8 0-19zM26.95 192.3c0-91.2 74.2-165.3 165.3-165.3 91.2 0 165.3 74.2 165.3 165.3s-74.1 165.4-165.3 165.4c-91.1 0-165.3-74.2-165.3-165.4z"></path></svg><svg viewBox="0 0 483.3 483.3" width="483.3" height="483.3" id="mail" y="6974"><path d="M424.3 57.75H59.1c-32.6 0-59.1 26.5-59.1 59.1v249.6c0 32.6 26.5 59.1 59.1 59.1h365.1c32.6 0 59.1-26.5 59.1-59.1v-249.5c.1-32.6-26.4-59.2-59-59.2zm32.1 308.7c0 17.7-14.4 32.1-32.1 32.1H59.1c-17.7 0-32.1-14.4-32.1-32.1v-249.5c0-17.7 14.4-32.1 32.1-32.1h365.1c17.7 0 32.1 14.4 32.1 32.1v249.5h.1z"></path><path d="M304.8 238.55l118.2-106c5.5-5 6-13.5 1-19.1-5-5.5-13.5-6-19.1-1l-163 146.3-31.8-28.4c-.1-.1-.2-.2-.2-.3-.7-.7-1.4-1.3-2.2-1.9L78.3 112.35c-5.6-5-14.1-4.5-19.1 1.1-5 5.6-4.5 14.1 1.1 19.1l119.6 106.9-119.1 111.5c-5.4 5.1-5.7 13.6-.6 19.1 2.7 2.8 6.3 4.3 9.9 4.3 3.3 0 6.6-1.2 9.2-3.6l120.9-113.1 32.8 29.3c2.6 2.3 5.8 3.4 9 3.4s6.5-1.2 9-3.5l33.7-30.2 120.2 114.2c2.6 2.5 6 3.7 9.3 3.7 3.6 0 7.1-1.4 9.8-4.2 5.1-5.4 4.9-14-.5-19.1l-118.7-112.7z"></path></svg><svg width="41.958" height="26" viewBox="0 0 41.958 26" id="mastercard--color" y="7458"><g data-name="Group 696"><path data-name="Path 337" d="M41.958 12.998a12.975 12.975 0 1 1-12.975-13 12.988 12.988 0 0 1 12.975 13z" fill="#f79f1a"></path><path data-name="Path 338" d="M25.951 12.998a12.975 12.975 0 1 1-12.975-13 12.987 12.987 0 0 1 12.975 13z" fill="#ea001b"></path><path data-name="Path 339" d="M20.979 2.768a13.02 13.02 0 0 0 0 20.468 13.02 13.02 0 0 0 0-20.468z" fill="#ff5f01"></path></g></svg><svg width="459" height="459" viewBox="0 0 459 459" id="menu" y="7484"><path d="M0 382.5h459v-51H0v51zM0 255h459v-51H0v51zM0 76.5v51h459v-51H0z"></path></svg><svg width="16" height="2" viewBox="0 0 16 2" id="minus" y="7943"><defs><path id="a" d="M1130 1198v-2h16v2z"></path></defs><use xlink:href="#a" transform="translate(-1130 -1196)"></use></svg><svg viewBox="0 0 49 49" width="49" height="49" id="minus-cheese" y="7945"><path class="st0" d="M16.2 1.6c0 2-1.3 3.9-3.3 4.5-.4.2-.9.3-1.3.3-1.6-.1-3-1.3-3.3-2.9-.1-.9 0-1.8.4-2.6L0 0l5.4 48.9 37.8-7.6L49 4.8 16.2 1.6zm3.5 37.3h-.3c-1.4 0-2.6-1.2-2.6-2.5-.1-1.6 1.1-3 2.7-3.2h.3c1.4-.1 2.6 1.1 2.6 2.5.1 1.6-1.1 3-2.7 3.2zM35 26H14v-3h21v3zm5-12h-.3c-1.2 0-2.2-.9-2.2-2.1 0-.6.2-1.2.6-1.7s1-.8 1.7-.9h.4c1.2 0 2.1.9 2.1 2.1 0 1.3-1 2.4-2.3 2.6z"></path></svg><svg data-name="Group 679" width="25" height="25" viewBox="0 0 25 25" id="parking" y="7994"><g data-name="Group 677"><path data-name="Path 218" d="M22.07 0H2.93A2.933 2.933 0 0 0 0 2.93v19.14A2.933 2.933 0 0 0 2.93 25h19.14A2.933 2.933 0 0 0 25 22.07V2.93A2.933 2.933 0 0 0 22.07 0zm.977 22.07a.978.978 0 0 1-.977.977H2.93a.978.978 0 0 1-.977-.977V2.93a.978.978 0 0 1 .977-.977h19.14a.978.978 0 0 1 .977.977z"></path><path data-name="Path 219" d="M13.965 4.883H7.129v15.234h1.953v-5.469h4.883a4.883 4.883 0 1 0 0-9.766zm0 7.813H9.082V6.837h4.883a2.93 2.93 0 1 1 0 5.859z"></path></g></svg><svg viewBox="0 0 56.48 56.48" width="56.48" height="56.48" id="paypal" y="8019"><path d="M12.121 24.861c-.229-.15-.57-.226-1.018-.226l-.383.002a.591.591 0 0 0-.557.444l-.353 1.52c-.055.246.102.447.356.447h.286c.635 0 1.127-.129 1.48-.389.353-.258.534-.625.526-1.1.002-.314-.111-.549-.337-.698zm6.25 3.503c-.069.002-.598.062-.866.095-.3.043-.56.103-.771.174l-.496.338c-.116.146-.171.332-.171.571l.226.438c.153.086.379.128.667.128.19 0 .396-.046.612-.134l.46-.237.182-.242c.072-.282.221-.909.238-.987l-.081-.144z"></path><path d="M55.026 9.939H1.454C.65 9.939 0 10.59 0 11.393v33.694c0 .803.65 1.455 1.454 1.455h53.572c.804 0 1.454-.651 1.454-1.454V11.393c0-.803-.65-1.454-1.454-1.454zM13.484 27.695c-.796.586-1.904.878-3.336.88h-.334a.599.599 0 0 0-.561.444l-.402 1.738a.601.601 0 0 1-.562.446h-1.17c-.254 0-.413-.204-.353-.446l1.645-7.163a.614.614 0 0 1 .563-.447l2.444-.001c.528.005.985.037 1.381.109.39.074.73.198 1.018.374.276.174.499.407.639.689.156.282.225.635.225 1.055 0 .96-.395 1.736-1.197 2.322zm7.262-.914l-.044.301-.854 3.692a.605.605 0 0 1-.503.438l-.016.006h-1.088l-.004-.004c-.223-.021-.361-.21-.313-.438v-.002l.002-.007.044-.188-.006-.007-.441.291-.48.268-.566.194a3.264 3.264 0 0 1-.735.067c-.499 0-.917-.137-1.233-.42a1.444 1.444 0 0 1-.476-1.11c0-.48.111-.886.334-1.224.231-.336.561-.598 1.007-.794a5.375 5.375 0 0 1 1.484-.408 19.83 19.83 0 0 1 1.727-.187l.168-.104.021-.165c0-.254-.118-.429-.353-.532-.238-.1-.596-.15-1.064-.15-.318-.004-.718.061-1.097.147-.397.09-.506.149-.7.207-.09.031-.307.046-.226-.33l.143-.589s.07-.445.515-.542c.215-.048.249-.057.6-.111.475-.073.945-.11 1.416-.11.953 0 1.651.124 2.092.373.443.248.669.636.667 1.157l-.021.281zm1.881 7.274l-1.212.002c-.252 0-.335-.2-.181-.446l1.037-1.808s.083-.103.009-.693c-.16-1.066-.956-5.598-.956-5.598-.058-.245.098-.446.35-.446l1.049-.002c.321 0 .579.211.637.459l.522 3.143.194.002c.163-.289 1.839-3.165 1.839-3.165.16-.242.484-.447.736-.447 0 0 1.127.003 1.404 0 .416-.006-.032.668-.032.668l-4.664 7.887c-.15.246-.482.444-.732.444zm12.117-6.329c-.799.583-1.912.878-3.344.878h-.334a.604.604 0 0 0-.562.443l-.396 1.741a.605.605 0 0 1-.562.44l-1.173.003c-.249.001-.413-.201-.353-.444l1.646-7.167a.612.612 0 0 1 .56-.445l2.447-.002c.525.002.987.039 1.375.108a2.89 2.89 0 0 1 1.019.373c.279.179.498.408.644.692.15.28.223.634.225 1.054 0 .959-.401 1.733-1.192 2.326zm7.258-.94l-.043.303-.856 3.689a.603.603 0 0 1-.499.44l-.016.006H39.5l-.002-.006a.34.34 0 0 1-.312-.438l-.002-.003.005-.004.039-.188-.007-.009-.438.295-.483.267-.565.191c-.174.045-.42.064-.733.069-.5 0-.914-.142-1.232-.423a1.434 1.434 0 0 1-.479-1.111c0-.477.111-.885.335-1.221.229-.336.564-.597 1.006-.795.418-.19.92-.328 1.487-.408a19.125 19.125 0 0 1 1.728-.186l.168-.106.018-.165a.535.535 0 0 0-.354-.531c-.238-.101-.596-.151-1.062-.151-.32-.002-.721.062-1.099.147-.395.092-.502.149-.695.207-.098.029-.309.046-.229-.33l.143-.588s.067-.446.514-.542c.217-.047.252-.058.602-.109a8.902 8.902 0 0 1 1.416-.113c.949 0 1.646.126 2.091.375.446.248.669.634.669 1.155l-.027.283zm3.75-3.107l-1.568 7.101-.055.084c-.093.2-.291.362-.506.362h-1.088l-.02-.025c-.207-.032-.342-.199-.293-.417l-.002-.005.047-.205 1.466-6.662.052-.232.059-.091c.095-.196.289-.355.504-.355h1.047c.255 0 .408.199.354.443l.003.002zm2.078-.768h-.392v.521l.003.14.027.094.062.06.12.019.098-.014.073-.022h.009v.171l-.117.023-.111.009-.266-.095-.091-.3v-.606h-.132v-.162h.132v-.325h.193v.325h.392v.162zm1.895.239v.737h-.189v-.65l-.012-.139-.025-.11-.066-.065-.127-.023-.159.041-.163.103.003.056.002.06v.729h-.19v-.65l-.008-.141-.027-.109-.064-.065-.129-.023-.157.039-.159.099v.85h-.188V22.75h.188v.127l.182-.116.188-.042.198.047.122.136.21-.141.205-.042.277.113.09.318h-.002z"></path><path d="M39.628 28.37c-.069-.001-.596.061-.86.095a4.233 4.233 0 0 0-.771.174 1.188 1.188 0 0 0-.501.338c-.112.146-.168.332-.168.572l.229.437c.146.087.369.129.666.129.187 0 .393-.046.608-.133l.457-.237.188-.242c.07-.285.222-.91.234-.988l-.082-.145zm-6.256-3.482c-.231-.151-.567-.225-1.016-.227l-.381.002a.599.599 0 0 0-.56.445l-.354 1.519c-.057.244.106.448.359.446h.291c.633 0 1.124-.13 1.478-.384.35-.261.528-.625.526-1.104-.006-.312-.115-.547-.343-.697z"></path></svg><svg width="20" height="20.002" viewBox="0 0 20 20.002" id="phone" y="8076"><path d="M8.979 4.255a1.525 1.525 0 0 1-.118 2.084 5.45 5.45 0 0 1-.436.508c-.082.086-.146.151-.28.285l-.766.769a6.743 6.743 0 0 0 1.916 2.8 6.717 6.717 0 0 0 2.8 1.917l.766-.767a5.72 5.72 0 0 1 .953-.828 1.481 1.481 0 0 1 1.922-.007 29.892 29.892 0 0 1 3.534 2.766 2.7 2.7 0 0 1 .006 3.682c-.31.328-.7.722-1.169 1.17-2.812 2.813-8.745 1.1-13.293-3.451S-1.443 4.701 1.363 1.89c.5-.512.67-.678 1.16-1.161a2.716 2.716 0 0 1 3.7 0 31.937 31.937 0 0 1 2.756 3.526zm5.3 9.012l-.766.767c-1.3 1.3-3.521.192-5.629-1.917S4.663 7.788 5.966 6.485l.766-.766c.123-.123.179-.18.246-.25.092-.1.167-.181.227-.256a29.773 29.773 0 0 0-2.385-3.06.748.748 0 0 0-.9 0c-.484.476-.643.635-1.144 1.145-1.8 1.805-.423 6.6 3.449 10.472s8.661 5.256 10.479 3.438q.686-.662 1.117-1.118a.715.715 0 0 0 .006-.919 28.074 28.074 0 0 0-3.05-2.377 6.813 6.813 0 0 0-.5.473z" fill-rule="evenodd"></path></svg><svg viewBox="0 0 473.806 473.806" width="473.806" height="473.806" id="phone-call" y="8097"><path d="M374.456 293.506c-9.7-10.1-21.4-15.5-33.8-15.5-12.3 0-24.1 5.3-34.2 15.4l-31.6 31.5c-2.6-1.4-5.2-2.7-7.7-4-3.6-1.8-7-3.5-9.9-5.3-29.6-18.8-56.5-43.3-82.3-75-12.5-15.8-20.9-29.1-27-42.6 8.2-7.5 15.8-15.3 23.2-22.8 2.8-2.8 5.6-5.7 8.4-8.5 21-21 21-48.2 0-69.2l-27.3-27.3c-3.1-3.1-6.3-6.3-9.3-9.5-6-6.2-12.3-12.6-18.8-18.6-9.7-9.6-21.3-14.7-33.5-14.7s-24 5.1-34 14.7l-.2.2-34 34.3c-12.8 12.8-20.1 28.4-21.7 46.5-2.4 29.2 6.2 56.4 12.8 74.2 16.2 43.7 40.4 84.2 76.5 127.6 43.8 52.3 96.5 93.6 156.7 122.7 23 10.9 53.7 23.8 88 26 2.1.1 4.3.2 6.3.2 23.1 0 42.5-8.3 57.7-24.8.1-.2.3-.3.4-.5 5.2-6.3 11.2-12 17.5-18.1 4.3-4.1 8.7-8.4 13-12.9 9.9-10.3 15.1-22.3 15.1-34.6 0-12.4-5.3-24.3-15.4-34.3l-54.9-55.1zm35.8 105.3c-.1 0-.1.1 0 0-3.9 4.2-7.9 8-12.2 12.2-6.5 6.2-13.1 12.7-19.3 20-10.1 10.8-22 15.9-37.6 15.9-1.5 0-3.1 0-4.6-.1-29.7-1.9-57.3-13.5-78-23.4-56.6-27.4-106.3-66.3-147.6-115.6-34.1-41.1-56.9-79.1-72-119.9-9.3-24.9-12.7-44.3-11.2-62.6 1-11.7 5.5-21.4 13.8-29.7l34.1-34.1c4.9-4.6 10.1-7.1 15.2-7.1 6.3 0 11.4 3.8 14.6 7l.3.3c6.1 5.7 11.9 11.6 18 17.9 3.1 3.2 6.3 6.4 9.5 9.7l27.3 27.3c10.6 10.6 10.6 20.4 0 31-2.9 2.9-5.7 5.8-8.6 8.6-8.4 8.6-16.4 16.6-25.1 24.4-.2.2-.4.3-.5.5-8.6 8.6-7 17-5.2 22.7l.3.9c7.1 17.2 17.1 33.4 32.3 52.7l.1.1c27.6 34 56.7 60.5 88.8 80.8 4.1 2.6 8.3 4.7 12.3 6.7 3.6 1.8 7 3.5 9.9 5.3.4.2.8.5 1.2.7 3.4 1.7 6.6 2.5 9.9 2.5 8.3 0 13.5-5.2 15.2-6.9l34.2-34.2c3.4-3.4 8.8-7.5 15.1-7.5 6.2 0 11.3 3.9 14.4 7.3l.2.2 55.1 55.1c10.3 10.2 10.3 20.7.1 31.3zm-154.2-286.1c26.2 4.4 50 16.8 69 35.8s31.3 42.8 35.8 69c1.1 6.6 6.8 11.2 13.3 11.2.8 0 1.5-.1 2.3-.2 7.4-1.2 12.3-8.2 11.1-15.6-5.4-31.7-20.4-60.6-43.3-83.5s-51.8-37.9-83.5-43.3c-7.4-1.2-14.3 3.7-15.6 11s3.5 14.4 10.9 15.6zm217.2 96.3c-8.9-52.2-33.5-99.7-71.3-137.5s-85.3-62.4-137.5-71.3c-7.3-1.3-14.2 3.7-15.5 11-1.2 7.4 3.7 14.3 11.1 15.6 46.6 7.9 89.1 30 122.9 63.7 33.8 33.8 55.8 76.3 63.7 122.9 1.1 6.6 6.8 11.2 13.3 11.2.8 0 1.5-.1 2.3-.2 7.3-1.1 12.3-8.1 11-15.4z"></path></svg><svg width="40" height="40" viewBox="0 0 40 40" id="pizza" y="8571"><path d="M27.625 23.094a1.172 1.172 0 1 1-1.657-1.658 1.172 1.172 0 0 1 1.657 1.658zm-5.488-2.754a3.894 3.894 0 0 1-2.762 1.142c-1 0-2.001-.38-2.763-1.142a3.91 3.91 0 0 1 0-5.524 3.895 3.895 0 0 1 2.763-1.142c1 0 2 .38 2.762 1.142a3.911 3.911 0 0 1 0 5.524zm10.586 4.146A28.915 28.915 0 0 0 26.03 13.97a28.917 28.917 0 0 0-10.517-6.693l-1.101-.4.015-.043-4.95 10.89A7.031 7.031 0 1 1 3.8 30.214l-3.695 8.13a1.172 1.172 0 0 0 1.551 1.552l31.51-14.323-.043.016z"></path><path d="M39.93 21.312A35.698 35.698 0 0 0 31.668 8.33 35.703 35.703 0 0 0 18.688.07a1.172 1.172 0 0 0-1.467.616l-1.84 4.048.932.338a31.286 31.286 0 0 1 11.375 7.239 31.29 31.29 0 0 1 7.239 11.375l.338.931 4.048-1.84c.556-.253.825-.891.616-1.466zm-20.555-5.295a1.563 1.563 0 1 0 1.104.456 1.552 1.552 0 0 0-1.104-.456zm-6.641 8.593a4.688 4.688 0 0 0-4.265-4.668l-3.661 8.054a4.688 4.688 0 0 0 7.926-3.387z"></path></svg><svg viewBox="0 0 477 477" width="477" height="477" id="placeholder" y="8611"><path d="M238.4 0C133 0 47.2 85.8 47.2 191.2c0 12 1.1 24.1 3.4 35.9.1.7.5 2.8 1.3 6.4 2.9 12.9 7.2 25.6 12.8 37.7 20.6 48.5 65.9 123 165.3 202.8 2.5 2 5.5 3 8.5 3s6-1 8.5-3c99.3-79.8 144.7-154.3 165.3-202.8 5.6-12.1 9.9-24.7 12.8-37.7.8-3.6 1.2-5.7 1.3-6.4 2.2-11.8 3.4-23.9 3.4-35.9C429.6 85.8 343.8 0 238.4 0zm161.2 222.4c0 .2-.1.4-.1.6-.1.5-.4 2-.9 4.3v.2c-2.5 11.2-6.2 22.1-11.1 32.6-.1.1-.1.3-.2.4-18.7 44.3-59.7 111.9-148.9 185.6-89.2-73.7-130.2-141.3-148.9-185.6-.1-.1-.1-.3-.2-.4-4.8-10.4-8.5-21.4-11.1-32.6v-.2c-.6-2.3-.8-3.8-.9-4.3 0-.2-.1-.4-.1-.7-2-10.3-3-20.7-3-31.2 0-90.5 73.7-164.2 164.2-164.2s164.2 73.7 164.2 164.2c0 10.6-1 21.1-3 31.3z"></path><path d="M238.4 71.9c-66.9 0-121.4 54.5-121.4 121.4s54.5 121.4 121.4 121.4 121.4-54.5 121.4-121.4S305.3 71.9 238.4 71.9zm0 215.8c-52.1 0-94.4-42.4-94.4-94.4s42.4-94.4 94.4-94.4 94.4 42.4 94.4 94.4-42.3 94.4-94.4 94.4z"></path></svg><svg width="14" height="14" viewBox="0 0 14 14" id="plus" y="9088"><path data-name="Union 1" d="M6.001 14V8h-6V6h6V0h2v6h6v2h-6v6z"></path></svg><svg viewBox="0 0 49 49" width="49" height="49" id="plus-cheese" y="9102"><path class="st0" d="M49 49l-2.7-34.6c-.5.3-1.1.5-1.7.5-.4 0-.9-.1-1.3-.3-2.2-.7-3.6-2.9-3.4-5.2.3-1.7 1.8-3 3.6-2.9.4 0 .8.1 1.2.2.4.1.8.3 1.1.5L45.3 0 7.7 5.4 0 41.8l33.9 5c-.2-.5-.3-1-.3-1.6 0-1.5 1.2-2.6 2.7-2.6h.3c1.7.2 2.9 1.6 2.8 3.3-.1.6-.3 1.1-.6 1.6L49 49zM7.9 35.5h-.2c-1-.1-1.7-.9-1.7-1.9v-.1c.1-.9.8-1.6 1.7-1.5h.2c1 0 1.7.9 1.7 1.9-.1.9-.8 1.6-1.7 1.6zM35 26h-9v9h-3v-9h-9v-3h9v-9h3v9h9v3z"></path></svg><svg width="28" height="41" viewBox="0 0 28 41" id="point" y="9151"><path d="M13.542 5.009a5.912 5.912 0 0 0-5.905 5.905 5.912 5.912 0 0 0 5.905 5.905 5.912 5.912 0 0 0 5.905-5.905 5.912 5.912 0 0 0-5.905-5.905zm-.106 25h-.001a48.506 48.506 0 0 1-.706-.616l-.004-.004-.003-.002-.006-.005c-1.813-1.61-4.432-4.169-6.614-7.204-2.623-3.647-3.952-7.052-3.952-10.12C2.15 5.874 7.178.767 13.357.67c.028 0 .053-.002.078-.003.028.002.051.003.077.003 6.18.097 11.207 5.205 11.207 11.387 0 1.755-.442 3.642-1.312 5.608-.736 1.663-1.788 3.404-3.127 5.174-2.456 3.249-5.342 5.887-6.844 7.17zm.158 10.658c-6.764 0-13.612-1.94-13.612-5.648 0-.63.2-1.231.595-1.787.372-.525.923-1.014 1.634-1.455 1.324-.82 3.223-1.474 5.49-1.892a54.758 54.758 0 0 0 2.335 2.213c-2.135.238-4.1.708-5.534 1.324-1.242.533-1.983 1.13-1.983 1.596 0 1.097 4.205 3.112 11.075 3.112 6.87 0 11.077-2.015 11.077-3.112 0-.228-.184-.496-.53-.774-.36-.288-.889-.583-1.534-.853-1.495-.626-3.535-1.095-5.744-1.32a53.982 53.982 0 0 0 2.355-2.235c2.338.407 4.3 1.06 5.674 1.888.739.445 1.31.941 1.697 1.474.41.566.618 1.178.618 1.821 0 3.708-6.848 5.648-13.613 5.648z"></path></svg><svg width="24" height="22" viewBox="0 0 24 22" id="repeat" y="9192"><defs><path id="a" d="M1515.477 514.514c-1.232 2.532-3.395 4.441-6.088 5.377a10.878 10.878 0 0 1-3.577.604c-2.96 0-5.816-1.219-7.835-3.344a1.247 1.247 0 0 1 .068-1.788 1.287 1.287 0 0 1 1.794.066 8.264 8.264 0 0 0 5.974 2.55 8.29 8.29 0 0 0 2.73-.461c3.245-1.128 5.425-4.153 5.425-7.529 0-.907-.158-1.801-.469-2.66-1.15-3.18-4.24-5.316-7.692-5.316a8.25 8.25 0 0 0-2.72.461c-1.697.589-3.107 1.671-4.07 3.104l2.508-.872a1.276 1.276 0 0 1 1.623.762 1.26 1.26 0 0 1-.778 1.612l-5.358 1.864a1.285 1.285 0 0 1-.97-.05 1.265 1.265 0 0 1-.653-.71l-1.8-4.98a1.238 1.238 0 0 1-.076-.426c0-.533.343-1.01.854-1.186a1.284 1.284 0 0 1 1.621.764l.749 2.073c1.27-2.007 3.19-3.524 5.503-4.328 1.15-.401 2.35-.604 3.567-.604 4.526 0 8.582 2.806 10.095 6.984.412 1.142.62 2.326.62 3.52 0 1.567-.351 3.085-1.045 4.513z"></path></defs><use xlink:href="#a" transform="translate(-1493 -499)"></use></svg><svg width="44.238" height="44.238" viewBox="0 0 44.238 44.238" id="round-arrow-left" y="9214"><path d="M22.119 44.237C9.922 44.237 0 34.315 0 22.119S9.922.001 22.119.001s22.119 9.922 22.119 22.118-9.924 22.118-22.119 22.118zm0-42.736C10.75 1.501 1.5 10.75 1.5 22.119c0 11.368 9.25 20.618 20.619 20.618s20.619-9.25 20.619-20.618c0-11.369-9.25-20.618-20.619-20.618z"></path><path d="M24.667 29.884a.74.74 0 0 1-.53-.22l-7.328-7.334a.752.752 0 0 1 0-1.061l7.328-7.333a.75.75 0 1 1 1.061 1.061L18.4 21.8l6.798 6.805a.752.752 0 0 1 0 1.061.75.75 0 0 1-.531.218z"></path></svg><svg width="23" height="23" viewBox="0 0 23 23" id="search" y="9259"><path d="M12.989 17.206a7.369 7.369 0 0 1-5.184-2.153l-.002-.002c-2.86-2.865-2.857-7.523.008-10.384a7.293 7.293 0 0 1 5.19-2.148h.004a7.291 7.291 0 0 1 5.19 2.155c2.862 2.865 2.859 7.524-.005 10.384A7.298 7.298 0 0 1 13 17.206zm-11.86 5.649c.29 0 .58-.111.8-.331L7.052 17.4a9.652 9.652 0 0 0 5.936 2.064H13a9.54 9.54 0 0 0 6.785-2.808c3.747-3.742 3.75-9.834.008-13.58A9.54 9.54 0 0 0 13.006.26H13a9.54 9.54 0 0 0-6.786 2.808c-3.475 3.472-3.73 8.967-.76 12.735L.331 20.926a1.127 1.127 0 0 0 0 1.598c.221.22.51.33.799.33z"></path></svg><svg viewBox="0 0 481.6 481.6" width="481.6" height="481.6" id="share" y="9282"><path d="M381.6 309.4c-27.7 0-52.4 13.2-68.2 33.6l-132.3-73.9c3.1-8.9 4.8-18.5 4.8-28.4 0-10-1.7-19.5-4.9-28.5l132.2-73.8c15.7 20.5 40.5 33.8 68.3 33.8 47.4 0 86.1-38.6 86.1-86.1S429 0 381.5 0s-86.1 38.6-86.1 86.1c0 10 1.7 19.6 4.9 28.5l-132.1 73.8c-15.7-20.6-40.5-33.8-68.3-33.8-47.4 0-86.1 38.6-86.1 86.1s38.7 86.1 86.2 86.1c27.8 0 52.6-13.3 68.4-33.9l132.2 73.9c-3.2 9-5 18.7-5 28.7 0 47.4 38.6 86.1 86.1 86.1s86.1-38.6 86.1-86.1-38.7-86.1-86.2-86.1zm0-282.3c32.6 0 59.1 26.5 59.1 59.1s-26.5 59.1-59.1 59.1-59.1-26.5-59.1-59.1 26.6-59.1 59.1-59.1zM100 299.8c-32.6 0-59.1-26.5-59.1-59.1s26.5-59.1 59.1-59.1 59.1 26.5 59.1 59.1-26.6 59.1-59.1 59.1zm281.6 154.7c-32.6 0-59.1-26.5-59.1-59.1s26.5-59.1 59.1-59.1 59.1 26.5 59.1 59.1-26.5 59.1-59.1 59.1z"></path></svg><svg width="43" height="43" viewBox="0 0 43 43" id="smile-good" y="9764"><defs><path id="a" d="M928 1166c0 5.34-2.08 10.36-5.86 14.14A19.87 19.87 0 0 1 908 1186a19.87 19.87 0 0 1-14.14-5.86A19.87 19.87 0 0 1 888 1166c0-5.34 2.08-10.37 5.86-14.14A19.87 19.87 0 0 1 908 1146c5.34 0 10.36 2.08 14.14 5.86A19.87 19.87 0 0 1 928 1166zm-2.47 0c0-9.66-7.87-17.53-17.53-17.53a17.55 17.55 0 0 0-17.53 17.53c0 9.66 7.87 17.52 17.53 17.52s17.53-7.86 17.53-17.52zm-14.15-3.8a2.89 2.89 0 1 1 5.78.01 2.89 2.89 0 0 1-5.78 0zm-12.54 0a2.89 2.89 0 1 1 5.78.01 2.89 2.89 0 0 1-5.78 0zm17.87 7l2.32.86a11.8 11.8 0 0 1-11.03 7.7c-4.9 0-9.33-3.1-11.03-7.7l2.32-.86a9.32 9.32 0 0 0 8.71 6.08 9.32 9.32 0 0 0 8.71-6.08z"></path></defs><use xlink:href="#a" transform="translate(-886 -1144)"></use></svg><svg viewBox="0 0 512 512" width="512" height="512" id="soc-facebook" y="9807"><path d="M134.941 272.691h56.123v231.051a8.256 8.256 0 0 0 8.258 8.258h95.159a8.256 8.256 0 0 0 8.258-8.258V273.78h64.519a8.26 8.26 0 0 0 8.204-7.315l9.799-85.061a8.259 8.259 0 0 0-8.202-9.203h-74.316V118.88c0-16.073 8.654-24.224 25.726-24.224h48.59a8.258 8.258 0 0 0 8.258-8.258V8.319a8.256 8.256 0 0 0-8.258-8.258h-66.965A65.863 65.863 0 0 0 307.027 0c-11.619 0-52.006 2.281-83.909 31.63-35.348 32.524-30.434 71.465-29.26 78.217v62.352H134.94a8.256 8.256 0 0 0-8.258 8.258v83.975a8.26 8.26 0 0 0 8.259 8.259z"></path></svg><svg width="90" height="90" viewBox="0 0 90 90" id="soc-facebook-box" y="10319"><path d="M90 15.001C90 7.119 82.884 0 75 0H15C7.116 0 0 7.119 0 15.001v59.998C0 82.881 7.116 90 15.001 90H45V56H34V41h11v-5.844C45 25.077 52.568 16 61.875 16H74v15H61.875C60.548 31 59 32.611 59 35.024V41h15v15H59v34h16c7.884 0 15-7.119 15-15.001V15.001z"></path></svg><svg width="96.669" height="96.669" viewBox="0 0 96.669 96.669" id="soc-google" y="10409"><path d="M50.91 55.189l-4.533-3.522c-1.38-1.144-3.27-2.656-3.27-5.422 0-2.778 1.889-4.544 3.527-6.18 5.279-4.157 10.557-8.581 10.557-17.903 0-9.586-6.031-14.629-8.923-17.022h7.795L64.244 0H39.459C32.658 0 22.856 1.608 15.68 7.533c-5.408 4.666-8.046 11.099-8.046 16.892 0 9.831 7.548 19.798 20.88 19.798 1.259 0 2.636-.124 4.022-.252-.623 1.515-1.252 2.777-1.252 4.917 0 3.905 2.006 6.299 3.774 8.567-5.663.39-16.237 1.018-24.033 5.809-7.424 4.415-9.684 10.84-9.684 15.377 0 9.334 8.8 18.028 27.045 18.028 21.636 0 33.089-11.971 33.089-23.823.002-8.707-5.028-12.992-10.565-17.657zM34.431 40.691c-10.824 0-15.727-13.992-15.727-22.434 0-3.288.623-6.682 2.763-9.333C23.486 6.4 27 4.762 30.281 4.762c10.434 0 15.846 14.118 15.846 23.197 0 2.271-.251 6.296-3.144 9.207-2.023 2.021-5.409 3.525-8.552 3.525zm.124 50.696c-13.46 0-22.139-6.438-22.139-15.392 0-8.949 8.048-11.978 10.816-12.979 5.281-1.777 12.076-2.024 13.21-2.024 1.258 0 1.887 0 2.889.126 9.568 6.81 13.721 10.203 13.721 16.65.001 7.805-6.417 13.619-18.497 13.619zm48.124-50.888V27.894h-6.224v12.605H63.869v6.294h12.586v12.684h6.224V46.793h12.649v-6.294z"></path></svg><svg width="430.117" height="430.117" viewBox="0 0 430.117 430.117" id="soc-in" y="10506"><path d="M430.117 261.543V420.56h-92.188V272.193c0-37.271-13.334-62.707-46.703-62.707-25.473 0-40.632 17.142-47.301 33.724-2.432 5.928-3.058 14.179-3.058 22.477V420.56h-92.219s1.242-251.285 0-277.32h92.21v39.309c-.187.294-.43.611-.606.896h.606v-.896c12.251-18.869 34.13-45.824 83.102-45.824 60.673-.001 106.157 39.636 106.157 124.818zM52.183 9.558C20.635 9.558 0 30.251 0 57.463c0 26.619 20.038 47.94 50.959 47.94h.616c32.159 0 52.159-21.317 52.159-47.94-.606-27.212-20-47.905-51.551-47.905zM5.477 420.56h92.184V143.24H5.477v277.32z"></path></svg><svg width="438.536" height="438.536" viewBox="0 0 438.536 438.536" id="soc-instagram" y="10937"><path d="M421.981 16.562C410.941 5.519 397.711 0 382.298 0H56.248C40.83 0 27.604 5.521 16.561 16.562 5.52 27.6.001 40.828.001 56.243V382.29c0 15.413 5.518 28.644 16.56 39.683 11.043 11.04 24.272 16.563 39.687 16.563h326.046c15.41 0 28.644-5.523 39.684-16.563 11.043-11.039 16.557-24.27 16.557-39.683V56.243c-.001-15.418-5.514-28.639-16.554-39.681zM157.462 158.025c17.224-16.652 37.924-24.982 62.097-24.982 24.36 0 45.153 8.33 62.381 24.982 17.228 16.655 25.837 36.785 25.837 60.386 0 23.598-8.609 43.729-25.837 60.379-17.228 16.659-38.014 24.988-62.381 24.988-24.172 0-44.87-8.336-62.097-24.988-17.228-16.652-25.841-36.781-25.841-60.379 0-23.601 8.613-43.73 25.841-60.386zm231.403 212.564c0 4.945-1.718 9.083-5.141 12.416-3.433 3.33-7.519 4.996-12.282 4.996h-305.2c-4.948 0-9.091-1.666-12.419-4.996-3.333-3.326-4.998-7.471-4.998-12.416V185.575H89.08c-3.805 11.993-5.708 24.462-5.708 37.402 0 36.553 13.322 67.715 39.969 93.511 26.65 25.786 58.721 38.685 96.217 38.685 24.744 0 47.583-5.903 68.527-17.703 20.937-11.807 37.486-27.839 49.676-48.112 12.183-20.272 18.274-42.4 18.274-66.38 0-12.94-1.91-25.406-5.715-37.402h38.547V370.59h-.002zm0-254.963c0 5.52-1.903 10.184-5.716 13.99-3.805 3.809-8.466 5.711-13.989 5.711h-49.676c-5.517 0-10.185-1.903-13.99-5.711-3.806-3.806-5.708-8.47-5.708-13.99V68.522c0-5.33 1.902-9.945 5.708-13.848 3.806-3.901 8.474-5.854 13.99-5.854h49.676c5.523 0 10.185 1.952 13.989 5.854 3.812 3.903 5.716 8.518 5.716 13.848v47.104z"></path></svg><svg width="95.481" height="95.481" viewBox="0 0 95.481 95.481" id="soc-ok" y="11376"><path d="M43.041 67.254c-7.402-.772-14.076-2.595-19.79-7.064-.709-.556-1.441-1.092-2.088-1.713-2.501-2.402-2.753-5.153-.774-7.988 1.693-2.426 4.535-3.075 7.489-1.682.572.27 1.117.607 1.639.969 10.649 7.317 25.278 7.519 35.967.329 1.059-.812 2.191-1.474 3.503-1.812 2.551-.655 4.93.282 6.299 2.514 1.564 2.549 1.544 5.037-.383 7.016-2.956 3.034-6.511 5.229-10.461 6.761-3.735 1.448-7.826 2.177-11.875 2.661.611.665.899.992 1.281 1.376 5.498 5.524 11.02 11.025 16.5 16.566 1.867 1.888 2.257 4.229 1.229 6.425-1.124 2.4-3.64 3.979-6.107 3.81-1.563-.108-2.782-.886-3.865-1.977-4.149-4.175-8.376-8.273-12.441-12.527-1.183-1.237-1.752-1.003-2.796.071-4.174 4.297-8.416 8.528-12.683 12.735-1.916 1.889-4.196 2.229-6.418 1.15-2.362-1.145-3.865-3.556-3.749-5.979.08-1.639.886-2.891 2.011-4.014 5.441-5.433 10.867-10.88 16.295-16.322.359-.362.694-.746 1.217-1.305z"></path><path d="M47.55 48.329c-13.205-.045-24.033-10.992-23.956-24.218C23.67 10.739 34.505-.037 47.84 0c13.362.036 24.087 10.967 24.02 24.478-.068 13.199-10.971 23.897-24.31 23.851zm12.001-24.186c-.023-6.567-5.253-11.795-11.807-11.801-6.609-.007-11.886 5.316-11.835 11.943.049 6.542 5.324 11.733 11.896 11.709 6.552-.023 11.768-5.285 11.746-11.851z"></path></svg><svg viewBox="0 0 300 300" width="300" height="300" id="soc-telegram" y="11472"><path d="M5.299 144.645l69.126 25.8 26.756 86.047c1.712 5.511 8.451 7.548 12.924 3.891l38.532-31.412a11.496 11.496 0 0 1 14.013-.391l69.498 50.457c4.785 3.478 11.564.856 12.764-4.926L299.823 29.22c1.31-6.316-4.896-11.585-10.91-9.259L5.218 129.402c-7.001 2.7-6.94 12.612.081 15.243zm91.57 12.066l135.098-83.207c2.428-1.491 4.926 1.792 2.841 3.726L123.313 180.87a23.112 23.112 0 0 0-7.163 13.829l-3.798 28.146c-.503 3.758-5.782 4.131-6.819.494l-14.607-51.325c-1.673-5.854.765-12.107 5.943-15.303z"></path></svg><svg viewBox="0 0 410.155 410.155" width="410.155" height="410.155" id="soc-twitter" y="11772"><path d="M403.632 74.18a162.414 162.414 0 0 1-28.28 9.537 88.177 88.177 0 0 0 23.275-37.067c1.295-4.051-3.105-7.554-6.763-5.385a163.188 163.188 0 0 1-43.235 17.862 11.02 11.02 0 0 1-2.702.336c-2.766 0-5.455-1.027-7.57-2.891-16.156-14.239-36.935-22.081-58.508-22.081-9.335 0-18.76 1.455-28.014 4.325-28.672 8.893-50.795 32.544-57.736 61.724-2.604 10.945-3.309 21.9-2.097 32.56a3.166 3.166 0 0 1-.797 2.481 3.278 3.278 0 0 1-2.753 1.091c-62.762-5.831-119.358-36.068-159.363-85.14-2.04-2.503-5.952-2.196-7.578.593-7.834 13.44-11.974 28.812-11.974 44.454 0 23.972 9.631 46.563 26.36 63.032a79.24 79.24 0 0 1-20.169-7.808c-3.06-1.7-6.825.485-6.868 3.985-.438 35.612 20.412 67.3 51.646 81.569a79.567 79.567 0 0 1-16.786-1.399c-3.446-.658-6.341 2.611-5.271 5.952 10.138 31.651 37.39 54.981 70.002 60.278-27.066 18.169-58.585 27.753-91.39 27.753l-10.227-.006c-3.151 0-5.816 2.054-6.619 5.106-.791 3.006.666 6.177 3.353 7.74 36.966 21.513 79.131 32.883 121.955 32.883 37.485 0 72.549-7.439 104.219-22.109 29.033-13.449 54.689-32.674 76.255-57.141 20.09-22.792 35.8-49.103 46.692-78.201 10.383-27.737 15.871-57.333 15.871-85.589v-1.346c-.001-4.537 2.051-8.806 5.631-11.712a174.776 174.776 0 0 0 35.16-38.591c2.573-3.849-1.485-8.673-5.719-6.795z"></path></svg><svg viewBox="0 0 512 512" width="512" height="512" id="soc-vk" y="12183"><path d="M440.649 295.361c16.984 16.582 34.909 32.182 50.142 50.436 6.729 8.112 13.099 16.482 17.973 25.896 6.906 13.382.651 28.108-11.348 28.907l-74.59-.034c-19.238 1.596-34.585-6.148-47.489-19.302-10.327-10.519-19.891-21.714-29.821-32.588-4.071-4.444-8.332-8.626-13.422-11.932-10.182-6.609-19.021-4.586-24.84 6.034-5.926 10.802-7.271 22.762-7.853 34.8-.799 17.564-6.108 22.182-23.751 22.986-37.705 1.778-73.489-3.926-106.732-22.947-29.308-16.768-52.034-40.441-71.816-67.24-38.513-52.183-68.008-109.525-94.516-168.473-5.967-13.281-1.603-20.41 13.051-20.663 24.333-.473 48.663-.439 73.025-.034 9.89.145 16.437 5.817 20.256 15.16 13.165 32.371 29.274 63.169 49.494 91.716 5.385 7.6 10.876 15.201 18.694 20.55 8.65 5.923 15.236 3.96 19.305-5.676 2.582-6.11 3.713-12.691 4.295-19.234 1.928-22.513 2.182-44.988-1.199-67.422-2.076-14.001-9.962-23.065-23.933-25.714-7.129-1.351-6.068-4.004-2.616-8.073 5.995-7.018 11.634-11.387 22.875-11.387h84.298c13.271 2.619 16.218 8.581 18.035 21.934l.072 93.637c-.145 5.169 2.582 20.51 11.893 23.931 7.452 2.436 12.364-3.526 16.836-8.251 20.183-21.421 34.588-46.737 47.457-72.951 5.711-11.527 10.622-23.497 15.381-35.458 3.526-8.875 9.059-13.242 19.056-13.049l81.132.072c2.406 0 4.84.035 7.17.434 13.671 2.33 17.418 8.211 13.195 21.561-6.653 20.945-19.598 38.4-32.255 55.935-13.53 18.721-28.001 36.802-41.418 55.634-12.328 17.2-11.349 25.868 3.964 40.805z"></path></svg><svg viewBox="0 0 512 512" width="512" height="512" id="soc-whatsapp" y="12695"><path d="M256.064 0h-.128C114.784 0 0 114.816 0 256c0 56 18.048 107.904 48.736 150.048l-31.904 95.104 98.4-31.456C155.712 496.512 204 512 256.064 512 397.216 512 512 397.152 512 256S397.216 0 256.064 0zm148.96 361.504c-6.176 17.44-30.688 31.904-50.24 36.128-13.376 2.848-30.848 5.12-89.664-19.264-75.232-31.168-123.68-107.616-127.456-112.576-3.616-4.96-30.4-40.48-30.4-77.216s18.656-54.624 26.176-62.304c6.176-6.304 16.384-9.184 26.176-9.184 3.168 0 6.016.16 8.576.288 7.52.32 11.296.768 16.256 12.64 6.176 14.88 21.216 51.616 23.008 55.392 1.824 3.776 3.648 8.896 1.088 13.856-2.4 5.12-4.512 7.392-8.288 11.744-3.776 4.352-7.36 7.68-11.136 12.352-3.456 4.064-7.36 8.416-3.008 15.936 4.352 7.36 19.392 31.904 41.536 51.616 28.576 25.44 51.744 33.568 60.032 37.024 6.176 2.56 13.536 1.952 18.048-2.848 5.728-6.176 12.8-16.416 20-26.496 5.12-7.232 11.584-8.128 18.368-5.568 6.912 2.4 43.488 20.48 51.008 24.224 7.52 3.776 12.48 5.568 14.304 8.736 1.792 3.168 1.792 18.048-4.384 35.52z"></path></svg><svg viewBox="0 0 512 512" width="512" height="512" id="soc-youtube" y="13207"><path d="M490.24 113.92c-13.888-24.704-28.96-29.248-59.648-30.976C399.936 80.864 322.848 80 256.064 80c-66.912 0-144.032.864-174.656 2.912-30.624 1.76-45.728 6.272-59.744 31.008C7.36 138.592 0 181.088 0 255.904v.256c0 74.496 7.36 117.312 21.664 141.728 14.016 24.704 29.088 29.184 59.712 31.264C112.032 430.944 189.152 432 256.064 432c66.784 0 143.872-1.056 174.56-2.816 30.688-2.08 45.76-6.56 59.648-31.264C504.704 373.504 512 330.688 512 256.192v-.256c0-74.848-7.296-117.344-21.76-142.016zM192 352V160l160 96-160 96z"></path></svg><svg viewBox="0 0 490.727 490.727" width="490.727" height="490.727" id="star" y="13719"><path d="M453.443 160.214l-119.7-8.6c-2.5-.2-4.7-1.7-5.6-4.1l-45.6-111c-6.3-15.3-20.5-24.8-37.1-24.8s-30.7 9.5-37.1 24.9l-45.7 111.1c-1 2.3-3.1 3.9-5.6 4.1l-119.5 8.6c-16.2.9-30 11.5-35.3 27.1-5.4 15.8-.9 32.4 11.9 43.3l92.5 76.4c1.9 1.6 2.8 4.2 2.2 6.6l-28.2 115.4c-3.3 12-1 24.4 6.3 34.1 7.5 9.8 19.2 15.7 31.5 15.7 7.6 0 15-2.3 21.1-6.4l101.1-62.9c2.1-1.3 4.8-1.3 6.9 0l102.1 62.7c6.4 4.3 13.8 6.6 21.3 6.6 11.5 0 22.9-5.5 30.3-14.8 7.7-9.6 10.5-22.1 7.7-34.6l-28.3-115.7c-.6-2.5.3-5.1 2.2-6.7l93.9-76.6c12.6-10.8 17.1-27.4 11.8-43.2-5.2-15.6-19.1-26.3-35.1-27.2zm7.7 51.5l-93.7 76.5c-9.2 7.5-13.4 19.9-10.5 31.5l28.3 115.5c1.5 6.8-1.2 11.5-3 13.7-2.8 3.5-7 5.7-11.2 5.7-2.6 0-5.2-.8-8-2.7l-102.5-63c-4.9-3-10.5-4.6-16.3-4.6s-11.5 1.6-16.4 4.7l-101.5 63.1c-6.5 4.3-15.2 2.4-19.8-3.6-1.9-2.5-3.9-6.8-2.1-13.1l28.3-115.8c2.8-11.5-1.3-23.8-10.4-31.3l-92.3-76.3c-7.3-6.3-5.3-14.4-4.5-16.7s4.1-10 13.7-10.5l119.7-8.6c11.8-.9 22-8.2 26.5-19.2l45.7-111.1c3.7-9 12-9.7 14.4-9.7 2.4 0 10.7.7 14.4 9.7l45.7 111.1c4.5 11 14.7 18.3 26.5 19.2l119.9 8.7c9.4.5 12.7 8.2 13.5 10.5.6 2.1 2.6 10.2-4.4 16.3z"></path></svg><svg width="96" height="95.428" viewBox="0 0 96 95.428" id="unlike" y="14210"><path data-name="Path 84" d="M2.6 44.201a10.194 10.194 0 0 0 7.6 17H30a65.927 65.927 0 0 0-2.8 17.227v3.4a13.617 13.617 0 0 0 13.6 13.6h3.4a3.4 3.4 0 0 0 3.3-2.575l1.852-7.41c2.6-10.377 10.835-21.826 19.362-23.907a10.214 10.214 0 0 0 9.488 6.465H92.6a3.4 3.4 0 0 0 3.4-3.4v-61.2a3.4 3.4 0 0 0-3.4-3.4H78.2a10.211 10.211 0 0 0-9.207 5.814L57.311 1.921A37.318 37.318 0 0 0 45.483.001H17a10.2 10.2 0 0 0-9.484 13.958 10.194 10.194 0 0 0-4.912 16.642 10.18 10.18 0 0 0 0 13.6zm72.2-34a3.4 3.4 0 0 1 3.4-3.4h11v54.4h-11a3.4 3.4 0 0 1-3.4-3.4zM17 40.801h-6.8a3.4 3.4 0 1 1 0-6.8H17a3.4 3.4 0 0 0 0-6.8h-6.8a3.4 3.4 0 1 1 0-6.8H17a3.4 3.4 0 1 0 0-6.8 3.4 3.4 0 0 1 0-6.8h28.483a30.534 30.534 0 0 1 9.679 1.571L68 12.651v42.072c-5.333 1.013-10.554 4.391-15.266 9.919a49.611 49.611 0 0 0-9.98 19.151l-1.208 4.835H40.8a6.808 6.808 0 0 1-6.8-6.8v-3.4c0-4.565 1.428-13.321 3.255-17.229H44.2a3.4 3.4 0 0 0 0-6.8h-34a3.4 3.4 0 1 1 0-6.8H17a3.4 3.4 0 0 0 0-6.8z"></path></svg><svg viewBox="0 0 512.001 512.001" width="512.001" height="512.001" id="upload" y="14306"><path d="M405.967 195.112c-1.069-78.061-64.902-141.239-143.213-141.239-34.835 0-68.396 12.672-94.498 35.682-23.296 20.535-39.232 47.977-45.543 78.106-.461-.005-.918-.009-1.374-.009C54.434 167.652 0 222.085 0 288.991S54.434 410.33 121.34 410.33h84.743c6.029 0 10.919-4.888 10.919-10.919 0-6.031-4.89-10.919-10.919-10.919H121.34c-54.866 0-99.502-44.636-99.502-99.501s44.636-99.501 99.502-99.501c2.923 0 6.013.157 9.448.48 5.822.545 11.049-3.596 11.842-9.396 3.932-28.82 18.161-55.327 40.067-74.638 22.111-19.492 50.542-30.226 80.056-30.226 66.935 0 121.389 54.455 121.389 121.389 0 2.41-.179 4.894-.368 7.524l-.081 1.118a10.915 10.915 0 0 0 3.287 8.604 10.914 10.914 0 0 0 8.697 3.03 87.102 87.102 0 0 1 8.708-.44c47.297 0 85.778 38.48 85.778 85.778 0 47.297-38.48 85.777-85.778 85.777h-89.111c-6.029 0-10.919 4.888-10.919 10.919 0 6.031 4.89 10.919 10.919 10.919h89.111c59.339 0 107.616-48.275 107.616-107.615-.001-58.807-47.421-106.752-106.034-107.601z"></path><path d="M262.755 105.192c-45.658 0-84.742 34.121-90.914 79.367-.815 5.975 3.369 11.48 9.343 12.295.501.068.998.102 1.489.102 5.375 0 10.059-3.97 10.804-9.444 4.703-34.48 34.486-60.482 69.277-60.482 6.031 0 10.919-4.888 10.919-10.919.001-6.03-4.888-10.919-10.918-10.919zm49.655 214.86l-39.718-35.48c-6.847-6.12-17.177-6.119-24.027-.001l-39.718 35.482c-4.498 4.017-4.886 10.92-.869 15.418 4.017 4.496 10.919 4.887 15.418.869l26.264-23.462v134.331c0 6.031 4.888 10.919 10.919 10.919 6.03 0 10.919-4.888 10.919-10.919V312.876l26.265 23.463a10.873 10.873 0 0 0 7.27 2.776 10.89 10.89 0 0 0 8.148-3.645c4.015-4.498 3.626-11.4-.871-15.418z"></path></svg><svg width="22" height="22" viewBox="0 0 22 22" id="user" y="14819"><path d="M5.035 17.74a9 9 0 0 0 11.929 0C16.672 16.687 14.569 16 11 16s-5.672.687-5.965 1.74zM3.6 16.125C4.726 14.638 7.371 14 11 14s6.274.638 7.4 2.125a9 9 0 1 0-14.8 0zM11 22a11 11 0 1 1 11-11 11 11 0 0 1-11 11zM7 9a3.851 3.851 0 0 1 4-4 4 4 0 0 1 4 4.2c0 3.28-1.782 4.8-4 4.8-2.239 0-4-1.573-4-5zm2 0c0 2.269.818 3 2 3s2-.7 2-2.8A2.019 2.019 0 0 0 11 7a1.864 1.864 0 0 0-2 2z" fill-rule="evenodd"></path></svg><svg width="40" height="40" viewBox="0 0 40 40" id="veg" y="14841"><path d="M2.35 8.752c1.456 3.384 3.912 6.731 7.35 8.174.392.163.837.286 1.295.388.915-1.365 1.966-2.473 3.196-3.38a16.06 16.06 0 0 1 3.307-1.864 9.33 9.33 0 0 0-1.03-.625c-1.431-.748-2.98-1.406-4.488-2.113 1.418.384 3.045.527 4.402 1.022.846.31 1.626.74 2.354 1.25 2.17-.74 4.439-1.095 6.703-1.365-1.835-3.049-5.75-5.497-8.702-6.605-3.081-1.156-6.572-1.3-10.001-1.655C4.636 1.762 2.35.978.679.062c-.38-.208-.785.14-.654.56.821 2.628 1.238 5.604 2.325 8.13z"></path><path d="M38.583 8.351c-3.866 2.1-8.3 2.358-12.645 2.857-2.122.245-4.222.548-6.221 1.152-.433.131-.867.278-1.292.442a15.222 15.222 0 0 0-3.63 1.962 12.304 12.304 0 0 0-2.705 2.767c-1.185 1.65-2.01 3.551-2.69 5.526a31.514 31.514 0 0 0-1.695 11.182c.045 1.537.07 3.135.45 4.635.085.331.167.752.424.997.335.323.936-.008.801-.478-.972-3.315-.367-7.19.977-10.357 1.545-3.642 4.529-5.808 8.175-7.128a46.36 46.36 0 0 1 2.963-.948c.02-.008.04-.008.061-.008.2 0 .286.294.078.388-1.186.535-2.363 1.075-3.483 1.66-5.485 2.86-7.88 9.523-5.824 9.523.168 0 .364-.045.589-.14 3.171-1.311 6.94-1.324 10.426-1.97 1.226-.224 2.42-.53 3.54-.997 4.447-1.855 7.626-5.485 9.519-9.85 1.41-3.257 1.957-7.103 3.024-10.487.14-.434-.167-.806-.543-.806a.562.562 0 0 0-.299.078z"></path></svg><svg width="54" height="17.579" viewBox="0 0 54 17.579" id="visa" y="14881"><path data-name="Subtraction 8" d="M30.979 17.579a13.026 13.026 0 0 1-4.851-.9l.79-3.725.082.036a8.94 8.94 0 0 0 4.225 1.036h.175c1.291-.019 2.6-.541 2.611-1.664.007-.747-.564-1.281-2.262-2.114-1.654-.812-3.85-2.175-3.82-4.628C27.952 2.311 30.984 0 35.3 0a11.6 11.6 0 0 1 4.084.754l-.768 3.6a8.488 8.488 0 0 0-3.55-.8 5.662 5.662 0 0 0-.751.045c-1.347.175-1.839.876-1.852 1.422-.017.806.989 1.338 2.154 1.955 1.769.937 3.97 2.1 3.96 4.785-.018 3.539-3 5.818-7.598 5.818zm11.949-.264H38.35l6.545-15.758A1.986 1.986 0 0 1 46.752.311h3.727l3.522 17h-4.036l-.529-2.538h-5.6l-.911 2.538zM47.391 4.9l-2.3 6.385h3.619zM23.13 17.313h-4.364l3.61-17h4.361l-3.606 17zm-9.7 0H8.821L5.342 3.745a1.857 1.857 0 0 0-1.037-1.494A18.423 18.423 0 0 0 0 .8L.1.311h7.428a2.047 2.047 0 0 1 2.014 1.732l1.836 9.841L15.92.311h4.58l-7.069 17z"></path></svg><svg width="29.105" height="22" viewBox="0 0 29.105 22" id="wifi" y="14899"><g data-name="Group 675"><path data-name="Path 215" d="M4.732 10.109a1.56 1.56 0 1 0 2.207 2.207 10.785 10.785 0 0 1 15.234 0 1.558 1.558 0 1 0 2.2-2.207 13.9 13.9 0 0 0-19.641 0z"></path><path data-name="Path 216" d="M8.943 14.321a1.56 1.56 0 0 0 2.207 2.207 4.811 4.811 0 0 1 6.8 0 1.556 1.556 0 1 0 2.2-2.2 7.929 7.929 0 0 0-11.207-.007z"></path><circle data-name="Ellipse 31" cx="2.076" cy="2.076" r="2.076" transform="translate(12.477 17.848)"></circle><path data-name="Path 217" d="M28.65 5.826a19.969 19.969 0 0 0-28.2 0 1.56 1.56 0 0 0 2.207 2.207 16.834 16.834 0 0 1 23.787 0 1.558 1.558 0 0 0 2.2-2.207z"></path></g></svg></svg>