<svg xmlns="http://www.w3.org/2000/svg" width="100" height="40" viewBox="0 0 100 40"><g><g><path fill="#ffd800" d="M90.684 5.609c.11 0 .224.006.333.02 1.665.203 2.949 1.816 2.862 3.596-.078 1.632-1.241 2.817-2.764 2.817-.118 0-.238-.008-.358-.021-1.664-.2-2.947-1.813-2.86-3.596 0-1.553 1.25-2.816 2.787-2.816zM5.503 25.426c.064 0 .13.003.196.01 1.009.096 1.82 1.076 1.733 2.099-.08 1.02-.77 1.707-1.716 1.707-.06 0-.127-.005-.184-.01h-.009c-1.084-.103-1.732-1.148-1.732-2.1 0-.988.72-1.706 1.712-1.706zM100 39.999l-.266-3.683a4.57 4.57 0 0 1-.205-.021c-2.358-.282-4.178-2.568-4.056-5.096 0-2.05 1.583-3.796 3.604-3.976L97.112 0c-.11.005-25.706 1.297-50.322 2.537.065.458.072.913.019 1.351-.488 1.96-1.907 3.275-3.534 3.275a3.43 3.43 0 0 1-1.356-.292c-1.64-.473-2.96-2.011-3.366-3.92A39070.966 39070.966 0 0 1 0 4.886v29.313l100 5.802z"/></g></g></svg>