<svg xmlns="http://www.w3.org/2000/svg" width="162" height="40" viewBox="0 0 162 40"><g><g><path fill="#24252a" d="M101.442 10.08c.044.482-.127.987-.468 1.386a2.034 2.034 0 0 1-1.57.72c-1.048 0-1.807-.718-1.807-1.707 0-.948.684-1.992 1.83-2.097.073-.006.14-.01.208-.01.996 0 1.722.687 1.807 1.708zM0 40l162.158-7.889-2.537-11.19a4.627 4.627 0 0 1-2.035.485c-2.3 0-4.171-1.791-4.171-3.993-.125-2.51 1.784-4.793 4.256-5.093l-1.429-6.299L19.005.536c.44.5.691 1.14.727 1.853.091 1.78-1.265 3.394-3.022 3.597-.144.014-.253.02-.353.02-1.623 0-2.943-1.264-2.943-2.818-.055-1.066.415-2.122 1.256-2.825L5.558 0 2.132 24.656a4.601 4.601 0 0 1 1.731-.91 3.767 3.767 0 0 1 1.432-.294c1.718 0 3.217 1.315 3.73 3.273.324 2.47-1.311 4.996-3.644 5.632a4.803 4.803 0 0 1-1.26.168c-1.128 0-2.192-.42-2.923-1.152L0 40-.001 40z"/></g></g></svg>